<svg xmlns="http://www.w3.org/2000/svg" width="80" height="80" viewBox="0 0 80 80">
  <g id="Group_503" data-name="Group 503" transform="translate(-250 -2634)">
    <circle id="Ellipse_6" data-name="Ellipse 6" cx="40" cy="40" r="40" transform="translate(250 2634)" fill="#fff"/>
    <circle id="Ellipse_4" data-name="Ellipse 4" cx="35" cy="35" r="35" transform="translate(255 2639)" fill="#1dbac1"/>
    <g id="Group_107" data-name="Group 107" transform="translate(270 2654)">
      <path id="Path_126" data-name="Path 126" d="M0,0H40.216V40.216H0Z" fill="none"/>
      <path id="Path_127" data-name="Path 127" d="M32.162,8.7H28.509a5.015,5.015,0,0,0-8.915-4.441l-.838,1.123-.838-1.139A5.017,5.017,0,0,0,9,8.7H5.351a3.326,3.326,0,0,0-3.335,3.351L2,30.487a3.34,3.34,0,0,0,3.351,3.351H32.162a3.34,3.34,0,0,0,3.351-3.351V12.054A3.34,3.34,0,0,0,32.162,8.7ZM23.784,5.351a1.676,1.676,0,1,1-1.676,1.676,1.676,1.676,0,0,1,1.676-1.676Zm-10.054,0a1.676,1.676,0,1,1-1.676,1.676A1.676,1.676,0,0,1,13.73,5.351ZM32.162,30.487H5.351V27.135H32.162Zm0-8.378H5.351V13.73a1.681,1.681,0,0,1,1.676-1.676h6.837l-2.48,3.385a1.673,1.673,0,0,0,2.7,1.977l4.675-6.368,4.675,6.368a1.673,1.673,0,0,0,2.7-1.977l-2.48-3.385h6.837a1.681,1.681,0,0,1,1.676,1.676Z" transform="translate(1.351 1.351)" fill="#fff"/>
    </g>
  </g>
</svg>
