<svg xmlns="http://www.w3.org/2000/svg" width="80" height="80" viewBox="0 0 80 80">
  <g id="Group_506" data-name="Group 506" transform="translate(-1034 -2634)">
    <g id="Group_505" data-name="Group 505">
      <circle id="Ellipse_9" data-name="Ellipse 9" cx="40" cy="40" r="40" transform="translate(1034 2634)" fill="#fff"/>
      <circle id="Ellipse_7" data-name="Ellipse 7" cx="35" cy="35" r="35" transform="translate(1039 2639)" fill="#1dbac1"/>
    </g>
    <g id="Group_110" data-name="Group 110" transform="matrix(0.174, -0.985, 0.985, 0.174, 1055.878, 2686.145)">
      <path id="Path_130" data-name="Path 130" d="M17.994,29.77a1.256,1.256,0,0,1-1.176-.915l-3.007-9.02a1.324,1.324,0,0,1,2.484-.915l1.83,5.621,7.974-20-20,8.1,5.621,1.83a1.327,1.327,0,1,1-.92,2.489L1.78,13.953A1.324,1.324,0,0,1,1,12.776a1.438,1.438,0,0,1,.784-1.307L27.929,1.012a1.475,1.475,0,0,1,1.438.392,1.193,1.193,0,0,1,.261,1.438L19.17,28.986a1.143,1.143,0,0,1-1.176.784Z" fill="#fff"/>
      <path id="Path_131" data-name="Path 131" d="M4.922,26.594a3.762,3.762,0,0,1-2.745-1.176,3.79,3.79,0,0,1,0-5.49l8.235-8.235a1.294,1.294,0,0,1,1.83,1.83L4.007,21.758a1.294,1.294,0,1,0,1.83,1.83l8.235-8.235a1.294,1.294,0,1,1,1.83,1.83L7.667,25.418a3.762,3.762,0,0,1-2.745,1.176Z" transform="translate(0 3.176)" fill="#fff"/>
    </g>
  </g>
</svg>
