<svg xmlns="http://www.w3.org/2000/svg" width="20" height="20" viewBox="0 0 20 20">
  <path id="Path_105" data-name="Path 105" d="M31,22A10,10,0,1,0,41,32,10,10,0,0,0,31,22Zm7.316,15.349a11.207,11.207,0,0,0-2.093-.953,16.391,16.391,0,0,0,.567-3.93h3.256a9.012,9.012,0,0,1-1.73,4.884ZM21.942,32.465h3.267a16.391,16.391,0,0,0,.565,3.933,11.207,11.207,0,0,0-2.093.953,9.012,9.012,0,0,1-1.74-4.886Zm1.742-5.814a11.207,11.207,0,0,0,2.093.953,16.39,16.39,0,0,0-.567,3.93H21.953a9.012,9.012,0,0,1,1.73-4.884Zm7.781,1.772a16.632,16.632,0,0,0,3.849-.544,15.147,15.147,0,0,1,.547,3.656h-4.4Zm0-.93V22.974c1.465.274,2.765,1.816,3.565,4.019A15.6,15.6,0,0,1,31.465,27.493Zm-.93-4.519v4.519a15.6,15.6,0,0,1-3.565-.5C27.77,24.791,29.07,23.249,30.535,22.974Zm0,5.449v3.112h-4.4a15.146,15.146,0,0,1,.547-3.656,16.632,16.632,0,0,0,3.849.544Zm-4.4,4.042h4.4v3.112a16.633,16.633,0,0,0-3.849.544,15.146,15.146,0,0,1-.547-3.656Zm4.4,4.042v4.519c-1.465-.274-2.765-1.816-3.565-4.019A15.6,15.6,0,0,1,30.535,36.507Zm.93,4.519V36.507a15.6,15.6,0,0,1,3.565.5C34.23,39.209,32.93,40.751,31.465,41.026Zm0-5.449V32.465h4.4a15.147,15.147,0,0,1-.547,3.656A16.633,16.633,0,0,0,31.465,35.577Zm5.326-4.042a16.39,16.39,0,0,0-.565-3.933,11.207,11.207,0,0,0,2.093-.953,9.012,9.012,0,0,1,1.751,4.886Zm.93-5.616a10.274,10.274,0,0,1-1.777.8,9.16,9.16,0,0,0-1.888-3.256,9.084,9.084,0,0,1,3.667,2.458Zm-9.779-2.456a9.161,9.161,0,0,0-1.888,3.256,10.274,10.274,0,0,1-1.777-.8,9.084,9.084,0,0,1,3.665-2.458ZM24.277,38.081a10.274,10.274,0,0,1,1.777-.8,9.161,9.161,0,0,0,1.888,3.256A9.084,9.084,0,0,1,24.277,38.081Zm9.781,2.456a9.161,9.161,0,0,0,1.888-3.256,10.275,10.275,0,0,1,1.777.8A9.084,9.084,0,0,1,34.058,40.537Z" transform="translate(-21 -22)" fill="#181818"/>
</svg>
