<svg xmlns="http://www.w3.org/2000/svg" xmlns:xlink="http://www.w3.org/1999/xlink" width="393.273" height="75" viewBox="0 0 393.273 75">
  <defs>
    <clipPath id="clip-path">
      <rect id="Rectángulo_15" data-name="Rectángulo 15" width="393.273" height="75" transform="translate(-27.001 -8)" fill="none"/>
    </clipPath>
    <clipPath id="clip-path-2">
      <rect id="Rectángulo_14" data-name="Rectángulo 14" width="338.42" height="64.151" fill="none"/>
    </clipPath>
    <clipPath id="clip-path-3">
      <rect id="Rectángulo_12" data-name="Rectángulo 12" width="39.757" height="27.506" fill="none"/>
    </clipPath>
  </defs>
  <g id="Grupo_24" data-name="Grupo 24" transform="translate(27.001 8)">
    <g id="Grupo_23" data-name="Grupo 23" clip-path="url(#clip-path)">
      <g id="Grupo_22" data-name="Grupo 22" transform="translate(0 0)">
        <g id="Grupo_21" data-name="Grupo 21" clip-path="url(#clip-path-2)">
          <path id="Trazado_93" data-name="Trazado 93" d="M243.76,70.957V55.3h2.191l.226,2.255h.1a12.811,12.811,0,0,1,2.369-1.885,5.423,5.423,0,0,1,2.884-.757,4.213,4.213,0,0,1,3.625,1.547,7.653,7.653,0,0,1,1.144,4.576v9.925h-2.643v-9.57a5.591,5.591,0,0,0-.709-3.206,2.592,2.592,0,0,0-2.255-.984,3.852,3.852,0,0,0-2.159.613,13.985,13.985,0,0,0-2.127,1.8V70.957Z" transform="translate(-62.255 -14.024)" fill="#fff"/>
          <path id="Trazado_94" data-name="Trazado 94" d="M270.509,69.974a5.1,5.1,0,0,1-2.111-.387,3.622,3.622,0,0,1-1.385-1.063,4.142,4.142,0,0,1-.758-1.643,9.375,9.375,0,0,1-.226-2.127V56.085H263.71v-2l2.448-.162.323-4.382H268.7v4.382h4.221v2.159H268.7v8.7a3.99,3.99,0,0,0,.532,2.24,2.108,2.108,0,0,0,1.885.79,3.5,3.5,0,0,0,.9-.13,6.754,6.754,0,0,0,.87-.29l.516,2a13.873,13.873,0,0,1-1.4.4,6.587,6.587,0,0,1-1.5.177" transform="translate(-67.35 -12.653)" fill="#fff"/>
          <path id="Trazado_95" data-name="Trazado 95" d="M280.822,49.931a1.874,1.874,0,0,1-1.305-.483,1.695,1.695,0,0,1,0-2.465,2.058,2.058,0,0,1,2.611,0,1.695,1.695,0,0,1,0,2.465,1.874,1.874,0,0,1-1.305.483m-1.353,3.222h2.642V68.813h-2.642Z" transform="translate(-71.251 -11.88)" fill="#fff"/>
          <path id="Trazado_96" data-name="Trazado 96" d="M289.068,70.957V55.3h2.191l.226,2.255h.1a12.811,12.811,0,0,1,2.369-1.885,5.423,5.423,0,0,1,2.884-.757,4.213,4.213,0,0,1,3.625,1.547,7.653,7.653,0,0,1,1.144,4.576v9.925H298.96v-9.57a5.591,5.591,0,0,0-.709-3.206A2.592,2.592,0,0,0,296,57.2a3.852,3.852,0,0,0-2.159.613,13.985,13.985,0,0,0-2.127,1.8V70.957Z" transform="translate(-73.826 -14.024)" fill="#fff"/>
          <path id="Trazado_97" data-name="Trazado 97" d="M314.806,71.344a4.742,4.742,0,0,1-3.271-1.16A4.168,4.168,0,0,1,310.23,66.9a4.349,4.349,0,0,1,2.289-3.947q2.286-1.369,7.314-1.917a7.252,7.252,0,0,0-.145-1.45,3.643,3.643,0,0,0-.5-1.257,2.63,2.63,0,0,0-.984-.886,3.331,3.331,0,0,0-1.595-.338,6.346,6.346,0,0,0-2.545.515,12.435,12.435,0,0,0-2.127,1.161l-1.031-1.838a17.13,17.13,0,0,1,2.674-1.369,8.933,8.933,0,0,1,3.48-.661,4.809,4.809,0,0,1,4.156,1.757,7.743,7.743,0,0,1,1.29,4.687v9.6h-2.191l-.226-1.869h-.1a13.248,13.248,0,0,1-2.416,1.595,6,6,0,0,1-2.771.66m.773-2.127a4.459,4.459,0,0,0,2.127-.532,10.68,10.68,0,0,0,2.127-1.563v-4.35a26.8,26.8,0,0,0-3.3.612,8.7,8.7,0,0,0-2.159.838,3.255,3.255,0,0,0-1.193,1.112,2.648,2.648,0,0,0-.371,1.37,2.22,2.22,0,0,0,.806,1.933,3.277,3.277,0,0,0,1.966.58" transform="translate(-79.231 -14.024)" fill="#fff"/>
          <path id="Trazado_98" data-name="Trazado 98" d="M163.357,69.212l7.153-21.139h3.029l7.153,21.139h-2.868l-2-6.445h-7.7l-2.03,6.445ZM169.8,57.386l-1,3.222h6.349l-1-3.222q-.581-1.773-1.1-3.529t-1.031-3.593H171.9q-.484,1.836-1,3.593t-1.1,3.529" transform="translate(-41.72 -12.277)" fill="#fff"/>
          <path id="Trazado_99" data-name="Trazado 99" d="M189.1,70.957V55.3h2.191l.226,2.835h.1a7.244,7.244,0,0,1,1.949-2.352,4.04,4.04,0,0,1,2.5-.87,4.171,4.171,0,0,1,1.675.322l-.516,2.319a6.215,6.215,0,0,0-.709-.193,4.249,4.249,0,0,0-.806-.065,3.515,3.515,0,0,0-2.078.806,6.418,6.418,0,0,0-1.885,2.8V70.957Z" transform="translate(-48.296 -14.024)" fill="#fff"/>
          <path id="Trazado_100" data-name="Trazado 100" d="M207.784,78.175a11.922,11.922,0,0,1-2.643-.273,6.443,6.443,0,0,1-2.045-.822,4.075,4.075,0,0,1-1.321-1.321,3.422,3.422,0,0,1-.468-1.8,3.327,3.327,0,0,1,.612-1.9,6.434,6.434,0,0,1,1.675-1.643v-.13a3.046,3.046,0,0,1-.982-.982,3.126,3.126,0,0,1,.144-3.3,4.937,4.937,0,0,1,1.161-1.161v-.129a6.386,6.386,0,0,1-1.4-1.724,4.869,4.869,0,0,1-.628-2.5,5.569,5.569,0,0,1,.467-2.32,5.231,5.231,0,0,1,1.273-1.756,5.606,5.606,0,0,1,1.885-1.112,6.674,6.674,0,0,1,2.272-.386,6.158,6.158,0,0,1,1.208.113,7.188,7.188,0,0,1,1.015.273h5.446v2.03h-3.222a4.605,4.605,0,0,1,1.288,3.223,5.547,5.547,0,0,1-.45,2.272,4.973,4.973,0,0,1-1.225,1.707,5.6,5.6,0,0,1-1.821,1.08,6.422,6.422,0,0,1-2.24.387,5.189,5.189,0,0,1-1.192-.145,5.915,5.915,0,0,1-1.16-.4,3.767,3.767,0,0,0-.709.789,1.909,1.909,0,0,0-.29,1.08,1.525,1.525,0,0,0,.579,1.223,3.569,3.569,0,0,0,2.192.484h3.028a7.659,7.659,0,0,1,4.109.887,3.144,3.144,0,0,1,1.369,2.851,4.216,4.216,0,0,1-.548,2.079,5.325,5.325,0,0,1-1.579,1.724,8.294,8.294,0,0,1-2.5,1.175,11.563,11.563,0,0,1-3.3.436m.387-1.837a7.184,7.184,0,0,0,2.046-.273,5.665,5.665,0,0,0,1.562-.71,3.328,3.328,0,0,0,1-1.015,2.262,2.262,0,0,0,.354-1.192,1.553,1.553,0,0,0-.806-1.514,5.224,5.224,0,0,0-2.352-.418h-2.707c-.3,0-.628-.017-.983-.049a5.132,5.132,0,0,1-1.048-.209,4.273,4.273,0,0,0-1.224,1.289,2.707,2.707,0,0,0-.386,1.353,2.256,2.256,0,0,0,1.208,2,6.37,6.37,0,0,0,3.335.741m-.387-12.115a3.159,3.159,0,0,0,1.273-.258,3.276,3.276,0,0,0,1.063-.741,3.342,3.342,0,0,0,.724-1.176,4.45,4.45,0,0,0,.258-1.563,3.605,3.605,0,0,0-.967-2.69,3.385,3.385,0,0,0-4.7,0,3.6,3.6,0,0,0-.966,2.69,4.451,4.451,0,0,0,.258,1.563,3.342,3.342,0,0,0,.725,1.176,3.263,3.263,0,0,0,1.064.741,3.156,3.156,0,0,0,1.273.258" transform="translate(-51.413 -14.024)" fill="#fff"/>
          <path id="Trazado_101" data-name="Trazado 101" d="M229.458,71.344a7.666,7.666,0,0,1-2.949-.564,6.979,6.979,0,0,1-2.384-1.611,7.464,7.464,0,0,1-1.6-2.562,9.594,9.594,0,0,1-.58-3.448,9.482,9.482,0,0,1,.6-3.464,8.1,8.1,0,0,1,1.579-2.593,6.846,6.846,0,0,1,2.239-1.628,6.322,6.322,0,0,1,2.611-.564,6.557,6.557,0,0,1,2.658.516,5.191,5.191,0,0,1,1.966,1.482,6.819,6.819,0,0,1,1.208,2.32,10.25,10.25,0,0,1,.418,3.029c0,.28-.006.553-.016.821a4.062,4.062,0,0,1-.081.693H224.56a6.113,6.113,0,0,0,1.563,3.979,4.828,4.828,0,0,0,3.658,1.466,6.16,6.16,0,0,0,2.078-.338,9.2,9.2,0,0,0,1.821-.886l.934,1.74a13.321,13.321,0,0,1-2.287,1.127,7.949,7.949,0,0,1-2.868.484m-4.93-9.474h8.378a5.608,5.608,0,0,0-1.015-3.625A3.478,3.478,0,0,0,229.039,57a4.039,4.039,0,0,0-1.6.322,4.194,4.194,0,0,0-1.369.951,5.207,5.207,0,0,0-1.015,1.53,6.883,6.883,0,0,0-.532,2.063" transform="translate(-56.685 -14.024)" fill="#fff"/>
          <path id="Trazado_102" data-name="Trazado 102" d="M119.909,2.725c-.777,8.913,13.422,18.628,13.407,27.506H107c.025-8.859-14.192-18.611-13.407-27.506Z" transform="translate(-23.895 -0.696)" fill="#fff"/>
          <g id="Grupo_17" data-name="Grupo 17" transform="translate(69.665 29.536)" opacity="0.7">
            <g id="Grupo_16" data-name="Grupo 16">
              <g id="Grupo_15" data-name="Grupo 15" clip-path="url(#clip-path-3)">
                <path id="Trazado_103" data-name="Trazado 103" d="M119.909,67.172c-.777-8.913,13.422-18.628,13.407-27.506H107c.025,8.859-14.192,18.611-13.407,27.506Z" transform="translate(-93.56 -39.666)" fill="#fff"/>
              </g>
            </g>
          </g>
          <path id="Trazado_104" data-name="Trazado 104" d="M13.407,67.172C14.184,58.259-.015,48.544,0,39.666H26.319c-.025,8.859,14.192,18.611,13.407,27.506Z" transform="translate(0 -10.13)" fill="#fff"/>
          <g id="Grupo_20" data-name="Grupo 20" transform="translate(0 2.029)" opacity="0.7">
            <g id="Grupo_19" data-name="Grupo 19">
              <g id="Grupo_18" data-name="Grupo 18" clip-path="url(#clip-path-3)">
                <path id="Trazado_105" data-name="Trazado 105" d="M13.407,2.725C14.184,11.638-.015,21.353,0,30.231H26.319C26.294,21.371,40.511,11.62,39.725,2.725Z" transform="translate(0 -2.725)" fill="#fff"/>
              </g>
            </g>
          </g>
          <path id="Trazado_106" data-name="Trazado 106" d="M78.192,37.2a7.179,7.179,0,1,1-7.179-7.179A7.178,7.178,0,0,1,78.192,37.2" transform="translate(-16.303 -7.668)" fill="#fff"/>
          <path id="Trazado_107" data-name="Trazado 107" d="M167.152,25.817V2.577h6.219q5.33,0,8.315,2.879t2.985,8.634a15.491,15.491,0,0,1-.764,5.082,9.756,9.756,0,0,1-2.2,3.678,9.2,9.2,0,0,1-3.483,2.22,13.465,13.465,0,0,1-4.637.746Zm4.122-3.34h1.812a7.085,7.085,0,0,0,5.455-2.043q1.9-2.043,1.9-6.343,0-4.264-1.919-6.219a7.278,7.278,0,0,0-5.437-1.954h-1.812Z" transform="translate(-42.69 -0.658)" fill="#fff"/>
          <path id="Trazado_108" data-name="Trazado 108" d="M197.212,4.655a2.605,2.605,0,0,1-1.812-.64,2.142,2.142,0,0,1-.71-1.67A2.2,2.2,0,0,1,195.4.657a2.827,2.827,0,0,1,3.625,0,2.2,2.2,0,0,1,.711,1.688,2.14,2.14,0,0,1-.711,1.67,2.607,2.607,0,0,1-1.812.64m-2.06,3.056h4.086V25.159h-4.086Z" transform="translate(-49.722 0)" fill="#fff"/>
          <path id="Trazado_109" data-name="Trazado 109" d="M212.294,35.368a13.853,13.853,0,0,1-2.9-.284,7.561,7.561,0,0,1-2.292-.853,4.469,4.469,0,0,1-1.51-1.421,3.717,3.717,0,0,1,.089-4.033,5.965,5.965,0,0,1,1.848-1.688v-.142a3.538,3.538,0,0,1-1.12-1.137,3.292,3.292,0,0,1-.444-1.777,3.168,3.168,0,0,1,.587-1.866,5.651,5.651,0,0,1,1.332-1.369v-.141a6.248,6.248,0,0,1-1.582-1.866,5.374,5.374,0,0,1-.692-2.754,6.033,6.033,0,0,1,.568-2.665,5.961,5.961,0,0,1,1.51-1.972,6.445,6.445,0,0,1,2.186-1.208,8.384,8.384,0,0,1,2.629-.409,7.37,7.37,0,0,1,1.368.124,9.232,9.232,0,0,1,1.191.3h6.255v3.021h-3.2a4.159,4.159,0,0,1,.71,1.261,4.814,4.814,0,0,1,.284,1.688,5.981,5.981,0,0,1-.515,2.558,5.33,5.33,0,0,1-1.4,1.847,6.174,6.174,0,0,1-2.1,1.137,8.358,8.358,0,0,1-2.594.392,6.781,6.781,0,0,1-1.173-.107,5.78,5.78,0,0,1-1.208-.355,3.682,3.682,0,0,0-.622.71,1.739,1.739,0,0,0-.232.96,1.347,1.347,0,0,0,.622,1.173,4.162,4.162,0,0,0,2.221.426h3.092a9.108,9.108,0,0,1,4.78,1.013,3.583,3.583,0,0,1,1.617,3.287,4.759,4.759,0,0,1-.658,2.417,5.986,5.986,0,0,1-1.866,1.954,9.961,9.961,0,0,1-2.932,1.3,14.364,14.364,0,0,1-3.856.48m.64-2.665a6.251,6.251,0,0,0,3.429-.835,2.366,2.366,0,0,0,1.3-1.972,1.367,1.367,0,0,0-.8-1.386,5.822,5.822,0,0,0-2.292-.355h-2.381a9.719,9.719,0,0,1-2.38-.249,2.913,2.913,0,0,0-1.351,2.309,2.019,2.019,0,0,0,1.191,1.83,6.846,6.846,0,0,0,3.287.657m-.427-13.148a2.879,2.879,0,0,0,2.133-.906,3.579,3.579,0,0,0,.888-2.612,3.521,3.521,0,0,0-.871-2.541,2.862,2.862,0,0,0-2.15-.905,2.948,2.948,0,0,0-2.168.888,3.462,3.462,0,0,0-.888,2.558,3.575,3.575,0,0,0,.888,2.612,2.917,2.917,0,0,0,2.168.906" transform="translate(-52.367 -2.498)" fill="#fff"/>
          <path id="Trazado_110" data-name="Trazado 110" d="M232.145,4.655a2.607,2.607,0,0,1-1.812-.64,2.142,2.142,0,0,1-.71-1.67,2.2,2.2,0,0,1,.71-1.688,2.827,2.827,0,0,1,3.625,0,2.2,2.2,0,0,1,.711,1.688,2.142,2.142,0,0,1-.711,1.67,2.605,2.605,0,0,1-1.812.64m-2.06,3.056h4.086V25.159h-4.086Z" transform="translate(-58.644 0)" fill="#fff"/>
          <path id="Trazado_111" data-name="Trazado 111" d="M247.055,26.6a6.388,6.388,0,0,1-2.576-.462,4.362,4.362,0,0,1-1.706-1.3,5.359,5.359,0,0,1-.959-1.99,10.169,10.169,0,0,1-.3-2.577V11.957h-2.487V8.9l2.7-.178.5-4.762h3.411V8.723h4.442v3.234h-4.442v8.315q0,3.057,2.452,3.057a4.361,4.361,0,0,0,.942-.106,4.47,4.47,0,0,0,.87-.284l.71,3.02a13.553,13.553,0,0,1-1.617.445,9.22,9.22,0,0,1-1.937.2" transform="translate(-61.045 -1.011)" fill="#fff"/>
          <path id="Trazado_112" data-name="Trazado 112" d="M260.5,28.084a5.076,5.076,0,0,1-3.731-1.4,4.986,4.986,0,0,1-1.421-3.713,5.116,5.116,0,0,1,.586-2.47,5.065,5.065,0,0,1,1.848-1.865,12.257,12.257,0,0,1,3.2-1.315,29.3,29.3,0,0,1,4.638-.818,6.619,6.619,0,0,0-.2-1.3,2.98,2.98,0,0,0-.533-1.1,2.469,2.469,0,0,0-.977-.746,3.7,3.7,0,0,0-1.493-.267,6.613,6.613,0,0,0-2.5.5,16.911,16.911,0,0,0-2.4,1.208l-1.492-2.736a17.5,17.5,0,0,1,3.27-1.6,11.113,11.113,0,0,1,3.908-.675,6,6,0,0,1,4.886,1.936,8.524,8.524,0,0,1,1.617,5.6V27.658h-3.376l-.284-1.919H265.9a12.761,12.761,0,0,1-2.5,1.669,6.312,6.312,0,0,1-2.9.675m1.315-3.2a3.831,3.831,0,0,0,1.937-.5,10.373,10.373,0,0,0,1.866-1.421V19.058a18.659,18.659,0,0,0-2.985.569,8.607,8.607,0,0,0-1.955.8,2.856,2.856,0,0,0-1.066,1.013,2.428,2.428,0,0,0-.319,1.208,1.993,1.993,0,0,0,.71,1.707,2.939,2.939,0,0,0,1.812.532" transform="translate(-65.213 -2.499)" fill="#fff"/>
          <path id="Trazado_113" data-name="Trazado 113" d="M284,25.61a3.455,3.455,0,0,1-3.092-1.315,6.329,6.329,0,0,1-.888-3.589V.095H284.1V20.919a1.521,1.521,0,0,0,.284,1.048.829.829,0,0,0,.6.3h.267a1.493,1.493,0,0,0,.373-.071l.533,3.056A5.517,5.517,0,0,1,284,25.61" transform="translate(-71.515 -0.024)" fill="#fff"/>
          <path id="Trazado_114" data-name="Trazado 114" d="M300.109,27.658V10.21h3.376l.284,2.346h.142a13.907,13.907,0,0,1,2.541-1.955,6.086,6.086,0,0,1,3.18-.817,4.671,4.671,0,0,1,4.086,1.794A8.765,8.765,0,0,1,315,16.713V27.658h-4.086V17.246a5.427,5.427,0,0,0-.64-3.056,2.407,2.407,0,0,0-2.1-.888,3.674,3.674,0,0,0-2.007.55A12.8,12.8,0,0,0,304.2,15.47V27.658Z" transform="translate(-76.646 -2.499)" fill="#fff"/>
          <path id="Trazado_115" data-name="Trazado 115" d="M332.394,28.084a8.254,8.254,0,0,1-3.127-.6,7.783,7.783,0,0,1-2.648-1.776,8.515,8.515,0,0,1-1.829-2.879,10.448,10.448,0,0,1-.675-3.873,10.451,10.451,0,0,1,.675-3.873,8.508,8.508,0,0,1,1.829-2.879,8.05,8.05,0,0,1,5.775-2.416,8.194,8.194,0,0,1,3.144.622,7.774,7.774,0,0,1,2.648,1.795,8.863,8.863,0,0,1,1.829,2.879,10.211,10.211,0,0,1,.693,3.873,10.208,10.208,0,0,1-.693,3.873,8.871,8.871,0,0,1-1.829,2.879,7.56,7.56,0,0,1-2.648,1.776,8.392,8.392,0,0,1-3.144.6m0-3.34a3.487,3.487,0,0,0,3.02-1.582,7.234,7.234,0,0,0,1.1-4.211,7.306,7.306,0,0,0-1.1-4.246,3.488,3.488,0,0,0-3.02-1.582,3.445,3.445,0,0,0-3,1.582,7.392,7.392,0,0,0-1.083,4.246,7.318,7.318,0,0,0,1.083,4.211,3.444,3.444,0,0,0,3,1.582" transform="translate(-82.777 -2.498)" fill="#fff"/>
          <path id="Trazado_116" data-name="Trazado 116" d="M350.648,27.658V10.21h3.376l.284,2.381h.142a12.255,12.255,0,0,1,2.4-1.99,5.386,5.386,0,0,1,2.932-.817,5.222,5.222,0,0,1,3.074.817,5.085,5.085,0,0,1,1.76,2.311,14.019,14.019,0,0,1,2.594-2.239,5.374,5.374,0,0,1,3.02-.888,4.728,4.728,0,0,1,4.086,1.794,8.588,8.588,0,0,1,1.315,5.135V27.658h-4.122V17.246a5.308,5.308,0,0,0-.657-3.056,2.335,2.335,0,0,0-2.007-.888q-1.635,0-3.66,2.168V27.658H361.1V17.246a5.314,5.314,0,0,0-.657-3.056,2.375,2.375,0,0,0-2.043-.888q-1.635,0-3.66,2.168V27.658Z" transform="translate(-89.554 -2.499)" fill="#fff"/>
          <path id="Trazado_117" data-name="Trazado 117" d="M393.6,28.084a5.077,5.077,0,0,1-3.731-1.4,4.986,4.986,0,0,1-1.421-3.713,5.108,5.108,0,0,1,.587-2.47,5.054,5.054,0,0,1,1.848-1.865,12.235,12.235,0,0,1,3.2-1.315,29.276,29.276,0,0,1,4.637-.818,6.621,6.621,0,0,0-.2-1.3,2.98,2.98,0,0,0-.533-1.1,2.474,2.474,0,0,0-.977-.746,3.7,3.7,0,0,0-1.493-.267,6.61,6.61,0,0,0-2.5.5,16.862,16.862,0,0,0-2.4,1.208l-1.493-2.736a17.52,17.52,0,0,1,3.27-1.6,11.113,11.113,0,0,1,3.909-.675,6,6,0,0,1,4.885,1.936,8.524,8.524,0,0,1,1.617,5.6V27.658h-3.376l-.284-1.919H399a12.74,12.74,0,0,1-2.5,1.669,6.312,6.312,0,0,1-2.9.675m1.315-3.2a3.829,3.829,0,0,0,1.937-.5,10.371,10.371,0,0,0,1.865-1.421V19.058a18.648,18.648,0,0,0-2.984.569,8.594,8.594,0,0,0-1.955.8,2.856,2.856,0,0,0-1.066,1.013,2.429,2.429,0,0,0-.319,1.208,1.993,1.993,0,0,0,.71,1.707,2.938,2.938,0,0,0,1.812.532" transform="translate(-99.207 -2.499)" fill="#fff"/>
          <path id="Trazado_118" data-name="Trazado 118" d="M418.865,25.61a6.379,6.379,0,0,1-5.241-2.4,10.446,10.446,0,0,1-1.937-6.733,11.145,11.145,0,0,1,.622-3.838,8.947,8.947,0,0,1,1.652-2.879,7.388,7.388,0,0,1,2.363-1.812,6.288,6.288,0,0,1,2.754-.64,5.605,5.605,0,0,1,2.523.515,10.124,10.124,0,0,1,2.061,1.4l-.142-2.808V.1h4.086V25.184h-3.376l-.284-1.883H423.8a9.252,9.252,0,0,1-2.239,1.634,5.71,5.71,0,0,1-2.7.675m.995-3.376a4.877,4.877,0,0,0,3.66-1.955V12.142a5.8,5.8,0,0,0-1.794-1.137,5.082,5.082,0,0,0-1.759-.32,3.542,3.542,0,0,0-2.879,1.493,6.767,6.767,0,0,0-1.173,4.264,7.621,7.621,0,0,0,1.013,4.317,3.337,3.337,0,0,0,2.932,1.474" transform="translate(-105.143 -0.024)" fill="#fff"/>
          <path id="Trazado_119" data-name="Trazado 119" d="M443.113,28.084a9.656,9.656,0,0,1-3.571-.693,11.548,11.548,0,0,1-3.039-1.723l1.919-2.63a11.063,11.063,0,0,0,2.328,1.439,6.067,6.067,0,0,0,2.506.515,3.142,3.142,0,0,0,2.1-.586,1.91,1.91,0,0,0,.675-1.511,1.486,1.486,0,0,0-.319-.941,3.079,3.079,0,0,0-.853-.728,8.106,8.106,0,0,0-1.208-.587q-.676-.267-1.351-.551-.853-.319-1.741-.746a6.961,6.961,0,0,1-1.582-1.031,5.169,5.169,0,0,1-1.137-1.4,3.854,3.854,0,0,1-.445-1.9A4.726,4.726,0,0,1,439.1,11.24a6.935,6.935,0,0,1,4.655-1.457,8.042,8.042,0,0,1,3.269.64,12.177,12.177,0,0,1,2.523,1.457l-1.883,2.488a9.8,9.8,0,0,0-1.866-1.084,4.916,4.916,0,0,0-1.972-.409,2.866,2.866,0,0,0-1.937.551,1.754,1.754,0,0,0-.622,1.368,1.389,1.389,0,0,0,.3.906,2.789,2.789,0,0,0,.8.657,8.059,8.059,0,0,0,1.156.533q.657.249,1.368.5.888.319,1.777.729a7.318,7.318,0,0,1,1.617,1.013,4.625,4.625,0,0,1,1.172,1.474,4.525,4.525,0,0,1,.445,2.079,5.045,5.045,0,0,1-.445,2.115,4.88,4.88,0,0,1-1.3,1.705,6.3,6.3,0,0,1-2.133,1.155,9.192,9.192,0,0,1-2.914.427" transform="translate(-111.48 -2.498)" fill="#fff"/>
        </g>
      </g>
    </g>
  </g>
</svg>
