<svg xmlns="http://www.w3.org/2000/svg" xmlns:xlink="http://www.w3.org/1999/xlink" width="171" height="66" viewBox="0 0 171 66">
  <defs>
    <clipPath id="clip-path">
      <rect id="Rectangle_237" data-name="Rectangle 237" width="171" height="66" transform="translate(593 4532)" fill="#fff" stroke="#707070" stroke-width="1"/>
    </clipPath>
    <clipPath id="clip-path-2">
      <rect id="Rectangle_30" data-name="Rectangle 30" width="157.404" height="58.26" fill="#585858"/>
    </clipPath>
  </defs>
  <g id="Mask_Group_14" data-name="Mask Group 14" transform="translate(-593 -4532)" clip-path="url(#clip-path)">
    <g id="Group_35" data-name="Group 35" transform="translate(603 4536)">
      <g id="Group_34" data-name="Group 34" clip-path="url(#clip-path-2)">
        <path id="Path_43" data-name="Path 43" d="M84.707,31.1l0-.026.008.026a9.087,9.087,0,0,1,1.423-.129c1.333,0,1.538.442,1.559.493a.2.2,0,0,0,.181.112.259.259,0,0,0,.069-.009.108.108,0,0,0,.084-.049.161.161,0,0,0-.01-.146,1.863,1.863,0,0,0-1.682-1.011,5.768,5.768,0,0,0-1.521.043c-.211.037-.279.537-.279.54a.135.135,0,0,0,.028.128.179.179,0,0,0,.145.028" transform="translate(-65.499 -23.502)" fill="#585858"/>
        <path id="Path_44" data-name="Path 44" d="M66.365,35.885a3.261,3.261,0,0,0-1.051-.114,1.6,1.6,0,0,0-1.493.772.2.2,0,0,0-.014.177.132.132,0,0,0,.089.057.25.25,0,0,0,.312-.125s.078-.224.581-.35a.027.027,0,0,1,.028.009.032.032,0,0,1,0,.027.574.574,0,0,0-.043.219.588.588,0,1,0,1.129-.233.026.026,0,0,1,.005-.029.028.028,0,0,1,.03-.008.816.816,0,0,1,.455.413c.033.068.1.111.34.111a.2.2,0,0,0,.152-.048.091.091,0,0,0,.009-.075,1.174,1.174,0,0,0-.533-.805" transform="translate(-49.43 -27.716)" fill="#585858"/>
        <path id="Path_45" data-name="Path 45" d="M84.53,36.813c.238,0,.306-.042.338-.112a.816.816,0,0,1,.456-.412.027.027,0,0,1,.035.036.588.588,0,1,0,1.128.233.6.6,0,0,0-.04-.219.027.027,0,0,1,.031-.036c.5.123.574.331.583.357a.243.243,0,0,0,.3.12.132.132,0,0,0,.1-.059.2.2,0,0,0-.013-.178,1.606,1.606,0,0,0-1.493-.771,3.223,3.223,0,0,0-1.053.114,1.187,1.187,0,0,0-.53.8.087.087,0,0,0,.008.081c.027.041.1.049.152.049" transform="translate(-65.37 -27.716)" fill="#585858"/>
        <path id="Path_46" data-name="Path 46" d="M61.951,31.562h0l0,0a.333.333,0,0,0,.069.009.2.2,0,0,0,.183-.113c.013-.033.335-.786,2.979-.364a.2.2,0,0,0,.151-.028.142.142,0,0,0,.027-.126c0-.021-.07-.5-.279-.542a5.4,5.4,0,0,0-.917-.076,5.529,5.529,0,0,0-.6.032c-1.383.149-1.682,1-1.684,1.006a.172.172,0,0,0-.011.151.111.111,0,0,0,.077.048" transform="translate(-47.934 -23.497)" fill="#585858"/>
        <path id="Path_47" data-name="Path 47" d="M36.486,33.881a.3.3,0,0,0-.132-.251.293.293,0,0,0-.224-.045c.048-.134.091-.275.129-.417a6.318,6.318,0,0,0,.142-2.129.3.3,0,0,0-.157-.238.3.3,0,0,0-.231-.021,4.317,4.317,0,0,0,.1-.489,6.256,6.256,0,0,0-.065-2.134.3.3,0,0,0-.179-.22.3.3,0,0,0-.174-.016c.021-.113.039-.229.05-.346a6.3,6.3,0,0,0-.167-2.128.3.3,0,0,0-.468-.171l-.02.017a4.8,4.8,0,0,0,.015-.543,6.293,6.293,0,0,0-.457-2.085.294.294,0,0,0-.214-.185.3.3,0,0,0-.249.059,4.449,4.449,0,0,0-.04-.5,6.3,6.3,0,0,0-.669-2.028.3.3,0,0,0-.472-.077,4.1,4.1,0,0,0-.093-.46,6.365,6.365,0,0,0-.9-1.939.3.3,0,0,0-.25-.132.3.3,0,0,0-.246.136l-.01.014a4.763,4.763,0,0,0-.2-.534,6.357,6.357,0,0,0-1.2-1.768.3.3,0,0,0-.279-.089.3.3,0,0,0-.191.135,5.411,5.411,0,0,0-.286-.518,6.314,6.314,0,0,0-1.441-1.538.3.3,0,0,0-.458.123A3.5,3.5,0,0,0,25.892,12.2c.083.007.164.013.242.018a4.551,4.551,0,0,0,1.5-.14.444.444,0,0,0-.107-.868,3.267,3.267,0,0,1-1.712-.476c-.043-.025-.088-.048-.13-.071l2.043-.306a.445.445,0,0,0,0-.88L25.792,9.2c.215-.063.421-.128.618-.2a4.569,4.569,0,0,0,1.336-.708.444.444,0,0,0-.431-.761,3.255,3.255,0,0,1-1.763.22l-.142-.016,1.767-1.064a.45.45,0,0,0,.181-.552.442.442,0,0,0-.518-.26l-1.907.488c.177-.142.345-.283.5-.424A4.6,4.6,0,0,0,26.4,4.755.444.444,0,0,0,26.28,4.2a.439.439,0,0,0-.568.022,3.25,3.25,0,0,1-1.545.882c-.041.013-.085.027-.132.04l1.224-1.656a.447.447,0,0,0-.042-.58.442.442,0,0,0-.577-.041L23.058,4.048c.11-.2.214-.4.306-.591a4.688,4.688,0,0,0,.442-1.451.442.442,0,0,0-.84-.23,3.292,3.292,0,0,1-1.093,1.412c-.032.026-.068.053-.1.081l.5-2a.447.447,0,0,0-.259-.519.442.442,0,0,0-.549.183L20.449,2.649c.026-.232.046-.457.058-.67A4.7,4.7,0,0,0,20.364.468.442.442,0,0,0,19.5.58,3.292,3.292,0,0,1,19.03,2.3c-.02.036-.041.075-.061.114l-.3-2.033a.443.443,0,0,0-.877,0l-.271,1.936c-.062-.212-.125-.416-.191-.609a4.728,4.728,0,0,0-.7-1.343A.443.443,0,0,0,15.872.8a3.3,3.3,0,0,1,.216,1.778c0,.047-.01.094-.013.142L15.005.937a.443.443,0,0,0-.807.34l.487,1.9c-.14-.174-.277-.341-.414-.493a4.624,4.624,0,0,0-1.161-.97.444.444,0,0,0-.536.691,3.294,3.294,0,0,1,.876,1.551l.041.14L11.83,2.863a.443.443,0,0,0-.616.624l1.179,1.579c-.2-.109-.39-.21-.578-.3a4.641,4.641,0,0,0-1.444-.446.444.444,0,0,0-.23.844,3.294,3.294,0,0,1,1.408,1.1l.082.1-2-.5a.444.444,0,0,0-.333.813L11,7.689c-.225-.026-.446-.045-.655-.057a4.679,4.679,0,0,0-1.506.143.445.445,0,0,0,.112.869,3.259,3.259,0,0,1,1.714.473l.114.062-2.034.3a.445.445,0,0,0,0,.88l1.967.287c-.222.064-.435.131-.637.2a4.656,4.656,0,0,0-1.335.712.444.444,0,0,0,.432.76,3.739,3.739,0,0,1,1.1-.256,7.8,7.8,0,0,0-.928.913c-.093.117-.179.239-.256.36a.305.305,0,0,0-.167-.144.293.293,0,0,0-.279.047A6.383,6.383,0,0,0,7.174,14.8a4.689,4.689,0,0,0-.285.512.3.3,0,0,0-.478-.059,6.368,6.368,0,0,0-1.2,1.768,4.334,4.334,0,0,0-.186.5.3.3,0,0,0-.206-.1.29.29,0,0,0-.254.121,6.311,6.311,0,0,0-.983,1.9,4.351,4.351,0,0,0-.123.522l-.008-.01a.3.3,0,0,0-.5.049,6.325,6.325,0,0,0-.688,2.021,4.434,4.434,0,0,0-.044.508h0a.3.3,0,0,0-.272-.076.3.3,0,0,0-.213.188,6.316,6.316,0,0,0-.427,2.091c0,.169,0,.336.017.5a.292.292,0,0,0-.27-.036.3.3,0,0,0-.188.212A6.365,6.365,0,0,0,.7,27.537c.015.126.032.253.057.378a.3.3,0,0,0-.147.021.3.3,0,0,0-.178.22A6.245,6.245,0,0,0,.366,30.29a4.2,4.2,0,0,0,.106.5.261.261,0,0,0-.136.03.3.3,0,0,0-.163.232,6.291,6.291,0,0,0,.068,2.133c.031.145.07.288.114.428A.3.3,0,0,0,0,33.9a6.291,6.291,0,0,0,.292,2.116,4.559,4.559,0,0,0,.222.547.634.634,0,0,0-.064-.019.291.291,0,0,0-.275.068.3.3,0,0,0-.095.268,6.3,6.3,0,0,0,.656,2.033c.063.116.129.229.2.337a.3.3,0,0,0-.229.362,6.31,6.31,0,0,0,.8,1.978,4.515,4.515,0,0,0,.282.393.288.288,0,0,0-.224.119.291.291,0,0,0-.043.283A6.364,6.364,0,0,0,2.558,44.26c.1.116.2.229.3.333a.3.3,0,0,0-.192.14.3.3,0,0,0-.009.285A6.327,6.327,0,0,0,3.9,46.761c.106.1.215.2.327.287a.3.3,0,0,0-.151.443,6.354,6.354,0,0,0,1.418,1.6,4.653,4.653,0,0,0,.5.345c-.055.015-.085.028-.09.028a.3.3,0,0,0-.116.488,7.294,7.294,0,0,0,1.65,1.326A4.455,4.455,0,0,0,8.8,51.8a3.011,3.011,0,0,0,1.076.017,16.441,16.441,0,0,0,3.1,1.739,14.967,14.967,0,0,0,2.7.858c.13.027.26.053.4.077l.306.057a4.737,4.737,0,0,0,.506.134,1.415,1.415,0,0,0-.028.281,1.451,1.451,0,0,0,.035.317,5.543,5.543,0,0,1-3.062,1.513l-.1.013.05.082a2.46,2.46,0,0,0,.443.525l.025.021.03-.006a6.157,6.157,0,0,0,2.951-1.51,1.587,1.587,0,0,0,.123.116,2.785,2.785,0,0,1-2.2,1.838l-.176.048.17.071a4.09,4.09,0,0,0,.974.266l.019,0,.016-.007a3.237,3.237,0,0,0,1.839-1.918,1.388,1.388,0,0,0,.489,0,3.231,3.231,0,0,0,1.837,1.916l.016.007.02,0a4.1,4.1,0,0,0,.975-.266l.168-.071-.176-.048a2.792,2.792,0,0,1-2.2-1.83,1.361,1.361,0,0,0,.128-.119,6.162,6.162,0,0,0,2.946,1.5l.03.006.022-.021a2.422,2.422,0,0,0,.445-.525l.052-.082-.1-.013a5.441,5.441,0,0,1-3.052-1.506,1.377,1.377,0,0,0,.007-.608,4.4,4.4,0,0,0,.471-.124l.349-.061c.43-.074.849-.164,1.249-.271a14.565,14.565,0,0,0,2.665-1.008,13.314,13.314,0,0,0,2.276-1.4,2.992,2.992,0,0,0,1.077-.017,4.446,4.446,0,0,0,1.358-.517A7.308,7.308,0,0,0,30.7,49.957a.294.294,0,0,0,.074-.275.3.3,0,0,0-.19-.213l-.074-.023a4.442,4.442,0,0,0,.514-.35,6.367,6.367,0,0,0,1.418-1.6.3.3,0,0,0,.021-.285.305.305,0,0,0-.171-.158c.112-.089.22-.186.326-.287a6.353,6.353,0,0,0,1.242-1.743.3.3,0,0,0-.249-.432,4.642,4.642,0,0,0,.329-.364,6.281,6.281,0,0,0,1.028-1.873.3.3,0,0,0-.266-.4h-.028a4.6,4.6,0,0,0,.276-.374,6.314,6.314,0,0,0,.836-1.967.3.3,0,0,0-.335-.37A4.1,4.1,0,0,0,35.7,38.8a6.276,6.276,0,0,0,.585-2.053.3.3,0,0,0-.331-.334,4.414,4.414,0,0,0,.18-.424,6.345,6.345,0,0,0,.351-2.107m-.616-2.369a.028.028,0,0,1,.03,0,.026.026,0,0,1,.016.025,5.517,5.517,0,0,1-.146,1.484,3.685,3.685,0,0,1-.533,1.2,2.784,2.784,0,0,1-.706.719.025.025,0,0,1-.035-.005,4.171,4.171,0,0,1-.807-2.823.029.029,0,0,1,.049-.018,4.879,4.879,0,0,1,.683,1,.215.215,0,0,0,.209.123.22.22,0,0,0,.194-.144,3.7,3.7,0,0,1,1.045-1.551m-.3-2.83a.031.031,0,0,1,.03-.009.03.03,0,0,1,.018.024,5.475,5.475,0,0,1,0,1.492,3.719,3.719,0,0,1-.41,1.247,2.794,2.794,0,0,1-.646.794.022.022,0,0,1-.017.007.025.025,0,0,1-.018-.007,4.292,4.292,0,0,1-1.046-2.719.029.029,0,0,1,.016-.027.028.028,0,0,1,.032,0,4.875,4.875,0,0,1,.753.9.22.22,0,0,0,.4-.062,3.69,3.69,0,0,1,.89-1.647m-.445-2.691a.029.029,0,0,1,.03-.008.028.028,0,0,1,.019.022,5.444,5.444,0,0,1,.068,1.489,3.735,3.735,0,0,1-.351,1.267,2.81,2.81,0,0,1-.6.812.031.031,0,0,1-.019.008.031.031,0,0,1-.019-.007,3.628,3.628,0,0,1-1.069-1.889,5.665,5.665,0,0,1-.136-.791.029.029,0,0,1,.014-.028.03.03,0,0,1,.032,0,4.923,4.923,0,0,1,.822.89.218.218,0,0,0,.394-.081,3.726,3.726,0,0,1,.812-1.687M20.614,40.632a.326.326,0,0,0,.168.191A6.18,6.18,0,0,1,22.751,42.6a.01.01,0,0,1,0,.011.873.873,0,0,1-.131.21.826.826,0,0,1-.656.263h-.04a.013.013,0,0,1-.012-.007,3.256,3.256,0,0,0-.516-.755,6.929,6.929,0,0,0-1.007-.859.334.334,0,1,0-.383.547,6.247,6.247,0,0,1,.885.75,2.471,2.471,0,0,1,.417.6v.01a.969.969,0,0,1-.195.273.641.641,0,0,1-.574.175.022.022,0,0,1-.01-.007,4.191,4.191,0,0,0-.7-1.076.334.334,0,0,0-.582.2.335.335,0,0,0,.084.243A3.647,3.647,0,0,1,19.88,44a.012.012,0,0,1,0,.015,1.309,1.309,0,0,1-.239.126,1.34,1.34,0,0,1-.711.071s-.007,0-.009-.007a.033.033,0,0,1,0-.011,1.057,1.057,0,0,0,.2-.5.963.963,0,0,0-.328-.811,1.02,1.02,0,0,0-.923-.231s-.008,0-.01,0a.01.01,0,0,1,0,0A.964.964,0,0,0,17.487,42a1.15,1.15,0,0,0-1.162-.24l-.023.007-.011,0a.014.014,0,0,1-.016-.007,1.065,1.065,0,0,0-.572-.6,1.294,1.294,0,0,0-1.012-.063.014.014,0,0,1-.012,0,1.477,1.477,0,0,0-.832-.328,2.094,2.094,0,0,0-1.571.578s0,0,0,0c-2.221,1.194-5.086,2.488-6.214,2.988h0c-.007,0-.01,0-.011-.007a22.425,22.425,0,0,1-1.548-3.694c-.118-.367-.228-.744-.329-1.12v-.006c0-.007.007-.008.01-.009,3.25-.373,5.865-.755,7.765-1.138a12.12,12.12,0,0,0,3.9-1.233l.008,0a2.871,2.871,0,0,1,2.028-.744c.231.02.434.044.623.074.005,0,.008.006.009.01a.011.011,0,0,1-.009.013,2.045,2.045,0,0,0-.523.269c-.3.213-.488.365-.651.5a5.5,5.5,0,0,1-.513.384,6.032,6.032,0,0,1-.537.288c-.44.215-.789.386-.894.671H15.37l.01,0a.9.9,0,0,0,.147.893,1.354,1.354,0,0,0,1.309.407,3.773,3.773,0,0,0,1.544-.467c.16-.092.3-.186.425-.268a1.817,1.817,0,0,1,.5-.273.085.085,0,0,0,.019,0,2.161,2.161,0,0,1,1.377.14,7.485,7.485,0,0,1,1.359.745,9.074,9.074,0,0,1,2,1.849.018.018,0,0,1,0,.009.685.685,0,0,1-.193.4.809.809,0,0,1-.566.185.029.029,0,0,1-.01,0,6.76,6.76,0,0,0-2.212-1.983.334.334,0,0,0-.463.41m-2.522,3.439a.2.2,0,0,1-.025.017h0a1.845,1.845,0,0,1-.934.38.572.572,0,0,1-.121-.011.47.47,0,0,1-.278-.167.015.015,0,0,1,0-.012,2.043,2.043,0,0,1,.9-.824c.455-.264.666-.113.689-.094.146.143.136.233.133.262-.018.175-.247.376-.357.445l-.01-.008Zm-3.859-1.878c.475-.459.847-.6,1.17-.433a.466.466,0,0,1,.242.222.225.225,0,0,1,0,.115.011.011,0,0,1-.006.007c-.075.05-.146.1-.224.155a2.108,2.108,0,0,0-.9,1.1.012.012,0,0,1-.011.009h0a1.66,1.66,0,0,1-.224-.056c-.41-.135-.432-.36-.438-.433-.012-.215.093-.4.392-.689m-.46-.485a1.868,1.868,0,0,0-.566.853.011.011,0,0,1-.011.009h0c-.069-.006-.134-.012-.2-.023-.239-.038-.412-.119-.452-.21-.019-.044-.077-.178.086-.392a1.443,1.443,0,0,1,1.13-.514l.028,0a1.027,1.027,0,0,1,.211.043s.007.006.01.009a.015.015,0,0,1,0,.011c-.076.064-.151.13-.234.211m2.029,1.1c.61-.431.937-.578,1.249-.307a.31.31,0,0,1,.133.226.683.683,0,0,1-.276.39,2.171,2.171,0,0,0-.794.906.01.01,0,0,1-.009.007,2.119,2.119,0,0,1-.361.032.848.848,0,0,1-.46-.105.321.321,0,0,1-.136-.257c-.038-.349.395-.709.654-.892M22.58,13.176a.031.031,0,0,1-.01-.027.032.032,0,0,1,.019-.022,3.471,3.471,0,0,1,.843-.16,2.386,2.386,0,0,1,1.971.757.026.026,0,0,1,.007.025.026.026,0,0,1-.018.02,2.619,2.619,0,0,1-.746.14l-.112,0a3.156,3.156,0,0,1-1.954-.735m.926,1.126H12.98a11.524,11.524,0,0,1,10.526,0m1.329-2.158a5.737,5.737,0,0,1-1.03.3,4.075,4.075,0,0,1-.754.074A2.452,2.452,0,0,1,21.6,12.1a.026.026,0,0,1-.011-.024.035.035,0,0,1,.014-.023,3.259,3.259,0,0,1,.852-.337,3.089,3.089,0,0,1,1.23-.038,3.639,3.639,0,0,1,1.153.418.032.032,0,0,1,.015.027.031.031,0,0,1-.018.025m-2.524-.889a4.593,4.593,0,0,1-1.405.372.221.221,0,0,0-.1.4,4.816,4.816,0,0,1,.922.859.034.034,0,0,1,0,.03.031.031,0,0,1-.026.016,3.665,3.665,0,0,1-2.724-1.248.027.027,0,0,1,0-.038,2.179,2.179,0,0,1,.743-.458,4.244,4.244,0,0,1,2.577.014.028.028,0,0,1,0,.052m-2.884-.475a4.024,4.024,0,0,1-1.319.643.221.221,0,0,0-.013.417,4.108,4.108,0,0,1,1.043.614.027.027,0,0,1-.014.049c-.192.018-.386.028-.577.028a3.868,3.868,0,0,1-2.315-.664.029.029,0,0,1-.008-.039,2.216,2.216,0,0,1,.636-.6,4.252,4.252,0,0,1,2.551-.5.029.029,0,0,1,.025.02.033.033,0,0,1-.01.031m-2.961.046a3.186,3.186,0,0,1-1.194.914.22.22,0,0,0,.058.414,5.032,5.032,0,0,1,1.152.388.029.029,0,0,1,0,.052,5.684,5.684,0,0,1-.766.195,4.643,4.643,0,0,1-.8.072,3.25,3.25,0,0,1-1.385-.285.028.028,0,0,1-.015-.036,2.168,2.168,0,0,1,.49-.716,4.25,4.25,0,0,1,2.436-1.044.031.031,0,0,1,.029.014.029.029,0,0,1,0,.031m-2.773.491a3.768,3.768,0,0,1-1.046,1.337.225.225,0,0,0-.062.244.218.218,0,0,0,.205.143h0a4.834,4.834,0,0,1,.589.043,3.775,3.775,0,0,1,.623.13.032.032,0,0,1,.021.024.029.029,0,0,1-.015.027,5.614,5.614,0,0,1-.737.314,4.263,4.263,0,0,1-1.4.254,2.978,2.978,0,0,1-.822-.11.027.027,0,0,1-.02-.033c.1-.491.552-1.707,2.622-2.411a.029.029,0,0,1,.03.007.027.027,0,0,1,.005.03m11.057,3.7a14.289,14.289,0,0,1,1.659,1.25H10.076a14.265,14.265,0,0,1,1.661-1.25Zm2.423,1.96q.588.587,1.135,1.25h-7.96a3.772,3.772,0,0,0-2.365-.709,4.411,4.411,0,0,0-2.211.709H8.178q.545-.664,1.135-1.25ZM15.627,26.228a3.813,3.813,0,0,0-1.94.431.018.018,0,0,1-.012,0s-.007-.007-.005-.011c.008-.06.017-.122.03-.183a9.669,9.669,0,0,1,1.64-3.871,6.4,6.4,0,0,1,.967-1.059c.059-.042.115-.088.174-.135a.392.392,0,0,0,.052-.535.386.386,0,0,0-.528-.082c-.012.009-.078.055-.183.144a.755.755,0,0,1-.762.163.482.482,0,0,1-.178-.528,2.834,2.834,0,0,1,.7-1.132l.018-.022A3.49,3.49,0,0,1,18,18.294a2.947,2.947,0,0,1,1.075.15,3.085,3.085,0,0,1,1.805,1.605,17.161,17.161,0,0,1,1.341,3.511.01.01,0,0,1,0,.012.012.012,0,0,1-.011,0,5.5,5.5,0,0,1-1.536-.85.389.389,0,1,0-.494.6,5.969,5.969,0,0,0,2.248,1.117.012.012,0,0,1,.007.009c.093.433.176.889.26,1.434,0,0,0,.009,0,.01h-.014a5.728,5.728,0,0,0-1.27-.448,6.691,6.691,0,0,1-.689-.209,7.28,7.28,0,0,1-1.545-.9.386.386,0,0,0-.544.063.393.393,0,0,0,.064.548,7.757,7.757,0,0,0,1.737,1.008,6.677,6.677,0,0,0,.779.239c1.051.281,1.557.512,1.577,1.067v0a.448.448,0,0,1-.146.241,1.85,1.85,0,0,1-1.252.4l-1.116,0A4.233,4.233,0,0,1,18.18,27.3a5.735,5.735,0,0,0-2.553-1.07m2.04,1.676a.012.012,0,0,1-.012.008H14.523a.828.828,0,0,1-.684-.251.661.661,0,0,1-.1-.16.012.012,0,0,1,.007-.016c1.413-.647,2.071-.769,3.914.405a.012.012,0,0,1,0,.014m1.048,2.807H33.083c.035.447.064.9.078,1.35H18.715Zm0-.715V28.74h14.13q.1.625.168,1.257Zm4.5-1.967a1.515,1.515,0,0,0,.315-.555.483.483,0,0,0,.019-.072,1.914,1.914,0,0,0,.052-.625h8.849c.1.413.186.831.267,1.251Zm.288-1.961c-.06-.4-.127-.814-.209-1.251h8.59c.034.1.07.208.1.315.1.309.191.621.276.936Zm-.354-1.962q-.132-.6-.319-1.25h8.3q.271.612.508,1.25Zm-.541-1.961c-.137-.4-.3-.821-.479-1.25h8.012c.231.406.453.824.659,1.25Zm-.8-1.961c-.078-.163-.158-.328-.244-.492a4.538,4.538,0,0,0-.485-.759h7.776q.451.6.856,1.251Zm-6.837-1.251a3.858,3.858,0,0,0-.8,1.251H6.766q.408-.647.858-1.251ZM14.11,20.9a1.148,1.148,0,0,0,.789.968l.009.007s0,.009,0,.011c-.065.082-.133.172-.2.265H5.683c.206-.427.428-.844.659-1.25Zm.124,1.961a10.021,10.021,0,0,0-.629,1.25H4.848q.238-.637.507-1.25Zm-.9,1.962a11.936,11.936,0,0,0-.346,1.251H4.218c.085-.314.178-.627.276-.936.032-.106.069-.211.1-.315Zm-.457,1.96a2.528,2.528,0,0,0,.014.51.352.352,0,0,0,.009.072,1.737,1.737,0,0,0,.248.669H3.765c.08-.42.166-.838.267-1.251Zm4.888,1.962V30H3.472c.045-.421.1-.84.167-1.257Zm0,1.972v1.35H3.325c.012-.453.043-.9.079-1.35Zm0,2.083v2.9a.013.013,0,0,1,0,.009l0,0h-.094a3.711,3.711,0,0,0-2.2.874c-1.146.769-5,1.532-11.457,2.272a.016.016,0,0,1-.014-.009,25.942,25.942,0,0,1-.683-5.954c0-.03,0-.062,0-.091ZM22.42,39.2c-.7-.46-2.01-1.314-3.269-.971a2.233,2.233,0,0,0-.715.366c-.122.082-.249.165-.391.248a3.118,3.118,0,0,1-1.247.379c-.383.022-.623.023-.729-.128-.088-.124-.092-.182-.07-.248a.013.013,0,0,1,0-.006,3.07,3.07,0,0,1,.565-.321,5.774,5.774,0,0,0,.607-.327,6.216,6.216,0,0,0,.57-.425c.157-.129.333-.274.615-.473a2.444,2.444,0,0,1,1.467-.3l.312-.007.238-.009a5.82,5.82,0,0,1,2.241.53c.272.1.578.209.915.324h.006c.012.005,1.258.4,3,.819a36.1,36.1,0,0,0,5.747.94h.007c0,.007,0,.011,0,.015-.1.349-.2.7-.3,1.03a22.336,22.336,0,0,1-1.616,3.818.012.012,0,0,1-.01.007h0A26.939,26.939,0,0,1,25.2,41.73a4.022,4.022,0,0,1-.677-.606l0,0a.1.1,0,0,0-.01-.012l0-.007c-.036-.042-.055-.067-.057-.069A9.572,9.572,0,0,0,22.42,39.2M23.744,37.2c-.331-.113-.634-.222-.9-.318a6.326,6.326,0,0,0-2.5-.569l-.142.006s0,0,0,0a5.235,5.235,0,0,0-1.474-.5.013.013,0,0,1-.01-.013V32.794H33.174c0,.029,0,.061,0,.091a25.881,25.881,0,0,1-.7,6.037.012.012,0,0,1-.011.009A42.136,42.136,0,0,1,23.744,37.2m10.53-13.93a.029.029,0,0,1,.029-.013.028.028,0,0,1,.021.02,5.424,5.424,0,0,1,.27,1.467,3.661,3.661,0,0,1-.175,1.3,2.828,2.828,0,0,1-.479.886.027.027,0,0,1-.023.01.028.028,0,0,1-.013,0,3.478,3.478,0,0,1-1.346-1.741,5.1,5.1,0,0,1-.23-.758.027.027,0,0,1,.01-.028.032.032,0,0,1,.033,0,4.9,4.9,0,0,1,.949.777.22.22,0,0,0,.233.06.222.222,0,0,0,.147-.194,3.717,3.717,0,0,1,.573-1.782m-1.619-.578a.22.22,0,0,0,.125-.206,3.7,3.7,0,0,1,.386-1.831.025.025,0,0,1,.028-.016.027.027,0,0,1,.022.018,5.527,5.527,0,0,1,.423,1.431A3.7,3.7,0,0,1,33.6,23.4a2.79,2.79,0,0,1-.385.931.029.029,0,0,1-.023.012l-.012,0a3.471,3.471,0,0,1-1.519-1.594,5.115,5.115,0,0,1-.308-.729.028.028,0,0,1,.007-.03.031.031,0,0,1,.032-.005,4.812,4.812,0,0,1,1.023.677.219.219,0,0,0,.239.034ZM31.5,20.29a.218.218,0,0,0,.106-.224,3.7,3.7,0,0,1,.168-1.859.029.029,0,0,1,.023-.019h0a.028.028,0,0,1,.025.014,5.557,5.557,0,0,1,.589,1.376,3.675,3.675,0,0,1,.113,1.308,2.816,2.816,0,0,1-.271.968.029.029,0,0,1-.025.015l-.01,0a3.427,3.427,0,0,1-1.741-1.423,4.786,4.786,0,0,1-.381-.716.037.037,0,0,1,.005-.03.027.027,0,0,1,.03-.008,3.7,3.7,0,0,1,1.119.584.221.221,0,0,0,.248.018M29.78,18.064a.217.217,0,0,0,.254,0,.221.221,0,0,0,.08-.243A4.115,4.115,0,0,1,30,15.977a.027.027,0,0,1,.02-.024.031.031,0,0,1,.029.009,5.472,5.472,0,0,1,.783,1.242,3.741,3.741,0,0,1,.324,1.273,2.764,2.764,0,0,1-.114,1,.027.027,0,0,1-.027.02h0a3.511,3.511,0,0,1-1.9-1.123,5.208,5.208,0,0,1-.53-.668.028.028,0,0,1,0-.029.027.027,0,0,1,.028-.014,2.631,2.631,0,0,1,1.177.406m-1.732-1.987a.22.22,0,0,0,.244-.057.225.225,0,0,0,.033-.249,3.708,3.708,0,0,1-.43-1.814.031.031,0,0,1,.016-.026.032.032,0,0,1,.031,0,5.479,5.479,0,0,1,.964,1.1,3.835,3.835,0,0,1,.526,1.211,3.011,3.011,0,0,1,.064,1.024.029.029,0,0,1-.027.025h-.039a3.355,3.355,0,0,1-1.95-.781,5.886,5.886,0,0,1-.666-.6.032.032,0,0,1-.008-.03.031.031,0,0,1,.027-.018,3.471,3.471,0,0,1,1.216.209m-.679-1.8a3.036,3.036,0,0,1,.2,1.138.026.026,0,0,1-.026.027c-.039,0-.08,0-.122,0a5.5,5.5,0,0,1-2.65-1.035.028.028,0,0,1-.012-.029.03.03,0,0,1,.022-.023,3.172,3.172,0,0,1,1.185.018.221.221,0,0,0,.236-.1.223.223,0,0,0-.014-.256,4.721,4.721,0,0,1-.737-1.392.026.026,0,0,1,0-.029.032.032,0,0,1,.03-.007,2.856,2.856,0,0,1,1.881,1.678M9.661,11.625a.013.013,0,0,1-.015-.007A.012.012,0,0,1,9.65,11.6a4.555,4.555,0,0,1,.6-.259,12.714,12.714,0,0,1,1.364-.388,3.6,3.6,0,0,0,1.045-.414.08.08,0,0,0,.035-.084.081.081,0,0,0-.067-.063L9.446,9.93a.012.012,0,0,1-.01-.011.013.013,0,0,1,.01-.012l3.182-.469a.081.081,0,0,0,0-.16A5.267,5.267,0,0,1,11.4,8.9c-.184-.083-.337-.167-.485-.248a3.535,3.535,0,0,0-1.252-.466.012.012,0,0,1-.012-.012.013.013,0,0,1,.012-.011,4.756,4.756,0,0,1,.654-.008,12.83,12.83,0,0,1,1.409.168,3.649,3.649,0,0,0,1.122.02.083.083,0,0,0,.066-.065.086.086,0,0,0-.038-.084L10.112,6.547a.013.013,0,0,1-.005-.014.013.013,0,0,1,.016-.008l3.118.786a.081.081,0,0,0,.061-.148,5.238,5.238,0,0,1-.992-.82c-.137-.147-.248-.283-.353-.415a3.536,3.536,0,0,0-.978-.913A.012.012,0,0,1,10.972,5a.013.013,0,0,1,.015-.006,4.748,4.748,0,0,1,.606.243,13.325,13.325,0,0,1,1.238.7,3.528,3.528,0,0,0,1.027.451.079.079,0,0,0,.086-.034.081.081,0,0,0,0-.092l-1.927-2.58a.013.013,0,0,1,0-.016.015.015,0,0,1,.016,0l2.585,1.92a.079.079,0,0,0,.1-.007.08.08,0,0,0,.007-.1,5.355,5.355,0,0,1-.6-1.14c-.07-.188-.119-.356-.167-.52a3.576,3.576,0,0,0-.557-1.22.015.015,0,0,1,0-.016.013.013,0,0,1,.015,0,4.59,4.59,0,0,1,.468.459,12.993,12.993,0,0,1,.877,1.121,3.571,3.571,0,0,0,.777.812.077.077,0,0,0,.092,0,.08.08,0,0,0,.033-.086l-.8-3.122a.01.01,0,0,1,.007-.014c.006,0,.011,0,.016.005l1.658,2.766a.079.079,0,0,0,.1.033.082.082,0,0,0,.048-.093,5.436,5.436,0,0,1-.123-1.286c.007-.2.025-.374.044-.543a3.587,3.587,0,0,0-.048-1.341.013.013,0,0,1,.007-.014.012.012,0,0,1,.015.007,4.536,4.536,0,0,1,.255.6,12.321,12.321,0,0,1,.382,1.374A3.6,3.6,0,0,0,17.636,4.3a.08.08,0,0,0,.086.037.085.085,0,0,0,.064-.067l.445-3.178a.011.011,0,0,1,.013-.011.013.013,0,0,1,.011.011l.461,3.178a.084.084,0,0,0,.081.069.081.081,0,0,0,.079-.069,5.293,5.293,0,0,1,.373-1.234c.082-.183.166-.338.246-.486a3.614,3.614,0,0,0,.462-1.259.012.012,0,0,1,.013-.01.013.013,0,0,1,.013.011,4.8,4.8,0,0,1,.008.656,12.913,12.913,0,0,1-.166,1.416,3.706,3.706,0,0,0-.02,1.127.082.082,0,0,0,.066.065.079.079,0,0,0,.084-.037L21.6,1.75a.012.012,0,0,1,.015-.006.014.014,0,0,1,.007.014l-.783,3.126a.082.082,0,0,0,.047.1.08.08,0,0,0,.1-.034,5.391,5.391,0,0,1,.817-1c.146-.137.282-.248.414-.355a3.585,3.585,0,0,0,.909-.983.01.01,0,0,1,.013-.006.011.011,0,0,1,.007.015,4.61,4.61,0,0,1-.242.609,13.254,13.254,0,0,1-.693,1.244,3.633,3.633,0,0,0-.449,1.033.08.08,0,0,0,.127.082L24.452,3.66a.014.014,0,0,1,.017,0,.013.013,0,0,1,0,.016L22.557,6.265a.082.082,0,0,0,.007.106.079.079,0,0,0,.1.008A5.186,5.186,0,0,1,23.8,5.772c.186-.07.354-.12.517-.169a3.553,3.553,0,0,0,1.212-.557.015.015,0,0,1,.018,0,.016.016,0,0,1,0,.016,4.9,4.9,0,0,1-.456.469,12.951,12.951,0,0,1-1.116.882,3.608,3.608,0,0,0-.809.781.082.082,0,0,0,0,.092.079.079,0,0,0,.086.033l3.11-.8a.009.009,0,0,1,.012.007.01.01,0,0,1,0,.015L23.62,8.2a.081.081,0,0,0-.033.1.078.078,0,0,0,.093.048,5.367,5.367,0,0,1,1.279-.123c.2.007.374.026.542.043a3.547,3.547,0,0,0,1.335-.048.012.012,0,0,1,.014.008c0,.005,0,.011-.007.014a4.5,4.5,0,0,1-.6.257,12.741,12.741,0,0,1-1.367.386,3.622,3.622,0,0,0-1.044.41.086.086,0,0,0-.037.086.082.082,0,0,0,.068.062l3.175.458a.012.012,0,0,1,.01.011.013.013,0,0,1-.01.012l-3.177.477a.08.08,0,0,0-.068.079.081.081,0,0,0,.068.081,5.255,5.255,0,0,1,1.229.378c.181.083.334.167.483.248a3.531,3.531,0,0,0,1.252.469.014.014,0,0,1,.01.013.011.011,0,0,1-.01.011c-.126.01-.251.016-.374.016-.093,0-.186,0-.28-.008a12.853,12.853,0,0,1-1.409-.171c-.027-.005-.054-.009-.08-.013h0a3.749,3.749,0,0,0-1.524-.331h-.022s-.007,0-.007,0a.013.013,0,0,1-.006-.009.175.175,0,0,0,0-.061.236.236,0,0,0-.153-.171,6.832,6.832,0,0,0-1.67-.374c-.027,0-.053,0-.078-.006H21.2l-.039,0-.084,0H21.04l-.123,0h-.032a4.008,4.008,0,0,0-.694.057h-.008c0-.006-.007-.008-.007-.012v-.008a.216.216,0,0,0-.016-.1.051.051,0,0,0-.007-.017.233.233,0,0,0-.18-.13l-.15-.019-.035,0h-.015l-.1-.011-.057-.006-.089-.007a6.031,6.031,0,0,0-1.637.076c-.136.027-.268.06-.4.1l-.027.009c-.022.007-.043.012-.064.02l-.025.007c-.03.009-.058.02-.086.03h0c-.064.022-.126.047-.186.072a.021.021,0,0,1-.013,0,.013.013,0,0,1,0-.011v0h0c0-.01,0-.017.005-.023v0a.234.234,0,0,0-.059-.2h0a.066.066,0,0,0-.017-.016l0,0a.235.235,0,0,0-.17-.055,6.445,6.445,0,0,0-2.028.472,4.107,4.107,0,0,0-.541.285.012.012,0,0,1-.014,0,.012.012,0,0,1-.005-.012.648.648,0,0,0,.009-.067h0l0,0a.239.239,0,0,0-.087-.2h0l-.02-.014,0,0-.018-.011-.007,0a.239.239,0,0,0-.162-.014,6.3,6.3,0,0,0-1.931.865c-.01.007-.02.015-.033.023l-.013.011,0,0c-.157.009-.31.012-.454.008-.121,0-.51-.039-.543-.043a3.523,3.523,0,0,0-1.332.052m1.209.629a.028.028,0,0,1,.03,0,.026.026,0,0,1,.015.026,3.7,3.7,0,0,1-.6,1.768.221.221,0,0,0,0,.243.218.218,0,0,0,.224.092,4.887,4.887,0,0,1,1.194-.073.031.031,0,0,1,.025.02.029.029,0,0,1-.01.031,4.527,4.527,0,0,1-2.612,1.088l-.115,0a.03.03,0,0,1-.028-.026,3.742,3.742,0,0,1,1.879-3.166M7.1,16.264a3.721,3.721,0,0,1,.523-1.206,5.538,5.538,0,0,1,.995-1.124.026.026,0,0,1,.029,0,.029.029,0,0,1,.018.024,3.7,3.7,0,0,1-.43,1.819.22.22,0,0,0,.265.309,4.671,4.671,0,0,1,1.16-.213.031.031,0,0,1,.027.018.028.028,0,0,1-.005.031,7.288,7.288,0,0,1-.684.6,3.309,3.309,0,0,1-1.834.79l-.081,0a.029.029,0,0,1-.026-.024A2.818,2.818,0,0,1,7.1,16.264m-.6-.325h0a.029.029,0,0,1,.029-.009.032.032,0,0,1,.021.022,3.677,3.677,0,0,1-.136,1.864.219.219,0,0,0,.077.245.214.214,0,0,0,.255,0,2.7,2.7,0,0,1,1.16-.4.027.027,0,0,1,.025.014.028.028,0,0,1,0,.031A4.175,4.175,0,0,1,5.52,19.5h0a.027.027,0,0,1-.026-.019A3.705,3.705,0,0,1,6.5,15.938M4.087,19.57a5.5,5.5,0,0,1,.644-1.35.028.028,0,0,1,.026-.012.025.025,0,0,1,.023.02,3.679,3.679,0,0,1,.092,1.868.22.22,0,0,0,.111.235.214.214,0,0,0,.257-.036,2.24,2.24,0,0,1,1.134-.556.027.027,0,0,1,.025.011.025.025,0,0,1,0,.029,5.147,5.147,0,0,1-.453.761,3.371,3.371,0,0,1-1.764,1.328h0a.03.03,0,0,1-.029-.016,2.791,2.791,0,0,1-.234-.98,3.655,3.655,0,0,1,.169-1.3m-1.3,2.505a5.492,5.492,0,0,1,.435-1.431.03.03,0,0,1,.025-.016.028.028,0,0,1,.026.015,3.685,3.685,0,0,1,.368,1.836.222.222,0,0,0,.124.208A.217.217,0,0,0,4,22.656a4.957,4.957,0,0,1,1.086-.691.033.033,0,0,1,.03,0,.038.038,0,0,1,.01.03,3.676,3.676,0,0,1-.251.682,3.565,3.565,0,0,1-1.653,1.645l-.014,0a.027.027,0,0,1-.023-.013,2.816,2.816,0,0,1-.373-.929,3.7,3.7,0,0,1-.029-1.312m-.955,2.644a5.514,5.514,0,0,1,.251-1.473.031.031,0,0,1,.023-.02.027.027,0,0,1,.028.013,3.692,3.692,0,0,1,.6,1.774.221.221,0,0,0,.152.193.217.217,0,0,0,.234-.069,4.219,4.219,0,0,1,.991-.823.025.025,0,0,1,.028,0,.023.023,0,0,1,.013.026,3.587,3.587,0,0,1-.158.73A3.336,3.336,0,0,1,2.551,26.9a.027.027,0,0,1-.015.005.03.03,0,0,1-.021-.01,2.856,2.856,0,0,1-.491-.88,3.69,3.69,0,0,1-.194-1.3m-.546,1.249a.027.027,0,0,1,.02-.023.028.028,0,0,1,.029.009,3.726,3.726,0,0,1,.811,1.687.223.223,0,0,0,.171.172.22.22,0,0,0,.224-.09,4.763,4.763,0,0,1,.858-.917.028.028,0,0,1,.045.023,4.3,4.3,0,0,1-.1.727A3.677,3.677,0,0,1,2.2,29.531a.034.034,0,0,1-.019.008.035.035,0,0,1-.019-.008,2.8,2.8,0,0,1-.591-.808,3.691,3.691,0,0,1-.351-1.266,5.371,5.371,0,0,1,.067-1.489M.874,28.7a.035.035,0,0,1,.02-.024.029.029,0,0,1,.029.009,3.726,3.726,0,0,1,.891,1.647.219.219,0,0,0,.41.04,3.431,3.431,0,0,1,.723-.954.024.024,0,0,1,.029-.006.029.029,0,0,1,.018.026,5.286,5.286,0,0,1-.068.82,3.337,3.337,0,0,1-.965,1.964.033.033,0,0,1-.02.007.028.028,0,0,1-.018-.006,2.822,2.822,0,0,1-.634-.785,3.731,3.731,0,0,1-.412-1.247,5.586,5.586,0,0,1,0-1.492M.648,31.563a.033.033,0,0,1,.019-.025.027.027,0,0,1,.029.006c.06.054.118.114.175.174a3.8,3.8,0,0,1,.818,1.417.218.218,0,0,0,.209.152.043.043,0,0,0,.015,0,.218.218,0,0,0,.2-.181,2.038,2.038,0,0,1,.595-1.039.027.027,0,0,1,.027-.006.024.024,0,0,1,.018.023,4.285,4.285,0,0,1,0,1.357,2.782,2.782,0,0,1-.8,1.578.028.028,0,0,1-.019.008.034.034,0,0,1-.016,0A3.708,3.708,0,0,1,.648,31.563m-.1,2.771a.033.033,0,0,1,.031,0c.064.048.128.1.19.154a3.844,3.844,0,0,1,.963,1.326.218.218,0,0,0,.2.13l0,.013v-.013a.218.218,0,0,0,.2-.136,4.743,4.743,0,0,1,.661-1.1A.026.026,0,0,1,2.82,34.7a.026.026,0,0,1,.02.022,3.591,3.591,0,0,1-.656,2.927.027.027,0,0,1-.022.011.038.038,0,0,1-.014,0,3.738,3.738,0,0,1-1.619-3.3.031.031,0,0,1,.016-.027m.137,2.909a.028.028,0,0,1,.04-.031A3.738,3.738,0,0,1,2.116,38.47a.22.22,0,0,0,.222.093A.214.214,0,0,0,2.51,38.4h0a4.815,4.815,0,0,1,.473-1.218.033.033,0,0,1,.026-.013.026.026,0,0,1,.023.017,3.345,3.345,0,0,1,.25.741A3.118,3.118,0,0,1,2.9,40.205a.027.027,0,0,1-.024.014H2.863a2.812,2.812,0,0,1-.869-.533,3.693,3.693,0,0,1-.808-1.04,5.513,5.513,0,0,1-.5-1.4m.652,2.687a.027.027,0,0,1,.01-.029.025.025,0,0,1,.029,0c.074.031.149.065.221.1a3.8,3.8,0,0,1,1.261,1.051.22.22,0,0,0,.39-.1,4.89,4.89,0,0,1,.357-1.2.031.031,0,0,1,.025-.015.026.026,0,0,1,.025.017A3.638,3.638,0,0,1,3.76,42.72a.027.027,0,0,1-.025.016H3.727A3.75,3.75,0,0,1,1.334,39.93m1.614,3.982a5.475,5.475,0,0,1-.759-1.283.024.024,0,0,1,.005-.029.026.026,0,0,1,.027-.009c.075.022.153.047.232.076a3.85,3.85,0,0,1,1.374.9.22.22,0,0,0,.375-.15,4.847,4.847,0,0,1,.21-1.218.027.027,0,0,1,.024-.019.029.029,0,0,1,.028.014,4.929,4.929,0,0,1,.333.715,3.419,3.419,0,0,1,.121,2.213.029.029,0,0,1-.028.02h0a2.864,2.864,0,0,1-.946-.361,3.759,3.759,0,0,1-.992-.871m.392,1.272a.027.027,0,0,1,0-.029.026.026,0,0,1,.028-.012,3.759,3.759,0,0,1,1.711.785.213.213,0,0,0,.241.02.218.218,0,0,0,.111-.217,4.24,4.24,0,0,1,.06-1.206.033.033,0,0,1,.022-.021.027.027,0,0,1,.029.011,5.368,5.368,0,0,1,.407.694,3.614,3.614,0,0,1,.394,2.138.031.031,0,0,1-.029.023,2.8,2.8,0,0,1-.981-.248,3.734,3.734,0,0,1-1.089-.75,5.527,5.527,0,0,1-.9-1.187M5.8,48.671a5.517,5.517,0,0,1-1.026-1.085.034.034,0,0,1,0-.03.025.025,0,0,1,.027-.014,3.758,3.758,0,0,1,1.783.6.215.215,0,0,0,.246-.007.219.219,0,0,0,.083-.232,3.779,3.779,0,0,1-.076-1.2.026.026,0,0,1,.02-.024.026.026,0,0,1,.029.009,4.251,4.251,0,0,1,1.1,2.73.029.029,0,0,1-.026.026l-.111,0a2.9,2.9,0,0,1-.891-.147A3.781,3.781,0,0,1,5.8,48.671m4,2.612a.026.026,0,0,1-.022.026,2.052,2.052,0,0,1-.363.029,2.847,2.847,0,0,1-.553-.056,5.036,5.036,0,0,1-2.37-1.364.031.031,0,0,1-.007-.03.026.026,0,0,1,.024-.019,3.748,3.748,0,0,1,1.867.25.219.219,0,0,0,.281-.289,4.582,4.582,0,0,1-.284-1.181.029.029,0,0,1,.016-.027.028.028,0,0,1,.031,0A3.45,3.45,0,0,1,9.8,51.283m5.252,2.335a14.4,14.4,0,0,1-1.831-.635,15.731,15.731,0,0,1-2.962-1.662.012.012,0,0,1-.005-.01,3.064,3.064,0,0,0-.16-1.116.011.011,0,0,1,0-.013.012.012,0,0,1,.015,0,14.367,14.367,0,0,0,2.06,1.468A12.845,12.845,0,0,0,14.7,52.728v0l.213.065a1.385,1.385,0,0,0,.221.848Zm1.443-.68a1.17,1.17,0,0,0,.063.937.033.033,0,0,1,0,.04.035.035,0,0,1-.026.011.028.028,0,0,1-.012,0,1.842,1.842,0,0,1-.845-.519.816.816,0,0,1-.183-.638.524.524,0,0,1,.242-.406,2.057,2.057,0,0,1,1.252-.156.035.035,0,0,1,.03.025.038.038,0,0,1-.012.039,1.443,1.443,0,0,0-.5.669m1.754,2.783A.757.757,0,1,1,19,54.964a.756.756,0,0,1-.754.758m.925-1.756a.034.034,0,0,1-.049,0,1.319,1.319,0,0,0-1.761.006.033.033,0,0,1-.023.008.029.029,0,0,1-.026-.011.852.852,0,0,1-.285-.833c.25-.676,1.186-.683,1.213-.683h0a1.947,1.947,0,0,1,.527.089,1,1,0,0,1,.685.594.853.853,0,0,1-.282.827m1.644-.562a1.853,1.853,0,0,1-.846.52H19.96a.037.037,0,0,1-.026-.011.037.037,0,0,1-.006-.038,1.166,1.166,0,0,0,.063-.936,1.446,1.446,0,0,0-.5-.669.039.039,0,0,1-.013-.039.036.036,0,0,1,.031-.025,2.173,2.173,0,0,1,1.253.156.519.519,0,0,1,.239.406.821.821,0,0,1-.181.637m5.43-2.095a.016.016,0,0,1,0,.011,12.912,12.912,0,0,1-2.192,1.348,14.2,14.2,0,0,1-2.547.959l-.169.038a1.367,1.367,0,0,0,.236-.867l.253-.078h0a12.915,12.915,0,0,0,2.49-1.067A14.665,14.665,0,0,0,26.4,50.164a.01.01,0,0,1,.014,0,.011.011,0,0,1,0,.013,3.011,3.011,0,0,0-.168,1.132m-2.221-.115a12.345,12.345,0,0,1-2.508,1.068l-.08.023a1.066,1.066,0,0,0-.369-.4c-.812-.532-2.362-.146-2.818-.015a.027.027,0,0,1-.019,0c-.457-.131-2.006-.518-2.818.015a1.069,1.069,0,0,0-.369.4l-.133-.04a12.349,12.349,0,0,1-2.452-1.05,15.467,15.467,0,0,1-4.751-4.239A19.754,19.754,0,0,1,6.38,44.941a.006.006,0,0,1,0-.01.007.007,0,0,1,0-.007c.945-.421,3.369-1.513,5.459-2.594a.012.012,0,0,1,.011,0,.012.012,0,0,1,.005.009,1,1,0,0,0,.075.266,1.2,1.2,0,0,0,.97.607,3.033,3.033,0,0,0,.334.03.013.013,0,0,1,.011.008,1.26,1.26,0,0,0,.838.709,2.506,2.506,0,0,0,.455.1.016.016,0,0,1,.011.006.949.949,0,0,0,.354.45,1.859,1.859,0,0,0,1.283.184.015.015,0,0,1,.013,0,1.156,1.156,0,0,0,.676.416,1.62,1.62,0,0,0,.873-.1.009.009,0,0,1,.01,0,.016.016,0,0,1,0,.006v3.686a.474.474,0,1,0,.948,0V44.862l.01-.006a2.039,2.039,0,0,0,1.156-.092,1.982,1.982,0,0,0,.5-.289.016.016,0,0,1,.01,0A1.314,1.314,0,0,0,21.6,44.1a1.555,1.555,0,0,0,.254-.342.013.013,0,0,1,.012,0h.1a1.471,1.471,0,0,0,1.156-.492,1.592,1.592,0,0,0,.239-.377.011.011,0,0,1,.01-.007,1.415,1.415,0,0,0,.961-.377,1.218,1.218,0,0,0,.263-.371s0-.007.007-.007a.01.01,0,0,1,.01,0,26.416,26.416,0,0,0,5.415,2.92.022.022,0,0,1,.007.008.021.021,0,0,1,0,.007,19.682,19.682,0,0,1-1.261,1.892,15.427,15.427,0,0,1-4.749,4.239m5.981-1.275a4.99,4.99,0,0,1-2.37,1.364,2.861,2.861,0,0,1-.55.056,2.1,2.1,0,0,1-.365-.029.026.026,0,0,1-.023-.026,2.933,2.933,0,0,1,.8-2.063,4.917,4.917,0,0,1,.592-.578.028.028,0,0,1,.031,0,.029.029,0,0,1,.015.027,5.077,5.077,0,0,1-.3,1.164.219.219,0,0,0,.281.289,3.787,3.787,0,0,1,1.865-.25.027.027,0,0,1,.023.02.026.026,0,0,1-.006.029m1.746-2.331a5.523,5.523,0,0,1-1.023,1.084,3.752,3.752,0,0,1-1.161.635,2.89,2.89,0,0,1-.892.147l-.111,0a.028.028,0,0,1-.026-.026,3.47,3.47,0,0,1,.611-2.1,5.67,5.67,0,0,1,.482-.638.025.025,0,0,1,.029-.008.028.028,0,0,1,.02.024,4.836,4.836,0,0,1-.066,1.217.218.218,0,0,0,.332.229,3.79,3.79,0,0,1,1.78-.6.027.027,0,0,1,.027.014.03.03,0,0,1,0,.031m1.431-2.4a5.511,5.511,0,0,1-.9,1.184,3.738,3.738,0,0,1-1.087.75,2.834,2.834,0,0,1-.982.248.029.029,0,0,1-.029-.023,3.437,3.437,0,0,1,.387-2.155,5.139,5.139,0,0,1,.409-.686.028.028,0,0,1,.031-.01.026.026,0,0,1,.02.021,4.869,4.869,0,0,1,.064,1.218.222.222,0,0,0,.113.215.219.219,0,0,0,.24-.022,3.764,3.764,0,0,1,1.709-.782.027.027,0,0,1,.029.042m1.15-2.63a5.529,5.529,0,0,1-.776,1.318,3.7,3.7,0,0,1-.992.871,2.789,2.789,0,0,1-.943.36h0a.027.027,0,0,1-.027-.02,3.5,3.5,0,0,1,.128-2.218,4.848,4.848,0,0,1,.319-.695.026.026,0,0,1,.026-.014.029.029,0,0,1,.024.019,5.412,5.412,0,0,1,.215,1.207.219.219,0,0,0,.381.139,3.352,3.352,0,0,1,1.37-.936,2.548,2.548,0,0,1,.248-.071.03.03,0,0,1,.027.009.032.032,0,0,1,0,.03m.831-2.641v0a5.569,5.569,0,0,1-.628,1.35,3.812,3.812,0,0,1-.9.964,2.831,2.831,0,0,1-.908.45h0a.029.029,0,0,1-.028-.016,3.7,3.7,0,0,1-.095-2.23,5.479,5.479,0,0,1,.248-.776.029.029,0,0,1,.025-.018.031.031,0,0,1,.027.017A5.389,5.389,0,0,1,33.24,40.9a.22.22,0,0,0,.157.183.214.214,0,0,0,.229-.072,3.745,3.745,0,0,1,1.5-1.13.026.026,0,0,1,.029.006.024.024,0,0,1,.009.029m.089-1.371a3.762,3.762,0,0,1-.772,1.069,2.823,2.823,0,0,1-.842.557l-.008,0a.03.03,0,0,1-.027-.014,3.622,3.622,0,0,1-.38-2.243,5.041,5.041,0,0,1,.158-.786.028.028,0,0,1,.023-.021.029.029,0,0,1,.027.014,5.421,5.421,0,0,1,.487,1.216.219.219,0,0,0,.4.065,3.728,3.728,0,0,1,1.35-1.3.035.035,0,0,1,.031,0,.03.03,0,0,1,.01.029,5.456,5.456,0,0,1-.455,1.417m.409-2.759a3.658,3.658,0,0,1-.648,1.143,2.821,2.821,0,0,1-.774.646.033.033,0,0,1-.014,0,.028.028,0,0,1-.022-.012,3.41,3.41,0,0,1-.626-2.138,4.675,4.675,0,0,1,.084-.8.033.033,0,0,1,.021-.023.028.028,0,0,1,.029.01,4.019,4.019,0,0,1,.6,1.1.221.221,0,0,0,.194.148h.016a.219.219,0,0,0,.195-.125,3.731,3.731,0,0,1,1.2-1.443.029.029,0,0,1,.029,0l0,0a.029.029,0,0,1,.014.026,5.5,5.5,0,0,1-.293,1.461" transform="translate(0)" fill="#585858"/>
        <path id="Path_48" data-name="Path 48" d="M210.595,45.286l2.491,5.436h1.375l2.49-5.565v6.86h1.534v-9.08H216.5l-2.7,6.122-2.761-6.122h-1.981v9.08h1.533Z" transform="translate(-161.994 -33.269)" fill="#585858"/>
        <path id="Path_49" data-name="Path 49" d="M257.878,42.2a1.413,1.413,0,0,0,1.528,0,.813.813,0,0,0,.254-.647.826.826,0,0,0-.254-.651,1.4,1.4,0,0,0-1.528,0,.825.825,0,0,0-.254.651.813.813,0,0,0,.254.647" transform="translate(-199.623 -31.515)" fill="#585858"/>
        <rect id="Rectangle_26" data-name="Rectangle 26" width="1.613" height="6.694" transform="translate(58.209 12.053)" fill="#585858"/>
        <path id="Path_50" data-name="Path 50" d="M274.4,55.14a1.631,1.631,0,0,1,.656-.506,1.993,1.993,0,0,1,.8-.169,1.107,1.107,0,0,1,.822.286,1.325,1.325,0,0,1,.282.954V59.87h1.608V55.612a2.667,2.667,0,0,0-.6-1.93,2.2,2.2,0,0,0-1.638-.61,2.941,2.941,0,0,0-1.107.208,2.562,2.562,0,0,0-.9.6h-.085l-.11-.706H272.8V59.87H274.4Z" transform="translate(-211.38 -41.123)" fill="#585858"/>
        <rect id="Rectangle_27" data-name="Rectangle 27" width="1.614" height="6.694" transform="translate(68.73 12.053)" fill="#585858"/>
        <path id="Path_51" data-name="Path 51" d="M304.609,42.2a1.413,1.413,0,0,0,1.528,0,.813.813,0,0,0,.255-.647.826.826,0,0,0-.255-.651,1.4,1.4,0,0,0-1.528,0,.828.828,0,0,0-.255.651.815.815,0,0,0,.255.647" transform="translate(-235.832 -31.515)" fill="#585858"/>
        <path id="Path_52" data-name="Path 52" d="M319.7,57.03l1.019.19a1.155,1.155,0,0,1,.589.258.673.673,0,0,1,.171.5.687.687,0,0,1-.328.616,1.963,1.963,0,0,1-1.04.212,6.975,6.975,0,0,1-2.024-.294v1.2a6.828,6.828,0,0,0,2.042.282,4.258,4.258,0,0,0,1.549-.251,2.087,2.087,0,0,0,.972-.718,1.865,1.865,0,0,0,.332-1.11,1.737,1.737,0,0,0-.433-1.267,2.538,2.538,0,0,0-1.352-.629l-1.018-.19a1.113,1.113,0,0,1-.574-.261.648.648,0,0,1-.168-.47q0-.834,1.515-.834a6.361,6.361,0,0,1,1.669.214v-1.2a6.657,6.657,0,0,0-1.712-.208,4.632,4.632,0,0,0-1.657.258,2.1,2.1,0,0,0-1,.721,1.835,1.835,0,0,0-.328,1.089,1.766,1.766,0,0,0,.423,1.242,2.419,2.419,0,0,0,1.349.647" transform="translate(-246.348 -41.124)" fill="#585858"/>
        <path id="Path_53" data-name="Path 53" d="M343.166,49.739a2.111,2.111,0,0,0,2.38,2.4A5.13,5.13,0,0,0,346.7,52V50.715a4.121,4.121,0,0,1-.742.086,1.564,1.564,0,0,1-.682-.126.8.8,0,0,1-.384-.414,1.991,1.991,0,0,1-.125-.779V46.6h1.87V45.322h-1.87V42.936h-1.326l-.281,2.386h-1.154V46.6h1.154Z" transform="translate(-265.012 -33.269)" fill="#585858"/>
        <path id="Path_54" data-name="Path 54" d="M367.03,59.631a4.627,4.627,0,0,0,1.967.362,7.889,7.889,0,0,0,1.9-.238V58.533a7.1,7.1,0,0,1-1.681.233,3.427,3.427,0,0,1-1.2-.172,1.235,1.235,0,0,1-.663-.556,2.345,2.345,0,0,1-.246-1.033h4.142v-.436a4.1,4.1,0,0,0-.711-2.616,2.519,2.519,0,0,0-2.08-.88,3.1,3.1,0,0,0-1.6.39,2.49,2.49,0,0,0-1.012,1.162,4.6,4.6,0,0,0-.349,1.9,4.454,4.454,0,0,0,.381,1.985,2.378,2.378,0,0,0,1.15,1.126m.433-5.067a1.166,1.166,0,0,1,.988-.442,1.113,1.113,0,0,1,.96.442,2.665,2.665,0,0,1,.341,1.478h-2.645a2.557,2.557,0,0,1,.356-1.478" transform="translate(-283.211 -41.124)" fill="#585858"/>
        <path id="Path_55" data-name="Path 55" d="M397.982,55.4a1.686,1.686,0,0,1,.727-.559,2.4,2.4,0,0,1,.942-.2,3.645,3.645,0,0,1,.625.043v-1.46a3.284,3.284,0,0,0-.534-.044,2.341,2.341,0,0,0-1.058.24,1.885,1.885,0,0,0-.776.712h-.086l-.123-.872h-1.324v6.694h1.607Z" transform="translate(-307.136 -41.207)" fill="#585858"/>
        <path id="Path_56" data-name="Path 56" d="M417.2,42.2a1.413,1.413,0,0,0,1.528,0,.816.816,0,0,0,.254-.647.829.829,0,0,0-.254-.651,1.4,1.4,0,0,0-1.528,0,.827.827,0,0,0-.254.651.814.814,0,0,0,.254.647" transform="translate(-323.079 -31.515)" fill="#585858"/>
        <rect id="Rectangle_28" data-name="Rectangle 28" width="1.614" height="6.694" transform="translate(94.079 12.053)" fill="#585858"/>
        <path id="Path_57" data-name="Path 57" d="M436.939,56.533a3.668,3.668,0,0,0-.812-2.6,3.5,3.5,0,0,0-4.608,0,3.679,3.679,0,0,0-.813,2.6,3.621,3.621,0,0,0,.826,2.589,3.014,3.014,0,0,0,2.291.864,3.435,3.435,0,0,0,1.663-.38,2.538,2.538,0,0,0,1.076-1.154,4.379,4.379,0,0,0,.377-1.926m-2,1.718a1.312,1.312,0,0,1-1.12.5,1.488,1.488,0,0,1-.819-.212,1.329,1.329,0,0,1-.5-.7,4.037,4.037,0,0,1-.175-1.32,2.922,2.922,0,0,1,.377-1.705,1.5,1.5,0,0,1,2.24,0,2.978,2.978,0,0,1,.377,1.727,2.923,2.923,0,0,1-.377,1.706" transform="translate(-333.738 -41.124)" fill="#585858"/>
        <path id="Path_58" data-name="Path 58" d="M477.541,48.915a2.773,2.773,0,0,0,1.383.344,2.377,2.377,0,0,0,1.037-.221,2.142,2.142,0,0,0,.761-.6h.086l.1.706h1.357V39.228h-1.608v3.178a6.557,6.557,0,0,0-.9-.067,3.556,3.556,0,0,0-2.641.914,3.654,3.654,0,0,0-.906,2.681,4.374,4.374,0,0,0,.359,1.892,2.391,2.391,0,0,0,.97,1.089m.767-4.806a1.859,1.859,0,0,1,1.451-.524,4.107,4.107,0,0,1,.9.092v3.663a1.433,1.433,0,0,1-.571.444,1.762,1.762,0,0,1-.718.151,1.392,1.392,0,0,1-1.134-.482,2.617,2.617,0,0,1-.4-1.648,2.481,2.481,0,0,1,.476-1.7" transform="translate(-368.999 -30.396)" fill="#585858"/>
        <path id="Path_59" data-name="Path 59" d="M510.281,59.631a4.622,4.622,0,0,0,1.966.362,7.885,7.885,0,0,0,1.9-.238V58.533a7.1,7.1,0,0,1-1.681.233,3.434,3.434,0,0,1-1.2-.172,1.235,1.235,0,0,1-.662-.556,2.345,2.345,0,0,1-.245-1.033H514.5v-.436a4.1,4.1,0,0,0-.711-2.616,2.519,2.519,0,0,0-2.08-.88,3.1,3.1,0,0,0-1.6.39,2.494,2.494,0,0,0-1.012,1.162,4.6,4.6,0,0,0-.35,1.9,4.454,4.454,0,0,0,.381,1.985,2.379,2.379,0,0,0,1.15,1.126m.432-5.067a1.165,1.165,0,0,1,.987-.442,1.112,1.112,0,0,1,.96.442,2.665,2.665,0,0,1,.34,1.478h-2.644a2.56,2.56,0,0,1,.356-1.478" transform="translate(-394.211 -41.124)" fill="#585858"/>
        <path id="Path_60" data-name="Path 60" d="M208.274,113.164h1.638v-7.711h2.921v-1.368h-7.479v1.368h2.92Z" transform="translate(-159.121 -80.651)" fill="#585858"/>
        <path id="Path_61" data-name="Path 61" d="M244.473,114.684h-1.607v4.736a1.619,1.619,0,0,1-.647.509,1.911,1.911,0,0,1-.776.172,1.06,1.06,0,0,1-.794-.285,1.333,1.333,0,0,1-.28-.954v-4.178h-1.608v4.276a2.646,2.646,0,0,0,.6,1.923,2.213,2.213,0,0,0,1.648.61,2.742,2.742,0,0,0,1.056-.205,2.682,2.682,0,0,0,.889-.605h.073l.111.694h1.331Z" transform="translate(-185.007 -88.864)" fill="#585858"/>
        <path id="Path_62" data-name="Path 62" d="M275.147,115.832v-1.46a3.408,3.408,0,0,0-.534-.043,2.346,2.346,0,0,0-1.058.24,1.886,1.886,0,0,0-.776.712h-.086l-.123-.871h-1.325V121.1h1.607v-4.558a1.69,1.69,0,0,1,.727-.559,2.4,2.4,0,0,1,.942-.2,3.658,3.658,0,0,1,.626.043" transform="translate(-210.178 -88.589)" fill="#585858"/>
        <rect id="Rectangle_29" data-name="Rectangle 29" width="1.613" height="6.693" transform="translate(65.908 25.82)" fill="#585858"/>
        <path id="Path_63" data-name="Path 63" d="M292.074,102.048a.827.827,0,0,0-.254.651.815.815,0,0,0,.254.647,1.415,1.415,0,0,0,1.528,0,.815.815,0,0,0,.254-.647.827.827,0,0,0-.254-.651,1.4,1.4,0,0,0-1.528,0" transform="translate(-226.12 -78.897)" fill="#585858"/>
        <path id="Path_64" data-name="Path 64" d="M310.012,117.795a2.547,2.547,0,0,0-1.353-.629l-1.018-.19a1.115,1.115,0,0,1-.574-.261.647.647,0,0,1-.168-.469q0-.835,1.515-.835a6.378,6.378,0,0,1,1.669.215v-1.2a6.661,6.661,0,0,0-1.712-.208,4.633,4.633,0,0,0-1.657.258,2.1,2.1,0,0,0-1,.721,1.83,1.83,0,0,0-.328,1.089,1.769,1.769,0,0,0,.423,1.242,2.425,2.425,0,0,0,1.349.647l1.019.19a1.157,1.157,0,0,1,.589.257.674.674,0,0,1,.172.5.689.689,0,0,1-.328.616,1.966,1.966,0,0,1-1.04.212,6.971,6.971,0,0,1-2.024-.294v1.2a6.829,6.829,0,0,0,2.043.282,4.268,4.268,0,0,0,1.549-.25,2.1,2.1,0,0,0,.972-.718,1.87,1.87,0,0,0,.331-1.111,1.743,1.743,0,0,0-.432-1.266" transform="translate(-236.634 -88.506)" fill="#585858"/>
        <path id="Path_65" data-name="Path 65" d="M342.238,121.019v-4.258a2.733,2.733,0,0,0-.578-1.929,2.063,2.063,0,0,0-1.576-.61,2.782,2.782,0,0,0-1.078.217,2.671,2.671,0,0,0-.947.678,1.651,1.651,0,0,0-.7-.678,2.205,2.205,0,0,0-1-.217,2.64,2.64,0,0,0-1.052.205,2.36,2.36,0,0,0-.844.61h-.085l-.111-.712h-1.331v6.693h1.608v-4.712a1.509,1.509,0,0,1,.582-.518,1.586,1.586,0,0,1,.718-.175.928.928,0,0,1,.73.282,1.43,1.43,0,0,1,.251.952v4.172H338.4v-4.3a4.226,4.226,0,0,0-.024-.5,1.492,1.492,0,0,1,.57-.454,1.645,1.645,0,0,1,.675-.148.971.971,0,0,1,.745.286,1.364,1.364,0,0,1,.267.948v4.172Z" transform="translate(-257.981 -88.506)" fill="#585858"/>
        <path id="Path_66" data-name="Path 66" d="M385.9,117.681a3.665,3.665,0,0,0-.813-2.6,3.5,3.5,0,0,0-4.608,0,3.678,3.678,0,0,0-.813,2.6,3.622,3.622,0,0,0,.826,2.59,3.016,3.016,0,0,0,2.291.864,3.429,3.429,0,0,0,1.662-.38,2.536,2.536,0,0,0,1.077-1.153,4.375,4.375,0,0,0,.377-1.927m-2,1.718a1.312,1.312,0,0,1-1.12.5,1.482,1.482,0,0,1-.819-.212,1.329,1.329,0,0,1-.5-.7,4.034,4.034,0,0,1-.175-1.32,2.92,2.92,0,0,1,.377-1.705,1.5,1.5,0,0,1,2.24,0,2.979,2.979,0,0,1,.376,1.727,2.924,2.924,0,0,1-.376,1.705" transform="translate(-294.189 -88.506)" fill="#585858"/>
        <path id="Path_67" data-name="Path 67" d="M426.625,119.985l-1.774-5.3h-1.693l2.424,6.693h.448l-.988,2.7h1.578l3.4-9.393h-1.588Z" transform="translate(-327.89 -88.864)" fill="#585858"/>
        <path id="Path_68" data-name="Path 68" d="M478.3,110.918a5.367,5.367,0,0,0,.57-2.635,4.589,4.589,0,0,0-1.211-3.5,5.109,5.109,0,0,0-3.622-1.141,12.709,12.709,0,0,0-1.374.077,13.305,13.305,0,0,0-1.326.205v8.84a20.076,20.076,0,0,0,2.361.141,7.448,7.448,0,0,0,2.886-.484,3.423,3.423,0,0,0,1.715-1.507m-1.448-.745a2.154,2.154,0,0,1-1.015,1.058,3.921,3.921,0,0,1-1.733.334,9.775,9.775,0,0,1-1.13-.055v-6.424a7.324,7.324,0,0,1,1.16-.1,3.766,3.766,0,0,1,1.708.341,2.186,2.186,0,0,1,1.009,1.067,5.477,5.477,0,0,1,0,3.783" transform="translate(-365.221 -80.311)" fill="#585858"/>
        <path id="Path_69" data-name="Path 69" d="M512.369,114.221a3.107,3.107,0,0,0-1.6.39,2.5,2.5,0,0,0-1.013,1.162,4.613,4.613,0,0,0-.349,1.9,4.454,4.454,0,0,0,.381,1.984,2.373,2.373,0,0,0,1.15,1.126,4.621,4.621,0,0,0,1.966.362,7.861,7.861,0,0,0,1.9-.239v-1.221a7.1,7.1,0,0,1-1.682.233,3.423,3.423,0,0,1-1.2-.172,1.237,1.237,0,0,1-.663-.556,2.342,2.342,0,0,1-.245-1.033h4.141v-.436a4.094,4.094,0,0,0-.712-2.616,2.518,2.518,0,0,0-2.08-.881m-1.357,2.969a2.565,2.565,0,0,1,.356-1.479,1.166,1.166,0,0,1,.988-.442,1.111,1.111,0,0,1,.96.442,2.663,2.663,0,0,1,.341,1.479Z" transform="translate(-394.719 -88.506)" fill="#585858"/>
        <path id="Path_70" data-name="Path 70" d="M545.006,114.565a2.745,2.745,0,0,0-1.38-.344,2.388,2.388,0,0,0-1.04.22,2.108,2.108,0,0,0-.764.6h-.081l-.1-.718h-1.356v9.393h1.607V121.08a8.235,8.235,0,0,0,.9.061,3.553,3.553,0,0,0,2.643-.914,3.663,3.663,0,0,0,.9-2.68,4.364,4.364,0,0,0-.359-1.9,2.391,2.391,0,0,0-.966-1.086m-.77,4.806a1.86,1.86,0,0,1-1.451.525,4.568,4.568,0,0,1-.9-.086v-3.669a1.423,1.423,0,0,1,.57-.444,1.77,1.77,0,0,1,.718-.151,1.393,1.393,0,0,1,1.134.479,2.61,2.61,0,0,1,.4,1.65,2.491,2.491,0,0,1-.476,1.7" transform="translate(-418.644 -88.506)" fill="#585858"/>
        <path id="Path_71" data-name="Path 71" d="M574.843,114.221a3.008,3.008,0,0,0-2.3.865,3.676,3.676,0,0,0-.813,2.6,3.621,3.621,0,0,0,.825,2.59,3.017,3.017,0,0,0,2.291.864,3.429,3.429,0,0,0,1.663-.38,2.54,2.54,0,0,0,1.077-1.153,4.388,4.388,0,0,0,.376-1.927,3.666,3.666,0,0,0-.812-2.6,3.01,3.01,0,0,0-2.3-.865m1.12,5.178a1.311,1.311,0,0,1-1.12.5,1.483,1.483,0,0,1-.819-.212,1.332,1.332,0,0,1-.5-.7,4.029,4.029,0,0,1-.175-1.32,2.919,2.919,0,0,1,.378-1.705,1.494,1.494,0,0,1,2.239,0,2.975,2.975,0,0,1,.378,1.727,2.92,2.92,0,0,1-.378,1.705" transform="translate(-443.01 -88.506)" fill="#585858"/>
        <path id="Path_72" data-name="Path 72" d="M607.388,114.568a1.885,1.885,0,0,0-.776.712h-.086l-.123-.871h-1.325V121.1h1.608v-4.558a1.691,1.691,0,0,1,.727-.559,2.4,2.4,0,0,1,.942-.2,3.665,3.665,0,0,1,.626.043v-1.46a3.408,3.408,0,0,0-.534-.043,2.345,2.345,0,0,0-1.058.239" transform="translate(-468.852 -88.589)" fill="#585858"/>
        <path id="Path_73" data-name="Path 73" d="M627.207,111.824a.785.785,0,0,1-.383-.414,1.982,1.982,0,0,1-.127-.78v-2.877h1.871v-1.282H626.7v-2.386h-1.325l-.282,2.386h-1.154v1.282h1.154v3.135a2.112,2.112,0,0,0,2.381,2.4,5.112,5.112,0,0,0,1.159-.134v-1.288a4.124,4.124,0,0,1-.742.086,1.563,1.563,0,0,1-.681-.126" transform="translate(-483.465 -80.652)" fill="#585858"/>
        <path id="Path_74" data-name="Path 74" d="M650.388,114.221a3.1,3.1,0,0,0-1.6.39,2.494,2.494,0,0,0-1.013,1.162,4.6,4.6,0,0,0-.35,1.9,4.457,4.457,0,0,0,.381,1.984,2.375,2.375,0,0,0,1.151,1.126,4.619,4.619,0,0,0,1.966.362,7.858,7.858,0,0,0,1.9-.239v-1.221a7.092,7.092,0,0,1-1.681.233,3.427,3.427,0,0,1-1.2-.172,1.235,1.235,0,0,1-.663-.556,2.342,2.342,0,0,1-.245-1.033h4.141v-.436a4.1,4.1,0,0,0-.711-2.616,2.519,2.519,0,0,0-2.08-.881m-1.356,2.969a2.561,2.561,0,0,1,.356-1.479,1.166,1.166,0,0,1,.988-.442,1.109,1.109,0,0,1,.959.442,2.661,2.661,0,0,1,.341,1.479Z" transform="translate(-501.664 -88.506)" fill="#585858"/>
        <path id="Path_75" data-name="Path 75" d="M681.317,117.795a2.544,2.544,0,0,0-1.353-.629l-1.018-.19a1.115,1.115,0,0,1-.574-.261.65.65,0,0,1-.168-.469q0-.835,1.515-.835a6.371,6.371,0,0,1,1.669.215v-1.2a6.661,6.661,0,0,0-1.711-.208,4.636,4.636,0,0,0-1.657.258,2.1,2.1,0,0,0-1,.721,1.828,1.828,0,0,0-.328,1.089,1.769,1.769,0,0,0,.423,1.242,2.425,2.425,0,0,0,1.349.647l1.019.19a1.16,1.16,0,0,1,.589.257.675.675,0,0,1,.172.5.689.689,0,0,1-.328.616,1.965,1.965,0,0,1-1.04.212,6.969,6.969,0,0,1-2.024-.294v1.2a6.826,6.826,0,0,0,2.042.282,4.275,4.275,0,0,0,1.55-.25,2.093,2.093,0,0,0,.972-.718,1.865,1.865,0,0,0,.332-1.111,1.74,1.74,0,0,0-.433-1.266" transform="translate(-524.346 -88.506)" fill="#585858"/>
        <path id="Path_76" data-name="Path 76" d="M211.572,171.894a.258.258,0,0,0-.244-.175h-2.736a.257.257,0,0,0-.243.175l-3.834,11.392a.257.257,0,0,0,.244.338h1.565a.255.255,0,0,0,.243-.177l1-3.073a.258.258,0,0,1,.244-.177h4.278a.257.257,0,0,1,.243.177l1,3.073a.256.256,0,0,0,.243.177h1.581a.256.256,0,0,0,.243-.338Zm-.212,6.583h-2.825a.256.256,0,0,1-.243-.336l1.409-4.324a.256.256,0,0,1,.486,0l1.417,4.324a.257.257,0,0,1-.244.336" transform="translate(-158.461 -133.059)" fill="#585858"/>
        <path id="Path_77" data-name="Path 77" d="M263.651,185.183a4.1,4.1,0,0,0-.474-.026,3.068,3.068,0,0,0-1.388.314,2.486,2.486,0,0,0-1.018.933h-.112l-.13-.922a.256.256,0,0,0-.254-.221h-1.258a.256.256,0,0,0-.256.256v8.264a.257.257,0,0,0,.256.256h1.595a.257.257,0,0,0,.256-.256v-5.629a.259.259,0,0,1,.056-.164,2.24,2.24,0,0,1,.9-.659,3.14,3.14,0,0,1,1.235-.258c.2,0,.386.007.542.021a.254.254,0,0,0,.277-.254v-1.4a.258.258,0,0,0-.226-.257" transform="translate(-200.505 -143.471)" fill="#585858"/>
        <path id="Path_78" data-name="Path 78" d="M291.807,185.414a9.361,9.361,0,0,0-1.324-.281,11.592,11.592,0,0,0-1.633-.121,4.933,4.933,0,0,0-3.588,1.2,4.715,4.715,0,0,0-1.207,3.507,5.582,5.582,0,0,0,.459,2.409,3.169,3.169,0,0,0,1.223,1.417,3.276,3.276,0,0,0,1.705.454,3.219,3.219,0,0,0,1.331-.265,2.83,2.83,0,0,0,1-.74h.1v.692a2.848,2.848,0,0,1-.269,1.335,1.58,1.58,0,0,1-.832.736,3.941,3.941,0,0,1-1.465.229,9.417,9.417,0,0,1-2.34-.315.257.257,0,0,0-.323.246v1.141a.258.258,0,0,0,.19.251,9.352,9.352,0,0,0,1.19.226,11.544,11.544,0,0,0,1.435.093A6.233,6.233,0,0,0,290,197.18a3.027,3.027,0,0,0,1.492-1.4,5.37,5.37,0,0,0,.5-2.475v-7.644a.257.257,0,0,0-.18-.248m-1.928,6.042a.263.263,0,0,1-.07.182,1.91,1.91,0,0,1-.682.453,2.508,2.508,0,0,1-.929.177,1.856,1.856,0,0,1-1.5-.616,3.307,3.307,0,0,1-.522-2.12,3.232,3.232,0,0,1,.623-2.2,2.388,2.388,0,0,1,1.87-.692,5.481,5.481,0,0,1,1,.094.26.26,0,0,1,.209.256Z" transform="translate(-220.104 -143.359)" fill="#585858"/>
        <path id="Path_79" data-name="Path 79" d="M330.605,185.012a4.077,4.077,0,0,0-2.1.511,3.271,3.271,0,0,0-1.327,1.524,6,6,0,0,0-.459,2.485,5.856,5.856,0,0,0,.5,2.6,3.133,3.133,0,0,0,1.51,1.477,6.065,6.065,0,0,0,2.578.474,10.245,10.245,0,0,0,2.292-.266.259.259,0,0,0,.2-.253v-1.073a.257.257,0,0,0-.315-.249,8.792,8.792,0,0,1-1.888.232,4.46,4.46,0,0,1-1.567-.226,1.618,1.618,0,0,1-.869-.728,2.775,2.775,0,0,1-.3-1.066.26.26,0,0,1,.254-.29h4.9a.256.256,0,0,0,.256-.257V189.6a5.364,5.364,0,0,0-.933-3.43,3.3,3.3,0,0,0-2.726-1.155m1.422,3.894h-2.934a.259.259,0,0,1-.257-.269,3.063,3.063,0,0,1,.458-1.671,1.532,1.532,0,0,1,1.3-.579,1.458,1.458,0,0,1,1.259.579,3.155,3.155,0,0,1,.437,1.671.258.258,0,0,1-.257.268" transform="translate(-253.163 -143.359)" fill="#585858"/>
        <path id="Path_80" data-name="Path 80" d="M371.833,185.012a3.86,3.86,0,0,0-1.453.274,3.375,3.375,0,0,0-1.178.788h-.113l-.111-.708a.258.258,0,0,0-.254-.217h-1.269a.257.257,0,0,0-.257.256v8.264a.257.257,0,0,0,.257.256h1.594a.257.257,0,0,0,.257-.256v-5.85a.263.263,0,0,1,.06-.17,2.15,2.15,0,0,1,.8-.589,2.622,2.622,0,0,1,1.045-.221,1.452,1.452,0,0,1,1.079.374,1.745,1.745,0,0,1,.369,1.251v5.205a.256.256,0,0,0,.256.256h1.595a.256.256,0,0,0,.256-.256v-5.326a3.489,3.489,0,0,0-.789-2.531,2.875,2.875,0,0,0-2.146-.8" transform="translate(-284.529 -143.359)" fill="#585858"/>
        <path id="Path_81" data-name="Path 81" d="M411.543,181.973a4.507,4.507,0,0,1-.681.061,2.064,2.064,0,0,1-.893-.164,1.047,1.047,0,0,1-.5-.543,2.62,2.62,0,0,1-.165-1.022v-3.517a.257.257,0,0,1,.257-.256h1.94a.256.256,0,0,0,.257-.256v-1.169a.256.256,0,0,0-.257-.256h-1.94a.256.256,0,0,1-.257-.255v-2.617a.256.256,0,0,0-.257-.256h-1.253a.257.257,0,0,0-.255.226l-.316,2.677a.256.256,0,0,1-.255.226h-1.029a.256.256,0,0,0-.256.256v1.169a.256.256,0,0,0,.256.256h1a.257.257,0,0,1,.257.256v3.855q0,3.146,3.121,3.146a6.708,6.708,0,0,0,1.314-.133.259.259,0,0,0,.206-.254v-1.175a.255.255,0,0,0-.292-.254" transform="translate(-314.346 -133.061)" fill="#585858"/>
        <path id="Path_82" data-name="Path 82" d="M441.45,185.62h-1.6a.256.256,0,0,0-.256.256v8.264a.256.256,0,0,0,.256.256h1.6a.256.256,0,0,0,.257-.256v-8.264a.257.257,0,0,0-.257-.256" transform="translate(-340.622 -143.83)" fill="#585858"/>
        <path id="Path_83" data-name="Path 83" d="M439.71,168.755a1.462,1.462,0,0,0-1,.3,1.084,1.084,0,0,0-.334.853,1.072,1.072,0,0,0,.334.848,1.854,1.854,0,0,0,2,0,1.072,1.072,0,0,0,.334-.848,1.084,1.084,0,0,0-.334-.853,1.468,1.468,0,0,0-1-.3" transform="translate(-339.68 -130.762)" fill="#585858"/>
        <path id="Path_84" data-name="Path 84" d="M461.289,185.012a3.856,3.856,0,0,0-1.452.274,3.377,3.377,0,0,0-1.179.788h-.112l-.111-.708a.257.257,0,0,0-.254-.217h-1.269a.256.256,0,0,0-.256.256v8.264a.257.257,0,0,0,.256.256h1.595a.257.257,0,0,0,.257-.256v-5.85a.26.26,0,0,1,.061-.17,2.149,2.149,0,0,1,.8-.589,2.62,2.62,0,0,1,1.046-.221,1.452,1.452,0,0,1,1.078.374,1.737,1.737,0,0,1,.37,1.251v5.205a.256.256,0,0,0,.256.256h1.594a.256.256,0,0,0,.256-.256v-5.326a3.5,3.5,0,0,0-.788-2.531,2.88,2.88,0,0,0-2.148-.8" transform="translate(-353.845 -143.359)" fill="#585858"/>
        <path id="Path_85" data-name="Path 85" d="M502.752,185.346a5.874,5.874,0,0,0-2.165-.334,10.587,10.587,0,0,0-1.394.1,8.248,8.248,0,0,0-1.148.227.256.256,0,0,0-.185.249v1.082a.257.257,0,0,0,.328.245,7.754,7.754,0,0,1,.879-.182,8,8,0,0,1,1.167-.092,3.756,3.756,0,0,1,1.218.161,1.185,1.185,0,0,1,.667.543,2.16,2.16,0,0,1,.213,1.049v.346l-1.641.153a4.881,4.881,0,0,0-2.647.813,2.282,2.282,0,0,0-.836,1.89,2.507,2.507,0,0,0,.335,1.315,2.2,2.2,0,0,0,.961.865,3.365,3.365,0,0,0,1.487.306,3.454,3.454,0,0,0,1.38-.269,2.494,2.494,0,0,0,1.018-.793h.112l.111.693a.257.257,0,0,0,.253.217h1.271a.258.258,0,0,0,.257-.257v-5.15a4.464,4.464,0,0,0-.406-2.075,2.341,2.341,0,0,0-1.236-1.1m-.418,6.39a.265.265,0,0,1-.073.184,2.084,2.084,0,0,1-.711.485,2.407,2.407,0,0,1-.9.177,1.459,1.459,0,0,1-1-.306,1.125,1.125,0,0,1-.342-.885,1.1,1.1,0,0,1,.382-.889,2.223,2.223,0,0,1,1.211-.4l1.161-.1a.257.257,0,0,1,.279.256Z" transform="translate(-385.269 -143.359)" fill="#585858"/>
      </g>
    </g>
  </g>
</svg>
