<svg xmlns="http://www.w3.org/2000/svg" xmlns:xlink="http://www.w3.org/1999/xlink" width="463.19" height="58.26" viewBox="0 0 463.19 58.26">
  <defs>
    <clipPath id="clip-path">
      <rect id="Rectángulo_10" data-name="Rectángulo 10" width="463.19" height="58.26" fill="none"/>
    </clipPath>
  </defs>
  <g id="Grupo_12" data-name="Grupo 12" transform="translate(-297.355 -4536)">
    <g id="Grupo_11" data-name="Grupo 11" transform="translate(297.355 4536)">
      <g id="Grupo_11-2" data-name="Grupo 11" transform="translate(0 0.001)" clip-path="url(#clip-path)">
        <path id="Trazado_28" data-name="Trazado 28" d="M537.142,50.37l-1.43-4.385a.367.367,0,0,0-.348-.252h-6.1a.367.367,0,0,0-.348.252l-1.431,4.385a.366.366,0,0,1-.348.252H524.9a.366.366,0,0,1-.347-.482l5.47-16.256a.366.366,0,0,1,.347-.249h3.9a.366.366,0,0,1,.346.249l5.47,16.256a.366.366,0,0,1-.347.482h-2.255a.366.366,0,0,1-.348-.252m-6.851-7.094h4.031a.365.365,0,0,0,.347-.48l-2.02-6.169a.365.365,0,0,0-.7,0l-2.01,6.169a.365.365,0,0,0,.348.479" transform="translate(-165.625 -10.621)" fill="#585858"/>
        <path id="Trazado_29" data-name="Trazado 29" d="M550.375,40.092h1.8a.366.366,0,0,1,.363.315l.185,1.315h.161a3.547,3.547,0,0,1,1.452-1.332,4.39,4.39,0,0,1,1.98-.447,6.254,6.254,0,0,1,.676.037.369.369,0,0,1,.323.368v1.993a.362.362,0,0,1-.395.363c-.225-.02-.483-.029-.775-.029a4.484,4.484,0,0,0-1.762.367,3.2,3.2,0,0,0-1.281.94.375.375,0,0,0-.08.235v8.032a.365.365,0,0,1-.365.365h-2.276a.366.366,0,0,1-.366-.365V40.458a.366.366,0,0,1,.366-.366" transform="translate(-173.668 -12.613)" fill="#585858"/>
        <path id="Trazado_30" data-name="Trazado 30" d="M564.7,57.742a13.355,13.355,0,0,1-1.7-.322.368.368,0,0,1-.272-.358V55.434a.366.366,0,0,1,.46-.351,13.465,13.465,0,0,0,3.339.449,5.625,5.625,0,0,0,2.089-.326,2.263,2.263,0,0,0,1.188-1.05,4.059,4.059,0,0,0,.385-1.906v-.987h-.149a4.065,4.065,0,0,1-1.429,1.056,4.585,4.585,0,0,1-1.9.378,4.67,4.67,0,0,1-2.434-.648,4.527,4.527,0,0,1-1.744-2.021,7.966,7.966,0,0,1-.655-3.438,6.73,6.73,0,0,1,1.722-5,7.039,7.039,0,0,1,5.119-1.711,16.457,16.457,0,0,1,2.331.172,13.08,13.08,0,0,1,1.89.4.364.364,0,0,1,.256.352V51.71a7.645,7.645,0,0,1-.706,3.529,4.313,4.313,0,0,1-2.129,2,8.883,8.883,0,0,1-3.616.637,16.373,16.373,0,0,1-2.049-.132m4.42-7.765a2.711,2.711,0,0,0,.972-.647.374.374,0,0,0,.1-.259V42.693a.372.372,0,0,0-.3-.365,7.785,7.785,0,0,0-1.423-.134,3.412,3.412,0,0,0-2.669.987,4.615,4.615,0,0,0-.889,3.145,4.719,4.719,0,0,0,.746,3.024,2.644,2.644,0,0,0,2.135.879,3.567,3.567,0,0,0,1.326-.252" transform="translate(-177.418 -12.591)" fill="#585858"/>
        <path id="Trazado_31" data-name="Trazado 31" d="M592.314,47.234h-6.987a.37.37,0,0,0-.363.414,3.954,3.954,0,0,0,.428,1.52,2.311,2.311,0,0,0,1.239,1.039,6.4,6.4,0,0,0,2.239.322,12.583,12.583,0,0,0,2.7-.331.367.367,0,0,1,.449.354v1.531a.371.371,0,0,1-.287.361,14.59,14.59,0,0,1-3.271.38,8.679,8.679,0,0,1-3.679-.677,4.464,4.464,0,0,1-2.152-2.107,8.345,8.345,0,0,1-.712-3.713,8.575,8.575,0,0,1,.655-3.546,4.662,4.662,0,0,1,1.894-2.175,5.812,5.812,0,0,1,3-.729,4.711,4.711,0,0,1,3.891,1.647,7.669,7.669,0,0,1,1.331,4.9v.449a.366.366,0,0,1-.366.366m-6.728-4.569a4.342,4.342,0,0,0-.652,2.384.366.366,0,0,0,.367.382h4.188a.368.368,0,0,0,.367-.382,4.513,4.513,0,0,0-.625-2.384,2.08,2.08,0,0,0-1.8-.827,2.184,2.184,0,0,0-1.848.827" transform="translate(-183.742 -12.591)" fill="#585858"/>
        <path id="Trazado_32" data-name="Trazado 32" d="M601.285,40.071H603.1a.366.366,0,0,1,.361.309l.158,1.011h.161a4.813,4.813,0,0,1,1.681-1.125,5.506,5.506,0,0,1,2.073-.39,4.1,4.1,0,0,1,3.064,1.142,4.981,4.981,0,0,1,1.126,3.61v7.6a.366.366,0,0,1-.366.365h-2.275a.365.365,0,0,1-.366-.365V44.8a2.481,2.481,0,0,0-.528-1.785,2.069,2.069,0,0,0-1.537-.534,3.757,3.757,0,0,0-1.493.315,3.073,3.073,0,0,0-1.141.841.371.371,0,0,0-.087.242v8.348a.365.365,0,0,1-.365.365h-2.276a.366.366,0,0,1-.366-.365V40.437a.366.366,0,0,1,.366-.366" transform="translate(-189.743 -12.591)" fill="#585858"/>
        <path id="Trazado_33" data-name="Trazado 33" d="M627.767,48.624V50.3a.37.37,0,0,1-.293.363,9.539,9.539,0,0,1-1.877.19q-4.453,0-4.454-4.488v-5.5a.365.365,0,0,0-.365-.366h-1.426a.366.366,0,0,1-.366-.366V38.466a.366.366,0,0,1,.366-.366h1.467a.364.364,0,0,0,.363-.322l.452-3.819a.366.366,0,0,1,.364-.323h1.788a.365.365,0,0,1,.365.365v3.734a.366.366,0,0,0,.366.365h2.769a.366.366,0,0,1,.366.366v1.667a.366.366,0,0,1-.366.366h-2.769a.366.366,0,0,0-.366.366v5.018a3.7,3.7,0,0,0,.236,1.457,1.478,1.478,0,0,0,.717.775,2.914,2.914,0,0,0,1.274.236,6.431,6.431,0,0,0,.972-.088.364.364,0,0,1,.417.362" transform="translate(-195.448 -10.621)" fill="#585858"/>
        <path id="Trazado_34" data-name="Trazado 34" d="M634.81,35.1a1.527,1.527,0,0,1-.476-1.211,1.546,1.546,0,0,1,.476-1.217,2.619,2.619,0,0,1,2.858,0,1.545,1.545,0,0,1,.476,1.217,1.527,1.527,0,0,1-.476,1.211,2.648,2.648,0,0,1-2.858,0m-.086,14.722V38.027a.366.366,0,0,1,.366-.366h2.287a.365.365,0,0,1,.365.366V49.818a.365.365,0,0,1-.365.366H635.09a.366.366,0,0,1-.366-.366" transform="translate(-200.294 -10.182)" fill="#585858"/>
        <path id="Trazado_35" data-name="Trazado 35" d="M643.282,40.071h1.812a.366.366,0,0,1,.361.309l.158,1.011h.161a4.81,4.81,0,0,1,1.681-1.125,5.5,5.5,0,0,1,2.072-.39,4.1,4.1,0,0,1,3.064,1.142,4.98,4.98,0,0,1,1.126,3.61v7.6a.366.366,0,0,1-.366.365h-2.275a.365.365,0,0,1-.366-.365V44.8a2.483,2.483,0,0,0-.528-1.785,2.071,2.071,0,0,0-1.537-.534,3.75,3.75,0,0,0-1.492.315,3.068,3.068,0,0,0-1.142.841.371.371,0,0,0-.087.242v8.348a.365.365,0,0,1-.365.365h-2.276a.366.366,0,0,1-.366-.365V40.437a.366.366,0,0,1,.366-.366" transform="translate(-203.004 -12.591)" fill="#585858"/>
        <path id="Trazado_36" data-name="Trazado 36" d="M669.864,40.352a3.339,3.339,0,0,1,1.763,1.567,6.349,6.349,0,0,1,.58,2.961v7.347a.366.366,0,0,1-.366.366h-1.813a.366.366,0,0,1-.361-.309l-.158-.989h-.16a3.537,3.537,0,0,1-1.452,1.13,4.905,4.905,0,0,1-1.969.385,4.792,4.792,0,0,1-2.123-.437,3.162,3.162,0,0,1-1.372-1.234,3.591,3.591,0,0,1-.476-1.876,3.253,3.253,0,0,1,1.193-2.7,6.973,6.973,0,0,1,3.776-1.16l2.341-.218V44.7a3.1,3.1,0,0,0-.3-1.5,1.69,1.69,0,0,0-.953-.775,5.364,5.364,0,0,0-1.739-.23,11.431,11.431,0,0,0-1.665.133,10.875,10.875,0,0,0-1.256.259.365.365,0,0,1-.466-.35V40.692a.364.364,0,0,1,.263-.354,11.83,11.83,0,0,1,1.637-.324,15.247,15.247,0,0,1,1.991-.138,8.381,8.381,0,0,1,3.087.476m-1.715,10.072a2.959,2.959,0,0,0,1.015-.692.38.38,0,0,0,.1-.263V47.358a.365.365,0,0,0-.4-.365l-1.656.148a3.182,3.182,0,0,0-1.728.569,1.559,1.559,0,0,0-.545,1.269,1.605,1.605,0,0,0,.489,1.262,2.081,2.081,0,0,0,1.429.436,3.419,3.419,0,0,0,1.291-.252" transform="translate(-209.017 -12.591)" fill="#585858"/>
        <path id="Trazado_37" data-name="Trazado 37" d="M484.095,10.75l-.006-.027.008.027a9.165,9.165,0,0,1,1.423-.129c1.333,0,1.539.442,1.558.493a.2.2,0,0,0,.182.112.271.271,0,0,0,.07-.009.111.111,0,0,0,.083-.049.164.164,0,0,0-.009-.146,1.87,1.87,0,0,0-1.684-1.011,5.7,5.7,0,0,0-1.521.043c-.21.037-.278.536-.278.541a.14.14,0,0,0,.027.127.187.187,0,0,0,.148.028" transform="translate(-152.799 -3.151)" fill="#585858"/>
        <path id="Trazado_38" data-name="Trazado 38" d="M479.667,11.886h0a3.249,3.249,0,0,0-1.051-.114,1.609,1.609,0,0,0-1.494.772.2.2,0,0,0-.012.177.134.134,0,0,0,.09.057.249.249,0,0,0,.311-.125s.078-.225.58-.35a.028.028,0,0,1,.028.009.029.029,0,0,1,0,.028.588.588,0,1,0,1.087-.014.026.026,0,0,1,0-.029.027.027,0,0,1,.029-.008.817.817,0,0,1,.456.413c.033.068.1.11.339.11a.193.193,0,0,0,.153-.049.093.093,0,0,0,.009-.073,1.168,1.168,0,0,0-.534-.805" transform="translate(-150.645 -3.717)" fill="#585858"/>
        <path id="Trazado_39" data-name="Trazado 39" d="M484.028,12.813c.237,0,.306-.042.339-.111a.816.816,0,0,1,.455-.413.027.027,0,0,1,.03.007.028.028,0,0,1,.005.029.588.588,0,1,0,1.128.233.6.6,0,0,0-.042-.219.025.025,0,0,1,0-.028.026.026,0,0,1,.027-.008c.5.122.576.33.584.357a.241.241,0,0,0,.3.119.136.136,0,0,0,.1-.059.2.2,0,0,0-.012-.177,1.608,1.608,0,0,0-1.492-.772,3.183,3.183,0,0,0-1.054.114,1.178,1.178,0,0,0-.531.8.088.088,0,0,0,.008.08c.028.041.1.049.152.049" transform="translate(-152.782 -3.717)" fill="#585858"/>
        <path id="Trazado_40" data-name="Trazado 40" d="M476.548,11.215h.006a.294.294,0,0,0,.069.009.2.2,0,0,0,.183-.112c.013-.034.335-.787,2.979-.364a.2.2,0,0,0,.15-.028.141.141,0,0,0,.028-.126c0-.02-.07-.5-.28-.541a5.33,5.33,0,0,0-.917-.076,5.134,5.134,0,0,0-.6.032,1.853,1.853,0,0,0-1.683,1.005.174.174,0,0,0-.012.153.114.114,0,0,0,.077.047" transform="translate(-150.444 -3.151)" fill="#585858"/>
        <path id="Trazado_41" data-name="Trazado 41" d="M492.39,36.745a.3.3,0,0,0-.331-.334c.066-.136.126-.278.179-.424a6.318,6.318,0,0,0,.351-2.105.3.3,0,0,0-.356-.3c.049-.135.092-.274.129-.417a6.331,6.331,0,0,0,.141-2.129.3.3,0,0,0-.387-.259,4.547,4.547,0,0,0,.1-.49,6.3,6.3,0,0,0-.066-2.133.3.3,0,0,0-.353-.237c.021-.114.038-.231.051-.347a6.32,6.32,0,0,0-.166-2.129.3.3,0,0,0-.467-.17l-.022.017a4.607,4.607,0,0,0,.015-.543,6.309,6.309,0,0,0-.456-2.086.3.3,0,0,0-.463-.126,4.725,4.725,0,0,0-.04-.5,6.3,6.3,0,0,0-.67-2.027.3.3,0,0,0-.472-.078,4.435,4.435,0,0,0-.094-.46,6.362,6.362,0,0,0-.9-1.939.3.3,0,0,0-.25-.132.3.3,0,0,0-.247.136l-.01.015a4.54,4.54,0,0,0-.2-.534,6.352,6.352,0,0,0-1.2-1.769.3.3,0,0,0-.279-.088.3.3,0,0,0-.191.135,4.759,4.759,0,0,0-.287-.518,6.262,6.262,0,0,0-1.44-1.54.3.3,0,0,0-.459.125A3.481,3.481,0,0,0,482,12.2c.083.007.164.013.243.017a4.573,4.573,0,0,0,1.5-.14.444.444,0,0,0-.108-.868,3.264,3.264,0,0,1-1.711-.476l-.129-.071,2.042-.307a.445.445,0,0,0,0-.879l-1.94-.279c.216-.062.422-.128.618-.2a4.632,4.632,0,0,0,1.337-.708.444.444,0,0,0-.431-.761,3.251,3.251,0,0,1-1.763.22l-.142-.014,1.767-1.065a.448.448,0,0,0,.181-.552.442.442,0,0,0-.518-.259l-1.906.487c.177-.141.345-.283.5-.424a4.643,4.643,0,0,0,.964-1.168.447.447,0,0,0-.12-.56.44.44,0,0,0-.569.023,3.264,3.264,0,0,1-1.544.881l-.132.04,1.225-1.657a.449.449,0,0,0-.043-.58.443.443,0,0,0-.577-.042l-1.583,1.187c.111-.2.214-.4.305-.591a4.731,4.731,0,0,0,.445-1.451.442.442,0,0,0-.841-.231,3.291,3.291,0,0,1-1.093,1.412l-.1.081.5-2a.443.443,0,0,0-.809-.336l-1.015,1.711c.026-.231.046-.456.057-.669a4.641,4.641,0,0,0-.144-1.511.442.442,0,0,0-.864.111,3.292,3.292,0,0,1-.469,1.72l-.061.114-.3-2.033a.442.442,0,0,0-.876,0l-.272,1.934c-.061-.212-.125-.416-.191-.608a4.71,4.71,0,0,0-.7-1.343.443.443,0,0,0-.758.433,3.311,3.311,0,0,1,.217,1.778c0,.047-.01.094-.015.142L471.109.937a.442.442,0,0,0-.807.34l.486,1.9c-.138-.174-.276-.34-.413-.493a4.657,4.657,0,0,0-1.163-.97.444.444,0,0,0-.535.692,3.3,3.3,0,0,1,.876,1.551l.042.14-1.662-1.235a.444.444,0,0,0-.617.624L468.5,5.066c-.2-.109-.389-.21-.577-.3a4.625,4.625,0,0,0-1.444-.447.445.445,0,0,0-.23.845,3.288,3.288,0,0,1,1.408,1.1l.081.1-2-.5a.444.444,0,0,0-.333.814l1.7,1.013c-.226-.025-.445-.045-.656-.057a4.66,4.66,0,0,0-1.5.142.445.445,0,0,0,.11.869,3.262,3.262,0,0,1,1.715.473l.115.062-2.035.3a.445.445,0,0,0,0,.879l1.967.287c-.222.064-.435.131-.636.2a4.643,4.643,0,0,0-1.335.712.444.444,0,0,0,.433.76,3.743,3.743,0,0,1,1.1-.256,7.934,7.934,0,0,0-.928.913c-.092.117-.179.238-.257.359a.3.3,0,0,0-.445-.1,6.4,6.4,0,0,0-1.469,1.557,4.521,4.521,0,0,0-.287.513.292.292,0,0,0-.209-.149.3.3,0,0,0-.268.09,6.349,6.349,0,0,0-1.2,1.769,4.49,4.49,0,0,0-.187.5.3.3,0,0,0-.205-.1.29.29,0,0,0-.255.122,6.311,6.311,0,0,0-.982,1.9,4.553,4.553,0,0,0-.125.522l-.007-.009a.3.3,0,0,0-.5.048,6.321,6.321,0,0,0-.688,2.021,4.464,4.464,0,0,0-.044.508h0a.3.3,0,0,0-.484.112,6.32,6.32,0,0,0-.428,2.092,4.6,4.6,0,0,0,.018.5.3.3,0,0,0-.46.176,6.319,6.319,0,0,0-.166,2.129c.014.127.033.253.056.378a.291.291,0,0,0-.146.021.3.3,0,0,0-.177.22,6.318,6.318,0,0,0-.067,2.133,4.675,4.675,0,0,0,.106.5.274.274,0,0,0-.134.031.3.3,0,0,0-.164.231,6.3,6.3,0,0,0,.068,2.133c.031.146.071.289.115.428a.294.294,0,0,0-.214.041.3.3,0,0,0-.14.248,6.332,6.332,0,0,0,.292,2.114,4.587,4.587,0,0,0,.222.547c-.042-.014-.064-.018-.064-.018a.3.3,0,0,0-.275.067.3.3,0,0,0-.094.269,6.335,6.335,0,0,0,.656,2.033c.063.116.13.229.2.337a.3.3,0,0,0-.229.361,6.318,6.318,0,0,0,.805,1.979,4.543,4.543,0,0,0,.282.393.3.3,0,0,0-.226.118.3.3,0,0,0-.042.283,6.348,6.348,0,0,0,1.028,1.873c.1.116.2.229.3.333a.3.3,0,0,0-.2.426A6.354,6.354,0,0,0,460,46.761c.1.1.214.2.326.287a.3.3,0,0,0-.171.158.3.3,0,0,0,.021.285,6.374,6.374,0,0,0,1.417,1.6,4.633,4.633,0,0,0,.507.345c-.055.016-.087.027-.092.028a.3.3,0,0,0-.115.489,7.355,7.355,0,0,0,1.65,1.325,4.417,4.417,0,0,0,1.358.516,3.007,3.007,0,0,0,1.076.017,16.381,16.381,0,0,0,3.1,1.739,14.9,14.9,0,0,0,2.7.857c.131.028.261.053.4.079l.306.057a4.821,4.821,0,0,0,.506.133,1.4,1.4,0,0,0,.008.6,5.541,5.541,0,0,1-3.063,1.514l-.1.012.051.083a2.472,2.472,0,0,0,.444.525l.023.021.031-.005a6.164,6.164,0,0,0,2.953-1.511,1.539,1.539,0,0,0,.122.116,2.784,2.784,0,0,1-2.2,1.837l-.177.048.169.07a4.015,4.015,0,0,0,.975.267l.018,0,.017-.008a3.237,3.237,0,0,0,1.838-1.918,1.379,1.379,0,0,0,.489,0,3.234,3.234,0,0,0,1.837,1.917l.017.008.018,0a4.021,4.021,0,0,0,.976-.267l.168-.07-.176-.048a2.786,2.786,0,0,1-2.2-1.83,1.4,1.4,0,0,0,.127-.118,6.168,6.168,0,0,0,2.946,1.505l.03.005.023-.021a2.46,2.46,0,0,0,.445-.525l.051-.083-.1-.012a5.452,5.452,0,0,1-3.052-1.505,1.391,1.391,0,0,0,.038-.324,1.374,1.374,0,0,0-.03-.285,4.543,4.543,0,0,0,.471-.124l.348-.061c.43-.073.85-.164,1.249-.271a14.66,14.66,0,0,0,2.665-1.008,13.36,13.36,0,0,0,2.277-1.4,3,3,0,0,0,1.078-.017,4.424,4.424,0,0,0,1.358-.516,7.352,7.352,0,0,0,1.65-1.325.3.3,0,0,0-.115-.489l-.074-.023a4.583,4.583,0,0,0,.515-.35,6.373,6.373,0,0,0,1.417-1.6.3.3,0,0,0,.021-.285.3.3,0,0,0-.17-.158c.112-.09.221-.185.326-.287a6.353,6.353,0,0,0,1.241-1.742.3.3,0,0,0-.248-.433,4.651,4.651,0,0,0,.33-.363,6.334,6.334,0,0,0,1.028-1.873.3.3,0,0,0-.033-.27.3.3,0,0,0-.235-.131h-.027c.1-.118.19-.244.276-.374a6.356,6.356,0,0,0,.836-1.967.3.3,0,0,0-.069-.276.3.3,0,0,0-.265-.092,4.772,4.772,0,0,0,.25-.441,6.344,6.344,0,0,0,.586-2.053m-.344-2.447h0a.031.031,0,0,1,.014.027,5.48,5.48,0,0,1-.294,1.461,3.665,3.665,0,0,1-.647,1.143,2.839,2.839,0,0,1-.775.647.033.033,0,0,1-.014,0,.027.027,0,0,1-.022-.011,3.416,3.416,0,0,1-.626-2.139,4.679,4.679,0,0,1,.085-.8.027.027,0,0,1,.021-.022.025.025,0,0,1,.028.01,4.079,4.079,0,0,1,.6,1.1.219.219,0,0,0,.194.149h.015a.216.216,0,0,0,.2-.125,3.723,3.723,0,0,1,1.195-1.442.03.03,0,0,1,.03,0m-.073-2.787a.027.027,0,0,1,.03,0,.027.027,0,0,1,.016.025,5.452,5.452,0,0,1-.147,1.484,3.685,3.685,0,0,1-.531,1.2,2.816,2.816,0,0,1-.706.717.027.027,0,0,1-.016,0,.028.028,0,0,1-.021-.01,4.173,4.173,0,0,1-.805-2.823.028.028,0,0,1,.018-.025.028.028,0,0,1,.031.007,4.855,4.855,0,0,1,.684,1,.213.213,0,0,0,.208.122.219.219,0,0,0,.194-.144,3.7,3.7,0,0,1,1.046-1.55m-.3-2.831h0a.028.028,0,0,1,.029-.007.025.025,0,0,1,.018.023,5.483,5.483,0,0,1,0,1.491,3.68,3.68,0,0,1-.411,1.247,2.8,2.8,0,0,1-.645.794.027.027,0,0,1-.018.007.029.029,0,0,1-.018-.007,4.282,4.282,0,0,1-1.044-2.719.027.027,0,0,1,.016-.027.026.026,0,0,1,.031,0,4.891,4.891,0,0,1,.755.9.219.219,0,0,0,.4-.062,3.723,3.723,0,0,1,.89-1.648m-.444-2.69h0a.028.028,0,0,1,.029-.009.03.03,0,0,1,.02.022,5.516,5.516,0,0,1,.068,1.49,3.715,3.715,0,0,1-.352,1.266,2.806,2.806,0,0,1-.6.812.028.028,0,0,1-.019.008.029.029,0,0,1-.018-.006,3.614,3.614,0,0,1-1.069-1.89,5.631,5.631,0,0,1-.137-.79.027.027,0,0,1,.014-.027.027.027,0,0,1,.031,0,4.905,4.905,0,0,1,.823.89.219.219,0,0,0,.395-.081,3.728,3.728,0,0,1,.812-1.687M476.717,40.632a.333.333,0,0,0,.169.192,6.17,6.17,0,0,1,1.968,1.777.012.012,0,0,1,0,.012.839.839,0,0,1-.132.209.823.823,0,0,1-.655.263h-.041a.011.011,0,0,1-.01-.007,3.28,3.28,0,0,0-.517-.755,7.05,7.05,0,0,0-1.007-.859.333.333,0,0,0-.465.081.337.337,0,0,0,.081.467,6.223,6.223,0,0,1,.887.749,2.505,2.505,0,0,1,.416.6.018.018,0,0,1,0,.01,1,1,0,0,1-.193.274.646.646,0,0,1-.576.174.012.012,0,0,1-.009-.007,4.251,4.251,0,0,0-.7-1.076.334.334,0,0,0-.5.445,3.619,3.619,0,0,1,.553.818.011.011,0,0,1,0,.015,1.267,1.267,0,0,1-.24.126,1.328,1.328,0,0,1-.71.071s-.007,0-.009-.007a.014.014,0,0,1,0-.012,1.059,1.059,0,0,0,.2-.5.97.97,0,0,0-.328-.812,1.02,1.02,0,0,0-.924-.23.012.012,0,0,1-.01,0l0-.005a.975.975,0,0,0-.361-.651,1.154,1.154,0,0,0-1.162-.24l-.023.008-.012,0a.013.013,0,0,1-.015-.008,1.077,1.077,0,0,0-.572-.6,1.294,1.294,0,0,0-1.013-.062.015.015,0,0,1-.012,0,1.5,1.5,0,0,0-.833-.329,2.1,2.1,0,0,0-1.572.58l0,0c-2.221,1.194-5.087,2.488-6.215,2.989h0a.013.013,0,0,1-.012-.006,22.393,22.393,0,0,1-1.548-3.694c-.118-.367-.228-.744-.328-1.12a.019.019,0,0,1,0-.007c0-.006.007-.008.01-.008,3.25-.373,5.863-.756,7.766-1.138a12.148,12.148,0,0,0,3.9-1.234l.006,0a2.877,2.877,0,0,1,2.029-.744c.231.02.435.044.623.075a.012.012,0,0,1,.01.01.012.012,0,0,1-.008.012,2.012,2.012,0,0,0-.524.269c-.3.213-.487.365-.651.5a5.544,5.544,0,0,1-.512.384,5.7,5.7,0,0,1-.536.287c-.44.216-.788.387-.894.672h-.012l.01,0a.9.9,0,0,0,.146.893,1.356,1.356,0,0,0,1.309.407,3.756,3.756,0,0,0,1.544-.467c.16-.093.3-.186.426-.269a1.808,1.808,0,0,1,.5-.272l.019,0a2.166,2.166,0,0,1,1.378.14,7.551,7.551,0,0,1,1.359.745,9.079,9.079,0,0,1,2,1.849.01.01,0,0,1,0,.009.7.7,0,0,1-.192.4.813.813,0,0,1-.567.185.025.025,0,0,1-.01,0,6.786,6.786,0,0,0-2.214-1.983.335.335,0,0,0-.463.41m-2.521,3.44-.024.016,0,0a1.843,1.843,0,0,1-.934.38.584.584,0,0,1-.12-.012.472.472,0,0,1-.279-.167.013.013,0,0,1,0-.013,2.037,2.037,0,0,1,.9-.822c.455-.265.666-.114.688-.1.146.142.138.233.134.263-.018.175-.248.376-.357.445l-.01-.008Zm-3.858-1.878c.475-.458.846-.6,1.169-.433a.468.468,0,0,1,.242.222.221.221,0,0,1,0,.114l-.005.008c-.076.051-.146.1-.224.155a2.107,2.107,0,0,0-.9,1.1.013.013,0,0,1-.012.009h0a1.656,1.656,0,0,1-.224-.055c-.41-.135-.431-.36-.438-.434-.012-.214.094-.4.393-.689m-.462-.484a1.851,1.851,0,0,0-.565.851.012.012,0,0,1-.011.01h0c-.069,0-.135-.012-.2-.022-.238-.039-.411-.12-.451-.211-.019-.044-.077-.178.087-.393a1.44,1.44,0,0,1,1.129-.513l.028,0a1.012,1.012,0,0,1,.212.044.011.011,0,0,1,.008.009.013.013,0,0,1,0,.012c-.076.062-.15.129-.235.211m2.029,1.1c.612-.431.937-.578,1.249-.307a.306.306,0,0,1,.133.226.687.687,0,0,1-.276.389,2.171,2.171,0,0,0-.8.906.011.011,0,0,1-.008.008,2.328,2.328,0,0,1-.361.031.837.837,0,0,1-.46-.105.321.321,0,0,1-.138-.257c-.036-.349.4-.708.655-.892m6.779-29.633a.029.029,0,0,1-.011-.027.029.029,0,0,1,.019-.022,3.485,3.485,0,0,1,.842-.161,2.388,2.388,0,0,1,1.971.757.028.028,0,0,1-.011.046,2.577,2.577,0,0,1-.746.14l-.112,0a3.156,3.156,0,0,1-1.953-.736m.926,1.126H469.082a11.526,11.526,0,0,1,10.527,0m1.327-2.159a5.739,5.739,0,0,1-1.028.3,4.15,4.15,0,0,1-.755.075A2.456,2.456,0,0,1,477.7,12.1a.027.027,0,0,1-.012-.024.029.029,0,0,1,.014-.023,3.219,3.219,0,0,1,.853-.337,3.078,3.078,0,0,1,1.23-.038,3.636,3.636,0,0,1,1.152.418.028.028,0,0,1,.014.027.028.028,0,0,1-.018.024m-2.524-.888a4.616,4.616,0,0,1-1.405.372.221.221,0,0,0-.1.4,4.8,4.8,0,0,1,.921.859.028.028,0,0,1-.022.046,3.66,3.66,0,0,1-2.723-1.248.028.028,0,0,1,0-.038,2.2,2.2,0,0,1,.746-.457,4.229,4.229,0,0,1,2.575.014.03.03,0,0,1,.021.025.029.029,0,0,1-.016.028m-2.883-.476a4.035,4.035,0,0,1-1.321.645.22.22,0,0,0-.012.417,4.13,4.13,0,0,1,1.044.613.028.028,0,0,1,.009.03.028.028,0,0,1-.024.02c-.192.018-.385.028-.575.028a3.871,3.871,0,0,1-2.317-.664.027.027,0,0,1-.006-.038,2.193,2.193,0,0,1,.634-.6,4.245,4.245,0,0,1,2.552-.5.028.028,0,0,1,.025.019.03.03,0,0,1-.01.031m-2.962.047a3.179,3.179,0,0,1-1.193.915.22.22,0,0,0,.057.413,4.938,4.938,0,0,1,1.153.389.028.028,0,0,1,.016.027.029.029,0,0,1-.019.025,5.592,5.592,0,0,1-.766.194,4.608,4.608,0,0,1-.8.072,3.254,3.254,0,0,1-1.387-.285.027.027,0,0,1-.014-.036,2.151,2.151,0,0,1,.489-.716,4.262,4.262,0,0,1,2.438-1.043.028.028,0,0,1,.028.013.029.029,0,0,1,0,.031m-2.773.491h0a3.774,3.774,0,0,1-1.046,1.338.22.22,0,0,0,.144.387h0a4.817,4.817,0,0,1,.591.042,3.881,3.881,0,0,1,.622.131.028.028,0,0,1,.005.051,5.793,5.793,0,0,1-.738.314,4.276,4.276,0,0,1-1.4.254,2.973,2.973,0,0,1-.823-.111.028.028,0,0,1-.021-.032c.1-.491.552-1.707,2.624-2.412a.028.028,0,0,1,.034.038m11.057,3.7a14.313,14.313,0,0,1,1.659,1.251H466.18a14.43,14.43,0,0,1,1.659-1.251Zm2.424,1.961q.588.586,1.134,1.251h-7.96a3.765,3.765,0,0,0-2.364-.71,4.424,4.424,0,0,0-2.212.71h-7.593q.547-.664,1.135-1.251ZM471.73,26.227a3.827,3.827,0,0,0-1.94.431.013.013,0,0,1-.012,0,.028.028,0,0,1,0-.011c.008-.06.018-.122.031-.183a9.641,9.641,0,0,1,1.641-3.871,6.348,6.348,0,0,1,.967-1.059c.058-.042.114-.088.171-.135a.392.392,0,0,0,.055-.534.388.388,0,0,0-.529-.082c-.012.009-.079.056-.184.144a.757.757,0,0,1-.762.162.481.481,0,0,1-.177-.528,2.824,2.824,0,0,1,.7-1.132l.02-.021a3.49,3.49,0,0,1,2.4-1.114,2.965,2.965,0,0,1,1.074.15,3.086,3.086,0,0,1,1.806,1.605,17.214,17.214,0,0,1,1.342,3.512.011.011,0,0,1-.015.014,5.513,5.513,0,0,1-1.535-.85.389.389,0,0,0-.495.6,5.973,5.973,0,0,0,2.247,1.117.012.012,0,0,1,.009.01c.092.434.175.889.26,1.433a.013.013,0,0,1,0,.012h-.012a5.781,5.781,0,0,0-1.269-.45,6.59,6.59,0,0,1-.689-.209,7.2,7.2,0,0,1-1.544-.9.389.389,0,0,0-.482.611,7.825,7.825,0,0,0,1.738,1.009,6.876,6.876,0,0,0,.779.239c1.053.28,1.557.51,1.577,1.066v0a.451.451,0,0,1-.145.241,1.844,1.844,0,0,1-1.252.4l-1.117,0a4.221,4.221,0,0,1-2.09-.614,5.747,5.747,0,0,0-2.554-1.071m2.04,1.676a.011.011,0,0,1-.011.008h-3.133a.834.834,0,0,1-.686-.25.679.679,0,0,1-.1-.161.012.012,0,0,1,.006-.016c1.414-.647,2.072-.769,3.915.406a.011.011,0,0,1,0,.013m1.048,2.808h14.366c.037.447.066.9.079,1.349H474.819Zm0-.714V28.74h14.13q.1.625.168,1.258Zm4.5-1.968a1.479,1.479,0,0,0,.314-.555.349.349,0,0,0,.021-.071,1.889,1.889,0,0,0,.051-.625h8.849c.1.413.188.831.267,1.251Zm.288-1.961c-.06-.4-.127-.814-.209-1.251h8.589q.052.157.1.315c.1.31.19.622.276.936Zm-.353-1.961c-.089-.4-.194-.818-.32-1.251h8.3q.27.612.507,1.251Zm-.543-1.961c-.137-.4-.3-.822-.479-1.251h8.011q.348.609.66,1.251Zm-.8-1.961c-.077-.162-.158-.327-.244-.493a4.512,4.512,0,0,0-.485-.758h7.776q.449.6.856,1.251Zm-6.836-1.251a3.83,3.83,0,0,0-.8,1.251h-7.413q.405-.647.855-1.251Zm-.868,1.961a1.157,1.157,0,0,0,.567.87,1.176,1.176,0,0,0,.221.1l.008.008a.012.012,0,0,1,0,.011c-.065.082-.133.171-.2.265h-9.02q.311-.641.66-1.251Zm.122,1.961a9.993,9.993,0,0,0-.628,1.251h-8.757q.236-.639.506-1.251Zm-.9,1.961a11.5,11.5,0,0,0-.345,1.251h-8.774c.086-.314.177-.626.276-.936.033-.105.068-.21.1-.315Zm-.457,1.961a2.727,2.727,0,0,0,.013.51.392.392,0,0,0,.01.072,1.725,1.725,0,0,0,.248.669h-9.385c.08-.42.166-.838.267-1.251Zm4.889,1.961V30h-14.3q.069-.633.168-1.258Zm0,1.972v1.349H459.428c.014-.453.043-.9.079-1.349Zm0,2.081v2.9a.01.01,0,0,1,0,.008l0,0h-.092a3.719,3.719,0,0,0-2.2.873c-1.145.77-5,1.533-11.457,2.272a.012.012,0,0,1-.013-.009,25.9,25.9,0,0,1-.683-5.954c0-.03,0-.061,0-.092Zm4.652,6.41c-.7-.459-2.011-1.313-3.269-.971a2.219,2.219,0,0,0-.715.365c-.122.081-.249.165-.391.248a3.08,3.08,0,0,1-1.247.378c-.383.022-.622.024-.729-.127-.088-.125-.093-.182-.07-.25l0,0a3.14,3.14,0,0,1,.566-.321,5.888,5.888,0,0,0,.608-.328,6.121,6.121,0,0,0,.569-.424c.157-.129.334-.274.615-.472a2.433,2.433,0,0,1,1.467-.3l.31-.008c.078,0,.157,0,.239-.009a5.833,5.833,0,0,1,2.242.53c.271.1.578.209.914.324l.006,0c.012,0,1.258.4,3,.818a36.166,36.166,0,0,0,5.746.939l.008,0a.017.017,0,0,1,0,.012c-.1.35-.2.7-.3,1.031a22.294,22.294,0,0,1-1.616,3.817.011.011,0,0,1-.009.007h0A26.874,26.874,0,0,1,481.3,41.73a3.961,3.961,0,0,1-.676-.606l0,0-.01-.012L480.6,41.1c-.036-.042-.054-.066-.056-.069a9.538,9.538,0,0,0-2.025-1.829m1.323-2.006c-.331-.113-.632-.222-.9-.318a6.322,6.322,0,0,0-2.5-.569l-.143.006h0a5.241,5.241,0,0,0-1.473-.5.012.012,0,0,1-.01-.012V32.793h14.458c0,.031,0,.062,0,.092a25.847,25.847,0,0,1-.7,6.037.012.012,0,0,1-.012.01h0a42.178,42.178,0,0,1-8.716-1.735m10.531-13.931a.028.028,0,0,1,.028-.013.029.029,0,0,1,.022.02,5.463,5.463,0,0,1,.271,1.467,3.652,3.652,0,0,1-.175,1.3,2.8,2.8,0,0,1-.479.887.029.029,0,0,1-.021.01.029.029,0,0,1-.015,0,3.473,3.473,0,0,1-1.345-1.74,5.181,5.181,0,0,1-.231-.758.028.028,0,0,1,.042-.03,4.868,4.868,0,0,1,.95.777.219.219,0,0,0,.38-.134,3.709,3.709,0,0,1,.573-1.782m-1.619-.578a.22.22,0,0,0,.125-.207,3.7,3.7,0,0,1,.386-1.83.025.025,0,0,1,.027-.016.028.028,0,0,1,.023.017,5.471,5.471,0,0,1,.421,1.431,3.673,3.673,0,0,1-.04,1.312,2.786,2.786,0,0,1-.385.93.027.027,0,0,1-.023.012.024.024,0,0,1-.012,0,3.474,3.474,0,0,1-1.518-1.594,5.235,5.235,0,0,1-.307-.729.028.028,0,0,1,.008-.03.027.027,0,0,1,.03,0,4.945,4.945,0,0,1,1.025.676.22.22,0,0,0,.239.035h0m-1.156-2.4a.222.222,0,0,0,.106-.224,3.706,3.706,0,0,1,.168-1.86.03.03,0,0,1,.024-.018h0a.029.029,0,0,1,.025.014,5.5,5.5,0,0,1,.587,1.377,3.681,3.681,0,0,1,.114,1.308,2.8,2.8,0,0,1-.273.967.029.029,0,0,1-.025.015h-.009a3.421,3.421,0,0,1-1.741-1.423,4.62,4.62,0,0,1-.38-.716.027.027,0,0,1,.005-.029.025.025,0,0,1,.028-.009,3.727,3.727,0,0,1,1.122.584.22.22,0,0,0,.247.018m-1.719-2.227a.22.22,0,0,0,.335-.245,4.109,4.109,0,0,1-.117-1.843.028.028,0,0,1,.021-.023.028.028,0,0,1,.029.01,5.5,5.5,0,0,1,.783,1.242,3.71,3.71,0,0,1,.324,1.273,2.778,2.778,0,0,1-.114,1,.027.027,0,0,1-.027.019h0a3.51,3.51,0,0,1-1.9-1.124,5.346,5.346,0,0,1-.531-.669.028.028,0,0,1,0-.029.028.028,0,0,1,.027-.014,2.637,2.637,0,0,1,1.177.407m-1.73-1.987a.218.218,0,0,0,.243-.057.223.223,0,0,0,.032-.248A3.7,3.7,0,0,1,484,13.957a.029.029,0,0,1,.016-.025.03.03,0,0,1,.03,0,5.474,5.474,0,0,1,.964,1.1,3.867,3.867,0,0,1,.526,1.211,3,3,0,0,1,.064,1.024.027.027,0,0,1-.027.025h-.04a3.361,3.361,0,0,1-1.949-.781,6.058,6.058,0,0,1-.666-.6.029.029,0,0,1-.006-.03.03.03,0,0,1,.025-.018,3.5,3.5,0,0,1,1.217.209m-.679-1.8a3.085,3.085,0,0,1,.2,1.137.029.029,0,0,1-.027.028c-.04,0-.081,0-.123,0a5.5,5.5,0,0,1-2.649-1.035.028.028,0,0,1-.012-.029.028.028,0,0,1,.023-.022,3.181,3.181,0,0,1,1.184.018.22.22,0,0,0,.222-.351,4.8,4.8,0,0,1-.737-1.392.029.029,0,0,1,.007-.029.029.029,0,0,1,.029-.007,2.862,2.862,0,0,1,1.882,1.679m-17.71-2.653a.012.012,0,0,1-.014-.007.012.012,0,0,1,.005-.015,4.6,4.6,0,0,1,.6-.259,12.8,12.8,0,0,1,1.366-.388,3.643,3.643,0,0,0,1.044-.413.08.08,0,0,0,.036-.086.079.079,0,0,0-.067-.062l-3.181-.465a.011.011,0,0,1-.01-.012.012.012,0,0,1,.01-.012l3.182-.47a.08.08,0,0,0,0-.159A5.336,5.336,0,0,1,467.5,8.9c-.183-.083-.337-.166-.485-.248a3.538,3.538,0,0,0-1.252-.466.012.012,0,0,1-.01-.012.011.011,0,0,1,.011-.011,4.527,4.527,0,0,1,.653-.008,13,13,0,0,1,1.41.167,3.639,3.639,0,0,0,1.122.021.081.081,0,0,0,.027-.149l-2.762-1.648a.012.012,0,0,1-.005-.015.012.012,0,0,1,.014-.007l3.119.785a.08.08,0,0,0,.061-.147,5.264,5.264,0,0,1-.992-.82c-.137-.146-.247-.283-.353-.415a3.542,3.542,0,0,0-.978-.913.012.012,0,0,1,.01-.021,4.658,4.658,0,0,1,.606.244,12.951,12.951,0,0,1,1.239.7,3.549,3.549,0,0,0,1.028.451.079.079,0,0,0,.085-.035.08.08,0,0,0,0-.092l-1.927-2.58a.013.013,0,0,1,0-.016.012.012,0,0,1,.016,0l2.585,1.921a.081.081,0,0,0,.112-.113,5.286,5.286,0,0,1-.6-1.14c-.07-.187-.12-.356-.168-.52a3.571,3.571,0,0,0-.556-1.219.012.012,0,0,1,.017-.016,4.622,4.622,0,0,1,.467.459,12.964,12.964,0,0,1,.877,1.121,3.611,3.611,0,0,0,.777.812.08.08,0,0,0,.124-.086l-.8-3.122a.011.011,0,0,1,.007-.014.012.012,0,0,1,.015,0l1.659,2.766a.081.081,0,0,0,.147-.061,5.367,5.367,0,0,1-.122-1.285c.006-.2.025-.374.043-.543a3.575,3.575,0,0,0-.048-1.342.014.014,0,0,1,.008-.014.013.013,0,0,1,.015.006,4.678,4.678,0,0,1,.256.6,12.859,12.859,0,0,1,.383,1.373,3.625,3.625,0,0,0,.408,1.049.079.079,0,0,0,.085.036.081.081,0,0,0,.063-.068l.446-3.178a.012.012,0,0,1,.012-.01.012.012,0,0,1,.012.01l.463,3.178a.08.08,0,0,0,.159,0,5.383,5.383,0,0,1,.374-1.236c.081-.182.165-.337.246-.486a3.563,3.563,0,0,0,.463-1.258.012.012,0,0,1,.013-.01.012.012,0,0,1,.011.011,4.663,4.663,0,0,1,.009.656,12.758,12.758,0,0,1-.166,1.416,3.588,3.588,0,0,0-.019,1.126.081.081,0,0,0,.148.028l1.643-2.77a.012.012,0,0,1,.015-.005.013.013,0,0,1,.007.014l-.783,3.126a.08.08,0,0,0,.146.062,5.377,5.377,0,0,1,.816-1c.145-.138.282-.248.413-.356a3.544,3.544,0,0,0,.908-.983.011.011,0,0,1,.015,0,.012.012,0,0,1,.006.014,4.738,4.738,0,0,1-.242.609,12.878,12.878,0,0,1-.694,1.244,3.643,3.643,0,0,0-.448,1.033.082.082,0,0,0,.035.086.08.08,0,0,0,.092,0l2.571-1.928a.011.011,0,0,1,.015,0,.012.012,0,0,1,0,.016l-1.913,2.589a.08.08,0,0,0,.008.105.079.079,0,0,0,.1.008,5.268,5.268,0,0,1,1.135-.606c.185-.07.354-.121.517-.169a3.533,3.533,0,0,0,1.213-.558.012.012,0,0,1,.016,0,.012.012,0,0,1,0,.016,4.767,4.767,0,0,1-.456.469,12.865,12.865,0,0,1-1.115.881,3.6,3.6,0,0,0-.808.781.08.08,0,0,0,0,.092.081.081,0,0,0,.086.033l3.109-.8a.011.011,0,0,1,.014.007.011.011,0,0,1,0,.015L479.723,8.2a.082.082,0,0,0-.033.1.08.08,0,0,0,.094.047,5.283,5.283,0,0,1,1.28-.123c.2.007.375.025.543.043a3.521,3.521,0,0,0,1.334-.049.011.011,0,0,1,.014.008.01.01,0,0,1-.005.014,4.516,4.516,0,0,1-.6.258,12.7,12.7,0,0,1-1.367.385,3.64,3.64,0,0,0-1.045.411.083.083,0,0,0-.036.086.082.082,0,0,0,.067.063l3.176.457a.013.013,0,0,1,.01.012.011.011,0,0,1-.01.012l-3.178.477a.081.081,0,0,0,0,.159,5.276,5.276,0,0,1,1.229.378c.181.083.334.167.483.248a3.522,3.522,0,0,0,1.251.469.012.012,0,0,1,0,.024c-.124.01-.249.015-.374.015-.093,0-.186,0-.279-.009a12.69,12.69,0,0,1-1.41-.17l-.079-.013h0a3.76,3.76,0,0,0-1.524-.331h-.023a.01.01,0,0,1-.008,0,.011.011,0,0,1,0-.008.229.229,0,0,0-.005-.062.233.233,0,0,0-.153-.171,6.855,6.855,0,0,0-1.671-.375l-.077-.006h-.01l-.04,0-.083,0h-.042l-.123,0h-.031a4.135,4.135,0,0,0-.694.057h-.007c-.006-.005-.007-.009-.006-.012v-.008a.232.232,0,0,0-.016-.1l-.008-.018a.234.234,0,0,0-.181-.129c-.05-.008-.1-.014-.15-.019l-.033,0-.016,0-.1-.01-.058-.005-.089-.008a6.048,6.048,0,0,0-1.637.076c-.135.027-.268.06-.4.1l-.026.008-.065.021-.025.008-.086.029h0c-.063.022-.125.047-.185.072,0,0-.01,0-.012,0a.013.013,0,0,1,0-.012v0h0l0-.022v0a.235.235,0,0,0-.06-.2l-.018-.017,0,0a.235.235,0,0,0-.17-.055,6.408,6.408,0,0,0-2.029.472,4.2,4.2,0,0,0-.541.284.013.013,0,0,1-.013,0,.011.011,0,0,1,0-.012c.006-.038.008-.062.009-.068h0v0a.239.239,0,0,0-.086-.2h0l-.02-.014,0,0-.018-.01-.007,0a.237.237,0,0,0-.161-.014,6.3,6.3,0,0,0-1.931.864l-.032.023-.014.01,0,0c-.157.01-.309.012-.453.008-.12,0-.51-.039-.543-.042a3.556,3.556,0,0,0-1.334.051m1.21.63h0a.028.028,0,0,1,.044.025,3.693,3.693,0,0,1-.6,1.767.222.222,0,0,0,0,.244.219.219,0,0,0,.224.092,4.877,4.877,0,0,1,1.193-.073.029.029,0,0,1,.025.02.029.029,0,0,1-.01.03,4.527,4.527,0,0,1-2.611,1.089l-.117,0a.03.03,0,0,1-.027-.027,3.739,3.739,0,0,1,1.878-3.166m-3.765,4.01a3.7,3.7,0,0,1,.522-1.206,5.535,5.535,0,0,1,.995-1.124.027.027,0,0,1,.029,0,.03.03,0,0,1,.017.025,3.7,3.7,0,0,1-.43,1.818.22.22,0,0,0,.265.31,4.6,4.6,0,0,1,1.161-.212.03.03,0,0,1,.027.017.027.027,0,0,1-.005.031,7.232,7.232,0,0,1-.684.6,3.308,3.308,0,0,1-1.834.79l-.08,0a.027.027,0,0,1-.026-.023,2.763,2.763,0,0,1,.044-1.02m-.606-.326h0a.028.028,0,0,1,.029-.009.029.029,0,0,1,.021.022,3.678,3.678,0,0,1-.135,1.863.222.222,0,0,0,.077.246.218.218,0,0,0,.255,0,2.668,2.668,0,0,1,1.16-.4.028.028,0,0,1,.025.044,4.172,4.172,0,0,1-2.411,1.793h0a.028.028,0,0,1-.027-.019,3.707,3.707,0,0,1,1.011-3.54m-2.413,3.631a5.5,5.5,0,0,1,.645-1.35.028.028,0,0,1,.027-.013.028.028,0,0,1,.023.02,3.683,3.683,0,0,1,.091,1.868.219.219,0,0,0,.111.237.216.216,0,0,0,.258-.038,2.254,2.254,0,0,1,1.133-.556.031.031,0,0,1,.027.012.027.027,0,0,1,0,.029,5.035,5.035,0,0,1-.454.76,3.36,3.36,0,0,1-1.763,1.328h0a.03.03,0,0,1-.029-.016,2.8,2.8,0,0,1-.234-.981,3.689,3.689,0,0,1,.168-1.3m-1.3,2.505a5.489,5.489,0,0,1,.436-1.429.028.028,0,0,1,.025-.017.028.028,0,0,1,.025.016,3.683,3.683,0,0,1,.369,1.836.221.221,0,0,0,.124.209.219.219,0,0,0,.239-.032,4.8,4.8,0,0,1,1.085-.69.029.029,0,0,1,.029,0,.029.029,0,0,1,.009.029,3.568,3.568,0,0,1-1.9,2.327.023.023,0,0,1-.012,0,.028.028,0,0,1-.023-.013,2.791,2.791,0,0,1-.374-.929,3.683,3.683,0,0,1-.029-1.312m-.7,1.171a.028.028,0,0,1,.023-.02.029.029,0,0,1,.027.012,3.689,3.689,0,0,1,.6,1.774.219.219,0,0,0,.387.124,4.134,4.134,0,0,1,.989-.824.028.028,0,0,1,.029,0,.027.027,0,0,1,.012.027,3.687,3.687,0,0,1-.159.729,3.337,3.337,0,0,1-1.436,1.833.028.028,0,0,1-.015,0,.029.029,0,0,1-.021-.01,2.826,2.826,0,0,1-.492-.88,3.7,3.7,0,0,1-.193-1.3,5.47,5.47,0,0,1,.252-1.473m-.8,2.722h0a.027.027,0,0,1,.021-.022.026.026,0,0,1,.028.008,3.706,3.706,0,0,1,.812,1.687.219.219,0,0,0,.4.081,4.718,4.718,0,0,1,.857-.918.028.028,0,0,1,.03,0,.029.029,0,0,1,.015.026,4.272,4.272,0,0,1-.1.727,3.7,3.7,0,0,1-1.145,1.977.029.029,0,0,1-.038,0,2.808,2.808,0,0,1-.591-.808,3.7,3.7,0,0,1-.352-1.266,5.486,5.486,0,0,1,.068-1.49m-.408,2.729a.028.028,0,0,1,.048-.016,3.716,3.716,0,0,1,.89,1.648.219.219,0,0,0,.41.04,3.462,3.462,0,0,1,.723-.955.027.027,0,0,1,.03,0,.028.028,0,0,1,.016.026,5.216,5.216,0,0,1-.067.82,3.334,3.334,0,0,1-.967,1.964.026.026,0,0,1-.018.007.029.029,0,0,1-.018-.006,2.815,2.815,0,0,1-.634-.785,3.68,3.68,0,0,1-.411-1.247,5.479,5.479,0,0,1,0-1.491m-.226,2.866h0a.027.027,0,0,1,.017-.024.028.028,0,0,1,.03,0c.059.055.117.114.174.174a3.81,3.81,0,0,1,.818,1.417.219.219,0,0,0,.209.153h.015a.218.218,0,0,0,.2-.183,2.036,2.036,0,0,1,.594-1.037.028.028,0,0,1,.047.016,4.287,4.287,0,0,1,0,1.357,2.771,2.771,0,0,1-.8,1.578.027.027,0,0,1-.02.008.028.028,0,0,1-.016-.005,3.707,3.707,0,0,1-1.273-3.457m-.1,2.771a.031.031,0,0,1,.03,0c.064.049.128.1.19.155a3.814,3.814,0,0,1,.963,1.325.219.219,0,0,0,.2.131l0,.012v-.012a.22.22,0,0,0,.2-.137,4.821,4.821,0,0,1,.661-1.1.03.03,0,0,1,.029-.009.029.029,0,0,1,.021.021,3.6,3.6,0,0,1-.656,2.928.03.03,0,0,1-.023.012.029.029,0,0,1-.014,0,3.733,3.733,0,0,1-1.618-3.3.03.03,0,0,1,.015-.027m.138,2.908h0a.027.027,0,0,1,.01-.028.026.026,0,0,1,.029,0,3.723,3.723,0,0,1,1.394,1.259.219.219,0,0,0,.4-.076h0a4.772,4.772,0,0,1,.472-1.216.027.027,0,0,1,.024-.014h0a.028.028,0,0,1,.024.016,3.361,3.361,0,0,1,.25.742A3.122,3.122,0,0,1,459,40.2a.028.028,0,0,1-.024.014l-.01,0a2.832,2.832,0,0,1-.868-.532,3.722,3.722,0,0,1-.808-1.039,5.519,5.519,0,0,1-.5-1.4m.653,2.687h0a.028.028,0,0,1,.008-.029.027.027,0,0,1,.03-.005c.073.031.148.066.221.1a3.83,3.83,0,0,1,1.262,1.051.219.219,0,0,0,.389-.105,4.86,4.86,0,0,1,.357-1.2.03.03,0,0,1,.026-.016.03.03,0,0,1,.025.016,3.647,3.647,0,0,1,.108,2.977.03.03,0,0,1-.026.016h-.007a3.744,3.744,0,0,1-2.393-2.806m1.613,3.983a5.513,5.513,0,0,1-.76-1.283.028.028,0,0,1,.033-.038c.076.023.154.048.231.077a3.833,3.833,0,0,1,1.375.9.219.219,0,0,0,.374-.15,4.836,4.836,0,0,1,.21-1.218.027.027,0,0,1,.024-.018.027.027,0,0,1,.027.014,4.8,4.8,0,0,1,.334.715,3.421,3.421,0,0,1,.121,2.214.029.029,0,0,1-.027.02h0a2.866,2.866,0,0,1-.946-.359,3.754,3.754,0,0,1-.991-.872m.392,1.273a.03.03,0,0,1,0-.03.028.028,0,0,1,.028-.012,3.759,3.759,0,0,1,1.71.785.219.219,0,0,0,.353-.2,4.27,4.27,0,0,1,.061-1.206.028.028,0,0,1,.051-.01,5.634,5.634,0,0,1,.407.694,3.609,3.609,0,0,1,.392,2.139.029.029,0,0,1-.028.023,2.84,2.84,0,0,1-.983-.248,3.728,3.728,0,0,1-1.087-.751,5.5,5.5,0,0,1-.905-1.186m2.456,3.486a5.529,5.529,0,0,1-1.025-1.086.028.028,0,0,1,0-.03.026.026,0,0,1,.027-.014,3.759,3.759,0,0,1,1.781.6.219.219,0,0,0,.33-.239,3.881,3.881,0,0,1-.075-1.2.027.027,0,0,1,.02-.023.026.026,0,0,1,.029.009,4.252,4.252,0,0,1,1.1,2.729.027.027,0,0,1-.026.026c-.036,0-.073,0-.11,0a2.912,2.912,0,0,1-.892-.147,3.774,3.774,0,0,1-1.16-.635m3.98,2.638a2.106,2.106,0,0,1-.363.029,2.831,2.831,0,0,1-.551-.056,5.019,5.019,0,0,1-2.37-1.364.029.029,0,0,1-.007-.029.029.029,0,0,1,.023-.02,3.77,3.77,0,0,1,1.867.251.218.218,0,0,0,.236-.051.221.221,0,0,0,.046-.239,4.479,4.479,0,0,1-.285-1.18.029.029,0,0,1,.016-.027.028.028,0,0,1,.031,0,3.46,3.46,0,0,1,1.381,2.656.03.03,0,0,1-.023.027m5.274,2.309a14.525,14.525,0,0,1-1.83-.636,15.835,15.835,0,0,1-2.963-1.661.015.015,0,0,1,0-.011A3.028,3.028,0,0,0,466.2,50.2a.013.013,0,0,1,0-.014.012.012,0,0,1,.014,0,14.238,14.238,0,0,0,2.06,1.466,12.833,12.833,0,0,0,2.528,1.08h0l.213.064a1.366,1.366,0,0,0,.222.848Zm1.444-.681a1.158,1.158,0,0,0,.063.936.035.035,0,0,1-.032.051h-.012a1.861,1.861,0,0,1-.845-.519.819.819,0,0,1-.182-.638.518.518,0,0,1,.239-.406,2.054,2.054,0,0,1,1.252-.156.034.034,0,0,1,.031.026.036.036,0,0,1-.013.038,1.442,1.442,0,0,0-.5.669m1.753,2.784a.757.757,0,1,1,.754-.757.757.757,0,0,1-.754.757m.927-1.756a.035.035,0,0,1-.05,0,1.316,1.316,0,0,0-1.761.006.036.036,0,0,1-.024.009.035.035,0,0,1-.026-.011.858.858,0,0,1-.285-.835c.249-.675,1.185-.681,1.212-.681h0a1.9,1.9,0,0,1,.527.088,1,1,0,0,1,.685.594.858.858,0,0,1-.281.829m1.642-.562a1.847,1.847,0,0,1-.844.519l-.012,0a.038.038,0,0,1-.027-.012.037.037,0,0,1,0-.04,1.168,1.168,0,0,0,.062-.935,1.447,1.447,0,0,0-.5-.669.036.036,0,0,1-.013-.038.034.034,0,0,1,.031-.026,2.167,2.167,0,0,1,1.253.156.518.518,0,0,1,.239.406.818.818,0,0,1-.181.637m5.43-2.094a.012.012,0,0,1,0,.01,12.822,12.822,0,0,1-2.192,1.347,14.038,14.038,0,0,1-2.547.959l-.169.038a1.361,1.361,0,0,0,.237-.867l.253-.078h0a12.853,12.853,0,0,0,2.491-1.068,14.645,14.645,0,0,0,2.082-1.484.011.011,0,0,1,.014,0,.013.013,0,0,1,0,.014,3.009,3.009,0,0,0-.17,1.132m-2.22-.116a12.424,12.424,0,0,1-2.508,1.067l-.081.024a1.073,1.073,0,0,0-.368-.4c-.812-.533-2.363-.146-2.818-.015a.033.033,0,0,1-.02,0c-.456-.131-2.006-.519-2.818.015a1.063,1.063,0,0,0-.367.4l-.133-.04a12.364,12.364,0,0,1-2.454-1.05,15.433,15.433,0,0,1-4.749-4.239,19.64,19.64,0,0,1-1.332-2.013.015.015,0,0,1,0-.01.015.015,0,0,1,.007-.008c.944-.419,3.368-1.513,5.458-2.593a.015.015,0,0,1,.011,0,.012.012,0,0,1,.006.009,1,1,0,0,0,.074.265,1.2,1.2,0,0,0,.972.608,3.059,3.059,0,0,0,.332.031.012.012,0,0,1,.011.008,1.26,1.26,0,0,0,.84.708,2.389,2.389,0,0,0,.454.1.014.014,0,0,1,.01.007.953.953,0,0,0,.356.45,1.865,1.865,0,0,0,1.283.185.012.012,0,0,1,.011,0,1.149,1.149,0,0,0,.677.416,1.607,1.607,0,0,0,.872-.1.011.011,0,0,1,.011,0l0,.005v3.686a.473.473,0,1,0,.947,0V44.861a.027.027,0,0,1,.01-.005,2.024,2.024,0,0,0,1.154-.092,1.929,1.929,0,0,0,.5-.288.02.02,0,0,1,.01,0,1.313,1.313,0,0,0,1.217-.372,1.622,1.622,0,0,0,.255-.341.011.011,0,0,1,.01-.006h0l.1,0a1.465,1.465,0,0,0,1.156-.493,1.521,1.521,0,0,0,.239-.377.012.012,0,0,1,.01-.008,1.415,1.415,0,0,0,.962-.375,1.265,1.265,0,0,0,.263-.372.011.011,0,0,1,.008-.006.011.011,0,0,1,.01,0,26.512,26.512,0,0,0,5.414,2.92.011.011,0,0,1,.007.008.013.013,0,0,1,0,.007,19.4,19.4,0,0,1-1.26,1.892,15.457,15.457,0,0,1-4.749,4.239m5.98-1.275h0a4.969,4.969,0,0,1-2.37,1.363,2.811,2.811,0,0,1-.552.057,2.086,2.086,0,0,1-.363-.029.027.027,0,0,1-.023-.027,2.935,2.935,0,0,1,.8-2.062,4.845,4.845,0,0,1,.592-.578.027.027,0,0,1,.031,0,.026.026,0,0,1,.014.027,4.9,4.9,0,0,1-.3,1.163.222.222,0,0,0,.046.239.219.219,0,0,0,.237.051,3.781,3.781,0,0,1,1.865-.25.029.029,0,0,1,.023.02.028.028,0,0,1-.007.029m1.746-2.331a5.552,5.552,0,0,1-1.024,1.084,3.758,3.758,0,0,1-1.16.635,2.915,2.915,0,0,1-.892.147c-.038,0-.076,0-.111,0a.028.028,0,0,1-.027-.026,3.45,3.45,0,0,1,.612-2.1,5.286,5.286,0,0,1,.481-.639.026.026,0,0,1,.029-.008.026.026,0,0,1,.018.024,4.746,4.746,0,0,1-.065,1.217.22.22,0,0,0,.333.23,3.769,3.769,0,0,1,1.78-.6.027.027,0,0,1,.027.014.03.03,0,0,1,0,.03m1.431-2.4a5.5,5.5,0,0,1-.9,1.184,3.746,3.746,0,0,1-1.087.751,2.857,2.857,0,0,1-.982.248.029.029,0,0,1-.029-.023,3.45,3.45,0,0,1,.387-2.156,5.333,5.333,0,0,1,.41-.686.029.029,0,0,1,.028-.011.027.027,0,0,1,.022.022,4.935,4.935,0,0,1,.064,1.219.219.219,0,0,0,.354.193,3.778,3.778,0,0,1,1.709-.783.028.028,0,0,1,.028.012.028.028,0,0,1,0,.029m1.15-2.63h0a5.519,5.519,0,0,1-.775,1.319,3.757,3.757,0,0,1-.991.872,2.832,2.832,0,0,1-.945.359h0a.027.027,0,0,1-.027-.02,3.5,3.5,0,0,1,.127-2.218,4.9,4.9,0,0,1,.319-.694.028.028,0,0,1,.051,0,5.412,5.412,0,0,1,.216,1.207.219.219,0,0,0,.381.139,3.343,3.343,0,0,1,1.369-.935,2.3,2.3,0,0,1,.248-.071.026.026,0,0,1,.027.009.027.027,0,0,1,0,.029m.83-2.64h0a5.49,5.49,0,0,1-.628,1.35,3.717,3.717,0,0,1-.9.965,2.84,2.84,0,0,1-.906.451h0a.029.029,0,0,1-.028-.018,3.691,3.691,0,0,1-.1-2.229,5.524,5.524,0,0,1,.248-.777.028.028,0,0,1,.025-.018.028.028,0,0,1,.026.017,5.349,5.349,0,0,1,.337,1.24.218.218,0,0,0,.387.112,3.759,3.759,0,0,1,1.5-1.129.026.026,0,0,1,.029.005.027.027,0,0,1,.008.029m.09-1.371a3.688,3.688,0,0,1-.773,1.067,2.805,2.805,0,0,1-.841.558l-.008,0a.029.029,0,0,1-.027-.014,3.628,3.628,0,0,1-.38-2.242,5.05,5.05,0,0,1,.158-.786.028.028,0,0,1,.023-.021.027.027,0,0,1,.027.014,5.333,5.333,0,0,1,.487,1.215.219.219,0,0,0,.4.064,3.741,3.741,0,0,1,1.35-1.3.028.028,0,0,1,.03,0,.028.028,0,0,1,.011.028,5.5,5.5,0,0,1-.456,1.418" transform="translate(-144.017 0)" fill="#585858"/>
        <path id="Trazado_42" data-name="Trazado 42" d="M8.73,35.836h2v9.152H9.182V38.074l-2.51,5.609H5.286L2.775,38.2v6.784H1.229V35.836h2l2.782,6.171Z" transform="translate(-0.388 -11.316)" fill="#585858"/>
        <path id="Trazado_43" data-name="Trazado 43" d="M17.862,36.623a.823.823,0,0,1-.257-.653.832.832,0,0,1,.257-.656,1.411,1.411,0,0,1,1.54,0,.832.832,0,0,1,.257.656.823.823,0,0,1-.257.653,1.425,1.425,0,0,1-1.54,0M17.815,38h1.626v6.746H17.815Z" transform="translate(-5.559 -11.079)" fill="#585858"/>
        <path id="Trazado_44" data-name="Trazado 44" d="M22.91,39.3h1.342l.112.711h.086a2.6,2.6,0,0,1,.906-.606,2.961,2.961,0,0,1,1.117-.21,2.214,2.214,0,0,1,1.651.615,2.687,2.687,0,0,1,.606,1.945v4.291H27.109v-4.2a1.339,1.339,0,0,0-.284-.962A1.117,1.117,0,0,0,26,40.6a2.014,2.014,0,0,0-.8.17,1.661,1.661,0,0,0-.662.51v4.767H22.91Z" transform="translate(-7.234 -12.377)" fill="#585858"/>
        <path id="Trazado_45" data-name="Trazado 45" d="M33.922,36.623a.823.823,0,0,1-.257-.653.832.832,0,0,1,.257-.656,1.411,1.411,0,0,1,1.54,0,.832.832,0,0,1,.257.656.823.823,0,0,1-.257.653,1.425,1.425,0,0,1-1.54,0M33.874,38H35.5v6.746H33.874Z" transform="translate(-10.63 -11.079)" fill="#585858"/>
        <path id="Trazado_46" data-name="Trazado 46" d="M38.6,45.889V44.677a7,7,0,0,0,2.04.3,1.989,1.989,0,0,0,1.049-.213.693.693,0,0,0,.33-.622.677.677,0,0,0-.173-.5,1.177,1.177,0,0,0-.594-.26l-1.026-.192a2.44,2.44,0,0,1-1.36-.652,1.787,1.787,0,0,1-.426-1.252,1.852,1.852,0,0,1,.33-1.1,2.119,2.119,0,0,1,1.005-.726,4.668,4.668,0,0,1,1.669-.26,6.7,6.7,0,0,1,1.726.21v1.206a6.4,6.4,0,0,0-1.682-.216q-1.528,0-1.528.84a.653.653,0,0,0,.17.473,1.122,1.122,0,0,0,.578.262l1.026.192A2.564,2.564,0,0,1,43.1,42.8a1.757,1.757,0,0,1,.436,1.277A1.883,1.883,0,0,1,43.2,45.2a2.113,2.113,0,0,1-.981.724,4.284,4.284,0,0,1-1.561.253,6.9,6.9,0,0,1-2.06-.285" transform="translate(-12.136 -12.377)" fill="#585858"/>
        <path id="Trazado_47" data-name="Trazado 47" d="M51.444,43.677v1.3a5.149,5.149,0,0,1-1.169.137,2.129,2.129,0,0,1-2.4-2.418v-3.16H46.714V38.242h1.162l.285-2.406H49.5v2.406h1.886v1.292H49.5v2.9a1.991,1.991,0,0,0,.127.785.8.8,0,0,0,.386.417,1.581,1.581,0,0,0,.686.127,4.081,4.081,0,0,0,.749-.087" transform="translate(-14.75 -11.316)" fill="#585858"/>
        <path id="Trazado_48" data-name="Trazado 48" d="M60.575,43.162H56.4a2.38,2.38,0,0,0,.248,1.042,1.244,1.244,0,0,0,.668.559,3.438,3.438,0,0,0,1.206.173,7.2,7.2,0,0,0,1.695-.234v1.23a7.935,7.935,0,0,1-1.917.241,4.676,4.676,0,0,1-1.982-.365,2.4,2.4,0,0,1-1.159-1.134,4.494,4.494,0,0,1-.384-2,4.615,4.615,0,0,1,.353-1.91,2.511,2.511,0,0,1,1.02-1.172,3.129,3.129,0,0,1,1.614-.393,2.536,2.536,0,0,1,2.1.887,4.123,4.123,0,0,1,.718,2.637ZM56.754,40.7a2.574,2.574,0,0,0-.359,1.49h2.664a2.667,2.667,0,0,0-.343-1.49,1.12,1.12,0,0,0-.968-.445,1.173,1.173,0,0,0-.995.445" transform="translate(-17.295 -12.377)" fill="#585858"/>
        <path id="Trazado_49" data-name="Trazado 49" d="M65.286,39.315h1.336l.124.878h.086a1.923,1.923,0,0,1,.782-.718,2.373,2.373,0,0,1,1.067-.241,3.439,3.439,0,0,1,.538.043V40.75a3.714,3.714,0,0,0-.631-.044,2.424,2.424,0,0,0-.95.2,1.708,1.708,0,0,0-.733.563v4.594h-1.62Z" transform="translate(-20.614 -12.389)" fill="#585858"/>
        <path id="Trazado_50" data-name="Trazado 50" d="M72.655,36.623a.823.823,0,0,1-.257-.653.832.832,0,0,1,.257-.656,1.411,1.411,0,0,1,1.54,0,.832.832,0,0,1,.257.656.823.823,0,0,1-.257.653,1.425,1.425,0,0,1-1.54,0M72.608,38h1.626v6.746H72.608Z" transform="translate(-22.86 -11.079)" fill="#585858"/>
        <path id="Trazado_51" data-name="Trazado 51" d="M78.064,45.3a3.647,3.647,0,0,1-.831-2.609,3.7,3.7,0,0,1,.819-2.623,3.528,3.528,0,0,1,4.644,0,3.7,3.7,0,0,1,.819,2.617,4.418,4.418,0,0,1-.38,1.942,2.56,2.56,0,0,1-1.085,1.162,3.458,3.458,0,0,1-1.676.383,3.038,3.038,0,0,1-2.31-.872m3.438-.884a2.946,2.946,0,0,0,.38-1.72,3,3,0,0,0-.38-1.741,1.508,1.508,0,0,0-2.257,0,2.944,2.944,0,0,0-.38,1.72A4.093,4.093,0,0,0,79.041,44a1.336,1.336,0,0,0,.508.708,1.492,1.492,0,0,0,.826.213,1.322,1.322,0,0,0,1.128-.507" transform="translate(-24.387 -12.377)" fill="#585858"/>
        <path id="Trazado_52" data-name="Trazado 52" d="M94.242,44.371a2.408,2.408,0,0,1-.978-1.1,4.412,4.412,0,0,1-.361-1.908,3.684,3.684,0,0,1,.912-2.7,3.587,3.587,0,0,1,2.662-.922,6.614,6.614,0,0,1,.9.068v-3.2H99V44.6H97.634l-.1-.711h-.087a2.135,2.135,0,0,1-.767.606,2.391,2.391,0,0,1-1.045.222,2.793,2.793,0,0,1-1.394-.346m2.563-1.141a1.445,1.445,0,0,0,.575-.448V39.089a4.147,4.147,0,0,0-.9-.092,1.876,1.876,0,0,0-1.463.529,2.507,2.507,0,0,0-.479,1.71,2.635,2.635,0,0,0,.4,1.66,1.4,1.4,0,0,0,1.143.486,1.8,1.8,0,0,0,.724-.152" transform="translate(-29.335 -10.927)" fill="#585858"/>
        <path id="Trazado_53" data-name="Trazado 53" d="M109.782,43.162h-4.175a2.379,2.379,0,0,0,.248,1.042,1.245,1.245,0,0,0,.667.559,3.442,3.442,0,0,0,1.206.173,7.194,7.194,0,0,0,1.694-.234v1.23a7.929,7.929,0,0,1-1.917.241,4.674,4.674,0,0,1-1.982-.365,2.4,2.4,0,0,1-1.16-1.134,4.5,4.5,0,0,1-.383-2,4.616,4.616,0,0,1,.352-1.91,2.519,2.519,0,0,1,1.02-1.172,3.13,3.13,0,0,1,1.614-.393,2.537,2.537,0,0,1,2.1.887,4.131,4.131,0,0,1,.717,2.637ZM105.961,40.7a2.584,2.584,0,0,0-.359,1.49h2.665a2.677,2.677,0,0,0-.343-1.49,1.12,1.12,0,0,0-.968-.445,1.174,1.174,0,0,0-1,.445" transform="translate(-32.833 -12.377)" fill="#585858"/>
        <path id="Trazado_54" data-name="Trazado 54" d="M2.943,66.677V58.9H0V57.526H7.538V58.9H4.595v7.773Z" transform="translate(0 -18.164)" fill="#585858"/>
        <path id="Trazado_55" data-name="Trazado 55" d="M13.135,67.29a2.665,2.665,0,0,1-.609-1.938v-4.31h1.62v4.211a1.346,1.346,0,0,0,.281.962,1.069,1.069,0,0,0,.8.287,1.924,1.924,0,0,0,.782-.173,1.648,1.648,0,0,0,.653-.513V61.041h1.62v6.747H16.941l-.112-.7h-.074a2.689,2.689,0,0,1-.9.61,2.765,2.765,0,0,1-1.064.207,2.228,2.228,0,0,1-1.66-.615" transform="translate(-3.955 -19.274)" fill="#585858"/>
        <path id="Trazado_56" data-name="Trazado 56" d="M23.587,61h1.336l.124.878h.086a1.921,1.921,0,0,1,.783-.718,2.368,2.368,0,0,1,1.066-.241,3.441,3.441,0,0,1,.538.043v1.472a3.709,3.709,0,0,0-.631-.044,2.421,2.421,0,0,0-.949.2,1.7,1.7,0,0,0-.733.563V67.75h-1.62Z" transform="translate(-7.448 -19.237)" fill="#585858"/>
        <path id="Trazado_57" data-name="Trazado 57" d="M30.848,58.312a.822.822,0,0,1-.257-.652A.832.832,0,0,1,30.848,57a1.411,1.411,0,0,1,1.54,0,.832.832,0,0,1,.257.656.822.822,0,0,1-.257.652,1.425,1.425,0,0,1-1.54,0M30.8,59.695h1.626v6.746H30.8Z" transform="translate(-9.659 -17.928)" fill="#585858"/>
        <path id="Trazado_58" data-name="Trazado 58" d="M35.542,67.578V66.366a7,7,0,0,0,2.04.3,1.988,1.988,0,0,0,1.048-.213.694.694,0,0,0,.331-.622.678.678,0,0,0-.174-.5,1.174,1.174,0,0,0-.593-.26l-1.026-.192a2.438,2.438,0,0,1-1.36-.652,1.784,1.784,0,0,1-.427-1.252,1.852,1.852,0,0,1,.33-1.1,2.123,2.123,0,0,1,1.005-.726,4.672,4.672,0,0,1,1.67-.26,6.711,6.711,0,0,1,1.726.21V62.3a6.4,6.4,0,0,0-1.682-.216q-1.528,0-1.528.84a.656.656,0,0,0,.17.473,1.125,1.125,0,0,0,.579.262l1.026.192a2.564,2.564,0,0,1,1.363.634,1.757,1.757,0,0,1,.437,1.277,1.883,1.883,0,0,1-.334,1.119,2.106,2.106,0,0,1-.981.724,4.277,4.277,0,0,1-1.561.253,6.893,6.893,0,0,1-2.06-.285" transform="translate(-11.172 -19.226)" fill="#585858"/>
        <path id="Trazado_59" data-name="Trazado 59" d="M53.6,61.5a2.762,2.762,0,0,1,.582,1.945v4.291H52.568v-4.2a1.381,1.381,0,0,0-.269-.956.979.979,0,0,0-.751-.287,1.664,1.664,0,0,0-.68.148,1.5,1.5,0,0,0-.575.458,4.35,4.35,0,0,1,.025.507v4.335H48.728v-4.2a1.442,1.442,0,0,0-.253-.959.935.935,0,0,0-.736-.285,1.6,1.6,0,0,0-.723.177,1.529,1.529,0,0,0-.588.523v4.749h-1.62V60.992h1.342l.112.717h.086a2.388,2.388,0,0,1,.851-.616,2.679,2.679,0,0,1,1.06-.207,2.224,2.224,0,0,1,1.008.22,1.662,1.662,0,0,1,.7.683,2.709,2.709,0,0,1,.956-.683,2.8,2.8,0,0,1,1.085-.22A2.079,2.079,0,0,1,53.6,61.5" transform="translate(-14.148 -19.226)" fill="#585858"/>
        <path id="Trazado_60" data-name="Trazado 60" d="M61.426,66.99a3.647,3.647,0,0,1-.831-2.609,3.7,3.7,0,0,1,.819-2.623,3.528,3.528,0,0,1,4.644,0,3.7,3.7,0,0,1,.819,2.617,4.418,4.418,0,0,1-.38,1.942,2.56,2.56,0,0,1-1.085,1.162,3.458,3.458,0,0,1-1.676.383,3.038,3.038,0,0,1-2.31-.872m3.438-.884a2.946,2.946,0,0,0,.38-1.719,3,3,0,0,0-.38-1.741,1.508,1.508,0,0,0-2.257,0,2.944,2.944,0,0,0-.38,1.72,4.093,4.093,0,0,0,.175,1.33,1.337,1.337,0,0,0,.508.708,1.492,1.492,0,0,0,.826.213,1.322,1.322,0,0,0,1.128-.507" transform="translate(-19.133 -19.226)" fill="#585858"/>
        <path id="Trazado_61" data-name="Trazado 61" d="M80.915,61.041h1.6l-3.432,9.467H77.5l1-2.721H78.04L75.6,61.041H77.3l1.787,5.343Z" transform="translate(-23.87 -19.274)" fill="#585858"/>
        <path id="Trazado_62" data-name="Trazado 62" d="M92.153,66.577V57.665q.619-.129,1.336-.207a12.991,12.991,0,0,1,1.386-.077,5.15,5.15,0,0,1,3.652,1.15,4.629,4.629,0,0,1,1.221,3.525,5.417,5.417,0,0,1-.575,2.656,3.456,3.456,0,0,1-1.728,1.518,7.5,7.5,0,0,1-2.909.489,20.3,20.3,0,0,1-2.381-.142m4.536-1.549a2.169,2.169,0,0,0,1.024-1.067,5.511,5.511,0,0,0,0-3.812A2.2,2.2,0,0,0,96.7,59.072a3.8,3.8,0,0,0-1.723-.343,7.414,7.414,0,0,0-1.169.1v6.475a10.025,10.025,0,0,0,1.138.055,3.952,3.952,0,0,0,1.747-.337" transform="translate(-29.098 -18.119)" fill="#585858"/>
        <path id="Trazado_63" data-name="Trazado 63" d="M110.868,64.851h-4.175a2.389,2.389,0,0,0,.248,1.042,1.247,1.247,0,0,0,.668.559,3.439,3.439,0,0,0,1.206.173,7.2,7.2,0,0,0,1.694-.234v1.23a7.931,7.931,0,0,1-1.917.241,4.67,4.67,0,0,1-1.982-.365,2.4,2.4,0,0,1-1.16-1.134,4.5,4.5,0,0,1-.384-2,4.627,4.627,0,0,1,.352-1.91,2.52,2.52,0,0,1,1.021-1.172,3.128,3.128,0,0,1,1.614-.393,2.536,2.536,0,0,1,2.1.887,4.131,4.131,0,0,1,.718,2.637Zm-3.822-2.461a2.579,2.579,0,0,0-.359,1.49h2.664a2.666,2.666,0,0,0-.343-1.49,1.12,1.12,0,0,0-.968-.445,1.172,1.172,0,0,0-.995.445" transform="translate(-33.175 -19.226)" fill="#585858"/>
        <path id="Trazado_64" data-name="Trazado 64" d="M115.6,60.992h1.366l.1.723h.081a2.146,2.146,0,0,1,.77-.606,2.4,2.4,0,0,1,1.048-.222,2.775,2.775,0,0,1,1.392.347,2.418,2.418,0,0,1,.974,1.095,4.394,4.394,0,0,1,.361,1.91,3.692,3.692,0,0,1-.909,2.7,3.582,3.582,0,0,1-2.665.921,8.462,8.462,0,0,1-.9-.061V70.46H115.6Zm3.985,5.086a2.507,2.507,0,0,0,.479-1.71,2.635,2.635,0,0,0-.4-1.663,1.407,1.407,0,0,0-1.144-.482,1.781,1.781,0,0,0-.723.152,1.447,1.447,0,0,0-.575.448v3.7a4.617,4.617,0,0,0,.9.086,1.876,1.876,0,0,0,1.462-.528" transform="translate(-36.5 -19.226)" fill="#585858"/>
        <path id="Trazado_65" data-name="Trazado 65" d="M127.037,66.99a3.647,3.647,0,0,1-.831-2.609,3.7,3.7,0,0,1,.819-2.623,3.528,3.528,0,0,1,4.644,0,3.7,3.7,0,0,1,.819,2.617,4.418,4.418,0,0,1-.38,1.942,2.56,2.56,0,0,1-1.085,1.162,3.458,3.458,0,0,1-1.676.383,3.038,3.038,0,0,1-2.31-.872m3.438-.884a2.946,2.946,0,0,0,.38-1.719,3,3,0,0,0-.38-1.741,1.508,1.508,0,0,0-2.257,0,2.944,2.944,0,0,0-.38,1.72,4.093,4.093,0,0,0,.175,1.33,1.336,1.336,0,0,0,.508.708,1.492,1.492,0,0,0,.826.213,1.322,1.322,0,0,0,1.128-.507" transform="translate(-39.85 -19.226)" fill="#585858"/>
        <path id="Trazado_66" data-name="Trazado 66" d="M137.556,61h1.336l.124.878h.087a1.915,1.915,0,0,1,.782-.718,2.373,2.373,0,0,1,1.067-.241,3.439,3.439,0,0,1,.538.043v1.472a3.709,3.709,0,0,0-.631-.044,2.421,2.421,0,0,0-.949.2,1.7,1.7,0,0,0-.733.563V67.75h-1.62Z" transform="translate(-43.434 -19.237)" fill="#585858"/>
        <path id="Trazado_67" data-name="Trazado 67" d="M148.559,65.366v1.3a5.149,5.149,0,0,1-1.169.137,2.129,2.129,0,0,1-2.4-2.418v-3.16h-1.162V59.931h1.162l.285-2.406h1.336v2.406H148.5v1.292h-1.886v2.9a1.991,1.991,0,0,0,.127.785.8.8,0,0,0,.386.417,1.581,1.581,0,0,0,.686.127,4.082,4.082,0,0,0,.749-.087" transform="translate(-45.415 -18.164)" fill="#585858"/>
        <path id="Trazado_68" data-name="Trazado 68" d="M157.8,64.851h-4.175a2.38,2.38,0,0,0,.248,1.042,1.244,1.244,0,0,0,.668.559,3.438,3.438,0,0,0,1.206.173,7.2,7.2,0,0,0,1.695-.234v1.23a7.934,7.934,0,0,1-1.917.241,4.676,4.676,0,0,1-1.982-.365,2.4,2.4,0,0,1-1.159-1.134,4.494,4.494,0,0,1-.384-2,4.615,4.615,0,0,1,.353-1.91,2.511,2.511,0,0,1,1.02-1.172,3.13,3.13,0,0,1,1.614-.393,2.536,2.536,0,0,1,2.1.887,4.127,4.127,0,0,1,.718,2.637Zm-3.822-2.461a2.579,2.579,0,0,0-.358,1.49h2.664a2.672,2.672,0,0,0-.343-1.49,1.12,1.12,0,0,0-.968-.445,1.175,1.175,0,0,0-1,.445" transform="translate(-47.994 -19.226)" fill="#585858"/>
        <path id="Trazado_69" data-name="Trazado 69" d="M162.154,67.578V66.366a7,7,0,0,0,2.04.3,1.988,1.988,0,0,0,1.048-.213.694.694,0,0,0,.331-.622.678.678,0,0,0-.174-.5,1.174,1.174,0,0,0-.593-.26l-1.026-.192a2.437,2.437,0,0,1-1.36-.652,1.784,1.784,0,0,1-.427-1.252,1.852,1.852,0,0,1,.33-1.1,2.122,2.122,0,0,1,1.005-.726,4.672,4.672,0,0,1,1.67-.26,6.711,6.711,0,0,1,1.726.21V62.3a6.4,6.4,0,0,0-1.682-.216q-1.528,0-1.528.84a.656.656,0,0,0,.17.473,1.125,1.125,0,0,0,.579.262l1.026.192a2.564,2.564,0,0,1,1.363.634,1.757,1.757,0,0,1,.437,1.277,1.883,1.883,0,0,1-.334,1.119,2.106,2.106,0,0,1-.981.724,4.277,4.277,0,0,1-1.561.253,6.893,6.893,0,0,1-2.06-.285" transform="translate(-51.15 -19.226)" fill="#585858"/>
        <path id="Trazado_70" data-name="Trazado 70" d="M273.585,35.836h2v9.152h-1.546V38.074l-2.51,5.609H270.14L267.63,38.2v6.784h-1.546V35.836h2l2.782,6.171Z" transform="translate(-84.017 -11.316)" fill="#585858"/>
        <path id="Trazado_71" data-name="Trazado 71" d="M282.735,36.623a.823.823,0,0,1-.257-.653.832.832,0,0,1,.257-.656,1.411,1.411,0,0,1,1.54,0,.832.832,0,0,1,.257.656.823.823,0,0,1-.257.653,1.425,1.425,0,0,1-1.54,0M282.688,38h1.626v6.746h-1.626Z" transform="translate(-89.194 -11.079)" fill="#585858"/>
        <path id="Trazado_72" data-name="Trazado 72" d="M287.783,39.3h1.342l.112.711h.086a2.591,2.591,0,0,1,.906-.606,2.96,2.96,0,0,1,1.116-.21,2.213,2.213,0,0,1,1.651.615,2.685,2.685,0,0,1,.606,1.945v4.291h-1.62v-4.2a1.343,1.343,0,0,0-.284-.962,1.118,1.118,0,0,0-.829-.287,2.011,2.011,0,0,0-.8.17,1.668,1.668,0,0,0-.662.51v4.767h-1.62Z" transform="translate(-90.869 -12.377)" fill="#585858"/>
        <path id="Trazado_73" data-name="Trazado 73" d="M298.794,36.623a.823.823,0,0,1-.257-.653.832.832,0,0,1,.257-.656,1.412,1.412,0,0,1,1.54,0,.834.834,0,0,1,.257.656.826.826,0,0,1-.257.653,1.426,1.426,0,0,1-1.54,0M298.747,38h1.626v6.746h-1.626Z" transform="translate(-94.265 -11.079)" fill="#585858"/>
        <path id="Trazado_74" data-name="Trazado 74" d="M303.469,45.889V44.677a7,7,0,0,0,2.04.3,1.988,1.988,0,0,0,1.048-.213.694.694,0,0,0,.331-.622.678.678,0,0,0-.174-.5,1.174,1.174,0,0,0-.593-.26l-1.026-.192a2.438,2.438,0,0,1-1.36-.652,1.784,1.784,0,0,1-.427-1.252,1.852,1.852,0,0,1,.33-1.1,2.123,2.123,0,0,1,1.005-.726,4.672,4.672,0,0,1,1.67-.26,6.712,6.712,0,0,1,1.726.21v1.206a6.4,6.4,0,0,0-1.682-.216q-1.528,0-1.528.84a.656.656,0,0,0,.17.473,1.125,1.125,0,0,0,.579.262l1.026.192a2.564,2.564,0,0,1,1.363.634,1.757,1.757,0,0,1,.437,1.277,1.883,1.883,0,0,1-.334,1.119,2.106,2.106,0,0,1-.98.724,4.278,4.278,0,0,1-1.561.253,6.893,6.893,0,0,1-2.06-.285" transform="translate(-95.771 -12.377)" fill="#585858"/>
        <path id="Trazado_75" data-name="Trazado 75" d="M316.317,43.677v1.3a5.159,5.159,0,0,1-1.169.137,2.129,2.129,0,0,1-2.4-2.418v-3.16h-1.163V38.242h1.163l.285-2.406h1.335v2.406h1.886v1.292h-1.886v2.9a2,2,0,0,0,.127.785.8.8,0,0,0,.387.417,1.579,1.579,0,0,0,.686.127,4.088,4.088,0,0,0,.749-.087" transform="translate(-98.385 -11.316)" fill="#585858"/>
        <path id="Trazado_76" data-name="Trazado 76" d="M325.448,43.162h-4.175a2.379,2.379,0,0,0,.248,1.042,1.245,1.245,0,0,0,.667.559,3.442,3.442,0,0,0,1.206.173,7.194,7.194,0,0,0,1.694-.234v1.23a7.93,7.93,0,0,1-1.917.241,4.674,4.674,0,0,1-1.982-.365,2.4,2.4,0,0,1-1.16-1.134,4.5,4.5,0,0,1-.383-2,4.615,4.615,0,0,1,.352-1.91,2.519,2.519,0,0,1,1.02-1.172,3.13,3.13,0,0,1,1.614-.393,2.537,2.537,0,0,1,2.1.887,4.131,4.131,0,0,1,.717,2.637ZM321.627,40.7a2.584,2.584,0,0,0-.359,1.49h2.665a2.677,2.677,0,0,0-.344-1.49,1.119,1.119,0,0,0-.967-.445,1.174,1.174,0,0,0-1,.445" transform="translate(-100.931 -12.377)" fill="#585858"/>
        <path id="Trazado_77" data-name="Trazado 77" d="M330.158,39.315h1.336l.124.878h.087a1.915,1.915,0,0,1,.782-.718,2.374,2.374,0,0,1,1.067-.241,3.438,3.438,0,0,1,.538.043V40.75a3.709,3.709,0,0,0-.631-.044,2.421,2.421,0,0,0-.949.2,1.7,1.7,0,0,0-.733.563v4.594h-1.62Z" transform="translate(-104.249 -12.389)" fill="#585858"/>
        <path id="Trazado_78" data-name="Trazado 78" d="M337.527,36.623a.823.823,0,0,1-.257-.653.832.832,0,0,1,.257-.656,1.412,1.412,0,0,1,1.54,0,.834.834,0,0,1,.257.656.826.826,0,0,1-.257.653,1.426,1.426,0,0,1-1.54,0M337.481,38h1.626v6.746h-1.626Z" transform="translate(-106.495 -11.079)" fill="#585858"/>
        <path id="Trazado_79" data-name="Trazado 79" d="M342.937,45.3a3.647,3.647,0,0,1-.832-2.609,3.708,3.708,0,0,1,.819-2.623,3.528,3.528,0,0,1,4.644,0,3.7,3.7,0,0,1,.819,2.617,4.408,4.408,0,0,1-.38,1.942,2.556,2.556,0,0,1-1.085,1.162,3.454,3.454,0,0,1-1.676.383,3.036,3.036,0,0,1-2.309-.872m3.438-.884a2.94,2.94,0,0,0,.38-1.72,3,3,0,0,0-.38-1.741,1.508,1.508,0,0,0-2.257,0,2.949,2.949,0,0,0-.38,1.72,4.074,4.074,0,0,0,.176,1.33,1.337,1.337,0,0,0,.508.708,1.492,1.492,0,0,0,.825.213,1.321,1.321,0,0,0,1.128-.507" transform="translate(-108.022 -12.377)" fill="#585858"/>
        <path id="Trazado_80" data-name="Trazado 80" d="M266.772,66.061a2.409,2.409,0,0,1-.978-1.1,4.412,4.412,0,0,1-.361-1.908,3.684,3.684,0,0,1,.912-2.7,3.587,3.587,0,0,1,2.662-.922,6.614,6.614,0,0,1,.9.068V56.3h1.62v9.993h-1.366l-.1-.711h-.087a2.136,2.136,0,0,1-.767.606,2.391,2.391,0,0,1-1.045.222,2.793,2.793,0,0,1-1.394-.346m2.563-1.141a1.445,1.445,0,0,0,.575-.448V60.779a4.147,4.147,0,0,0-.9-.092,1.876,1.876,0,0,0-1.463.529,2.507,2.507,0,0,0-.479,1.71,2.635,2.635,0,0,0,.4,1.66,1.4,1.4,0,0,0,1.143.486,1.8,1.8,0,0,0,.724-.152" transform="translate(-83.812 -17.776)" fill="#585858"/>
        <path id="Trazado_81" data-name="Trazado 81" d="M282.313,64.851h-4.175a2.379,2.379,0,0,0,.248,1.042,1.245,1.245,0,0,0,.667.559,3.442,3.442,0,0,0,1.206.173,7.194,7.194,0,0,0,1.694-.234v1.23a7.929,7.929,0,0,1-1.917.241,4.674,4.674,0,0,1-1.982-.365,2.4,2.4,0,0,1-1.16-1.134,4.5,4.5,0,0,1-.383-2,4.615,4.615,0,0,1,.352-1.91,2.518,2.518,0,0,1,1.02-1.172,3.129,3.129,0,0,1,1.614-.393,2.537,2.537,0,0,1,2.1.887,4.131,4.131,0,0,1,.717,2.637Zm-3.822-2.461a2.584,2.584,0,0,0-.359,1.49H280.8a2.678,2.678,0,0,0-.344-1.49,1.12,1.12,0,0,0-.968-.445,1.174,1.174,0,0,0-1,.445" transform="translate(-87.31 -19.226)" fill="#585858"/>
        <rect id="Rectángulo_8" data-name="Rectángulo 8" width="1.62" height="9.993" transform="translate(196.407 38.52)" fill="#585858"/>
        <rect id="Rectángulo_9" data-name="Rectángulo 9" width="1.651" height="9.152" transform="translate(203.214 39.361)" fill="#585858"/>
        <path id="Trazado_82" data-name="Trazado 82" d="M302.187,60.992h1.342l.112.711h.087a2.587,2.587,0,0,1,.905-.606,2.963,2.963,0,0,1,1.117-.21,2.214,2.214,0,0,1,1.651.615,2.687,2.687,0,0,1,.606,1.945v4.291h-1.62v-4.2a1.34,1.34,0,0,0-.285-.962,1.117,1.117,0,0,0-.829-.287,2.016,2.016,0,0,0-.8.17,1.661,1.661,0,0,0-.662.51v4.767h-1.62Z" transform="translate(-95.417 -19.226)" fill="#585858"/>
        <path id="Trazado_83" data-name="Trazado 83" d="M316.941,65.366v1.3a5.168,5.168,0,0,1-1.169.137,2.129,2.129,0,0,1-2.4-2.418v-3.16H312.21V59.931h1.162l.285-2.406h1.335v2.406h1.887v1.292h-1.887v2.9a2.015,2.015,0,0,0,.127.785.8.8,0,0,0,.387.417,1.579,1.579,0,0,0,.686.127,4.094,4.094,0,0,0,.749-.087" transform="translate(-98.582 -18.164)" fill="#585858"/>
        <path id="Trazado_84" data-name="Trazado 84" d="M326.18,64.851h-4.175a2.38,2.38,0,0,0,.248,1.042,1.244,1.244,0,0,0,.668.559,3.438,3.438,0,0,0,1.206.173,7.2,7.2,0,0,0,1.695-.234v1.23a7.935,7.935,0,0,1-1.917.241,4.675,4.675,0,0,1-1.982-.365,2.4,2.4,0,0,1-1.159-1.134,4.494,4.494,0,0,1-.384-2,4.615,4.615,0,0,1,.353-1.91,2.511,2.511,0,0,1,1.02-1.172,3.13,3.13,0,0,1,1.614-.393,2.536,2.536,0,0,1,2.1.887,4.127,4.127,0,0,1,.718,2.637Zm-3.822-2.461A2.58,2.58,0,0,0,322,63.88h2.664a2.672,2.672,0,0,0-.343-1.49,1.12,1.12,0,0,0-.968-.445,1.175,1.175,0,0,0-1,.445" transform="translate(-101.161 -19.226)" fill="#585858"/>
        <path id="Trazado_85" data-name="Trazado 85" d="M330.908,61h1.336l.124.878h.087a1.915,1.915,0,0,1,.782-.718,2.374,2.374,0,0,1,1.067-.241,3.439,3.439,0,0,1,.538.043v1.472a3.709,3.709,0,0,0-.631-.044,2.421,2.421,0,0,0-.949.2,1.7,1.7,0,0,0-.733.563V67.75h-1.62Z" transform="translate(-104.486 -19.237)" fill="#585858"/>
        <path id="Trazado_86" data-name="Trazado 86" d="M338.169,58.312a.822.822,0,0,1-.257-.652.832.832,0,0,1,.257-.656,1.411,1.411,0,0,1,1.54,0,.832.832,0,0,1,.257.656.822.822,0,0,1-.257.652,1.425,1.425,0,0,1-1.54,0m-.047,1.383h1.626v6.746h-1.626Z" transform="translate(-106.698 -17.928)" fill="#585858"/>
        <path id="Trazado_87" data-name="Trazado 87" d="M343.6,66.99a3.647,3.647,0,0,1-.832-2.609,3.708,3.708,0,0,1,.819-2.623,3.528,3.528,0,0,1,4.644,0,3.7,3.7,0,0,1,.819,2.617,4.409,4.409,0,0,1-.38,1.942,2.556,2.556,0,0,1-1.085,1.162,3.454,3.454,0,0,1-1.676.383,3.036,3.036,0,0,1-2.309-.872m3.438-.884a2.941,2.941,0,0,0,.38-1.719,3,3,0,0,0-.38-1.741,1.508,1.508,0,0,0-2.257,0,2.949,2.949,0,0,0-.38,1.72,4.072,4.072,0,0,0,.176,1.33,1.337,1.337,0,0,0,.508.708,1.492,1.492,0,0,0,.825.213,1.321,1.321,0,0,0,1.128-.507" transform="translate(-108.23 -19.226)" fill="#585858"/>
        <path id="Trazado_88" data-name="Trazado 88" d="M354.116,61h1.336l.124.878h.086a1.923,1.923,0,0,1,.782-.718,2.373,2.373,0,0,1,1.067-.241,3.441,3.441,0,0,1,.539.043v1.472a3.715,3.715,0,0,0-.631-.044,2.424,2.424,0,0,0-.95.2,1.708,1.708,0,0,0-.733.563V67.75h-1.62Z" transform="translate(-111.814 -19.237)" fill="#585858"/>
      </g>
    </g>
  </g>
</svg>
