<svg xmlns="http://www.w3.org/2000/svg" xmlns:xlink="http://www.w3.org/1999/xlink" width="263.5" height="89.319" viewBox="0 0 263.5 89.319">
  <defs>
    <clipPath id="clip-path">
      <rect id="Rectangle_79" data-name="Rectangle 79" width="14.71" height="9.704" fill="none"/>
    </clipPath>
    <clipPath id="clip-path-2">
      <rect id="Rectangle_80" data-name="Rectangle 80" width="13.558" height="6.872" fill="none"/>
    </clipPath>
    <clipPath id="clip-path-3">
      <rect id="Rectangle_81" data-name="Rectangle 81" width="9.704" height="14.71" fill="none"/>
    </clipPath>
    <clipPath id="clip-path-4">
      <rect id="Rectangle_82" data-name="Rectangle 82" width="10.427" height="11.922" fill="none"/>
    </clipPath>
    <clipPath id="clip-path-5">
      <rect id="Rectangle_83" data-name="Rectangle 83" width="6.873" height="13.557" fill="none"/>
    </clipPath>
    <clipPath id="clip-path-6">
      <rect id="Rectangle_84" data-name="Rectangle 84" width="11.922" height="10.427" fill="none"/>
    </clipPath>
    <clipPath id="clip-path-9">
      <rect id="Rectangle_87" data-name="Rectangle 87" width="11.922" height="10.428" fill="none"/>
    </clipPath>
    <clipPath id="clip-path-10">
      <rect id="Rectangle_88" data-name="Rectangle 88" width="10.428" height="11.922" fill="none"/>
    </clipPath>
    <clipPath id="clip-path-12">
      <rect id="Rectangle_90" data-name="Rectangle 90" width="6.873" height="13.558" fill="none"/>
    </clipPath>
  </defs>
  <g id="Group_152" data-name="Group 152" transform="translate(-34.377 -34.373)">
    <g id="Group_150" data-name="Group 150" transform="translate(34.377 34.373)">
      <g id="Group_115" data-name="Group 115" transform="translate(5.983 16.171)" opacity="0.7">
        <g id="Group_114" data-name="Group 114">
          <g id="Group_113" data-name="Group 113" clip-path="url(#clip-path)">
            <path id="Path_150" data-name="Path 150" d="M168.1,217.4l5.175-2.376a4.589,4.589,0,0,0,1.332-.927l-4.523-4.523a5.479,5.479,0,0,1-1.584,1.1l-6.151,2.823a5.454,5.454,0,0,0-2.452,2.234l6.141,3.545A4.588,4.588,0,0,1,168.1,217.4" transform="translate(-159.897 -209.578)" fill="#fff"/>
          </g>
        </g>
      </g>
      <g id="Group_118" data-name="Group 118" transform="translate(22.33 5.251)" opacity="0.7">
        <g id="Group_117" data-name="Group 117">
          <g id="Group_116" data-name="Group 116" clip-path="url(#clip-path-2)">
            <path id="Path_151" data-name="Path 151" d="M245.9,162.589l5.67.53a4.594,4.594,0,0,0,1.617-.136l-1.656-6.179a5.458,5.458,0,0,1-1.922.162l-6.739-.63a5.458,5.458,0,0,0-3.241.708l3.545,6.14a4.591,4.591,0,0,1,2.726-.6" transform="translate(-239.633 -156.312)" fill="#fff"/>
          </g>
        </g>
      </g>
      <g id="Group_121" data-name="Group 121" transform="translate(63.444 5.983)" opacity="0.7">
        <g id="Group_120" data-name="Group 120">
          <g id="Group_119" data-name="Group 119" clip-path="url(#clip-path-3)">
            <path id="Path_152" data-name="Path 152" d="M442.063,168.085l2.374,5.174a4.606,4.606,0,0,0,.927,1.333l4.523-4.522a5.479,5.479,0,0,1-1.1-1.584l-2.823-6.151a5.459,5.459,0,0,0-2.234-2.452l-3.545,6.14a4.591,4.591,0,0,1,1.879,2.063" transform="translate(-440.183 -159.882)" fill="#fff"/>
          </g>
        </g>
      </g>
      <g id="Group_124" data-name="Group 124" transform="translate(44.66 0)" opacity="0.7">
        <g id="Group_123" data-name="Group 123">
          <g id="Group_122" data-name="Group 122" clip-path="url(#clip-path-4)">
            <path id="Path_153" data-name="Path 153" d="M351.214,138.635l4.644,3.294a4.587,4.587,0,0,0,1.469.691l1.655-6.178a5.458,5.458,0,0,1-1.746-.821l-5.521-3.916a5.452,5.452,0,0,0-3.16-1.007v7.09a4.589,4.589,0,0,1,2.658.847" transform="translate(-348.556 -130.698)" fill="#fff"/>
          </g>
        </g>
      </g>
      <g id="Group_127" data-name="Group 127" transform="translate(77.195 22.33)" opacity="0.7">
        <g id="Group_126" data-name="Group 126">
          <g id="Group_125" data-name="Group 125" clip-path="url(#clip-path-5)">
            <path id="Path_154" data-name="Path 154" d="M507.857,245.891l-.531,5.669a4.588,4.588,0,0,0,.137,1.617l6.179-1.655a5.457,5.457,0,0,1-.163-1.923l.631-6.738a5.454,5.454,0,0,0-.708-3.241l-6.14,3.545a4.59,4.59,0,0,1,.6,2.726" transform="translate(-507.261 -239.62)" fill="#fff"/>
          </g>
        </g>
      </g>
      <g id="Group_130" data-name="Group 130" transform="translate(0 34.232)" opacity="0.7">
        <g id="Group_129" data-name="Group 129">
          <g id="Group_128" data-name="Group 128" clip-path="url(#clip-path-6)">
            <path id="Path_155" data-name="Path 155" d="M138.648,305.446l3.294-4.645a4.6,4.6,0,0,0,.69-1.469l-6.178-1.655a5.45,5.45,0,0,1-.82,1.746l-3.916,5.521a5.451,5.451,0,0,0-1.007,3.16h7.09a4.59,4.59,0,0,1,.847-2.659" transform="translate(-130.711 -297.678)" fill="#fff"/>
          </g>
        </g>
      </g>
      <g id="Group_133" data-name="Group 133" transform="translate(68.626 63.444)" opacity="0.7">
        <g id="Group_132" data-name="Group 132">
          <g id="Group_131" data-name="Group 131" clip-path="url(#clip-path)">
            <path id="Path_156" data-name="Path 156" d="M471.965,442.049l-5.175,2.376a4.6,4.6,0,0,0-1.332.927l4.523,4.523a5.464,5.464,0,0,1,1.584-1.1l6.151-2.823a5.455,5.455,0,0,0,2.452-2.234l-6.14-3.545a4.587,4.587,0,0,1-2.063,1.879" transform="translate(-465.458 -440.17)" fill="#fff"/>
          </g>
        </g>
      </g>
      <g id="Group_136" data-name="Group 136" transform="translate(53.432 77.195)" opacity="0.7">
        <g id="Group_135" data-name="Group 135">
          <g id="Group_134" data-name="Group 134" clip-path="url(#clip-path-2)">
            <path id="Path_157" data-name="Path 157" d="M398.631,507.844l-5.67-.531a4.6,4.6,0,0,0-1.617.137L393,513.628a5.463,5.463,0,0,1,1.923-.162l6.739.631a5.459,5.459,0,0,0,3.241-.709l-3.545-6.14a4.59,4.59,0,0,1-2.726.6" transform="translate(-391.344 -507.248)" fill="#fff"/>
          </g>
        </g>
      </g>
      <g id="Group_139" data-name="Group 139" transform="translate(77.397 44.659)" opacity="0.7">
        <g id="Group_138" data-name="Group 138">
          <g id="Group_137" data-name="Group 137" clip-path="url(#clip-path-9)">
            <path id="Path_158" data-name="Path 158" d="M513.077,348.54a4.593,4.593,0,0,1-.847,2.659l-3.294,4.644a4.6,4.6,0,0,0-.691,1.469l6.178,1.656a5.468,5.468,0,0,1,.821-1.747l3.916-5.52a5.457,5.457,0,0,0,1.007-3.16Z" transform="translate(-508.245 -348.54)" fill="#fff"/>
          </g>
        </g>
      </g>
      <g id="Group_142" data-name="Group 142" transform="translate(34.232 77.397)" opacity="0.7">
        <g id="Group_141" data-name="Group 141">
          <g id="Group_140" data-name="Group 140" clip-path="url(#clip-path-10)">
            <path id="Path_159" data-name="Path 159" d="M305.458,512.216l-4.644-3.293a4.592,4.592,0,0,0-1.469-.691l-1.656,6.178a5.468,5.468,0,0,1,1.746.821l5.521,3.916a5.456,5.456,0,0,0,3.161,1.007v-7.09a4.589,4.589,0,0,1-2.659-.848" transform="translate(-297.689 -508.232)" fill="#fff"/>
          </g>
        </g>
      </g>
      <g id="Group_145" data-name="Group 145" transform="translate(16.171 68.625)" opacity="0.7">
        <g id="Group_144" data-name="Group 144">
          <g id="Group_143" data-name="Group 143" clip-path="url(#clip-path-3)">
            <path id="Path_160" data-name="Path 160" d="M217.415,471.951l-2.375-5.175a4.591,4.591,0,0,0-.927-1.333l-4.523,4.523a5.455,5.455,0,0,1,1.1,1.584l2.823,6.151a5.456,5.456,0,0,0,2.234,2.452l3.545-6.14a4.59,4.59,0,0,1-1.879-2.063" transform="translate(-209.59 -465.443)" fill="#fff"/>
          </g>
        </g>
      </g>
      <g id="Group_148" data-name="Group 148" transform="translate(5.251 53.431)" opacity="0.7">
        <g id="Group_147" data-name="Group 147">
          <g id="Group_146" data-name="Group 146" clip-path="url(#clip-path-12)">
            <path id="Path_161" data-name="Path 161" d="M162.6,398.615l.53-5.669a4.59,4.59,0,0,0-.137-1.617l-6.178,1.656a5.459,5.459,0,0,1,.163,1.923l-.631,6.739a5.453,5.453,0,0,0,.708,3.241l6.141-3.545a4.591,4.591,0,0,1-.6-2.726" transform="translate(-156.324 -391.329)" fill="#fff"/>
          </g>
        </g>
      </g>
      <path id="Path_162" data-name="Path 162" d="M156.98,249.6a5.454,5.454,0,0,1-.162,1.923L163,253.178a4.592,4.592,0,0,0,.137-1.618l-.53-5.669a4.589,4.589,0,0,1,.6-2.726l-6.14-3.545a5.454,5.454,0,0,0-.709,3.24Z" transform="translate(-151.074 -217.291)" fill="#fff"/>
      <path id="Path_163" data-name="Path 163" d="M300.815,141.929l4.644-3.294a4.588,4.588,0,0,1,2.659-.847V130.7a5.455,5.455,0,0,0-3.16,1.007l-5.52,3.916a5.451,5.451,0,0,1-1.747.82l1.656,6.179a4.59,4.59,0,0,0,1.469-.691" transform="translate(-263.458 -130.698)" fill="#fff"/>
      <path id="Path_164" data-name="Path 164" d="M215.041,173.26l2.375-5.174a4.59,4.59,0,0,1,1.879-2.063l-3.545-6.14a5.454,5.454,0,0,0-2.233,2.452l-2.824,6.151a5.475,5.475,0,0,1-1.1,1.584l4.523,4.522a4.588,4.588,0,0,0,.927-1.333" transform="translate(-193.42 -153.9)" fill="#fff"/>
      <path id="Path_165" data-name="Path 165" d="M392.96,163.119l5.671-.53a4.591,4.591,0,0,1,2.726.6l3.545-6.14a5.459,5.459,0,0,0-3.24-.708l-6.74.631A5.457,5.457,0,0,1,393,156.8l-1.655,6.179a4.594,4.594,0,0,0,1.616.136" transform="translate(-337.912 -151.061)" fill="#fff"/>
      <path id="Path_166" data-name="Path 166" d="M508.936,300.8l3.294,4.645a4.591,4.591,0,0,1,.847,2.659h7.091a5.458,5.458,0,0,0-1.007-3.161l-3.916-5.521a5.456,5.456,0,0,1-.821-1.746l-6.178,1.655a4.6,4.6,0,0,0,.691,1.469" transform="translate(-430.848 -263.446)" fill="#fff"/>
      <path id="Path_167" data-name="Path 167" d="M466.789,215.028l5.175,2.376a4.586,4.586,0,0,1,2.063,1.878l6.141-3.545a5.453,5.453,0,0,0-2.452-2.234l-6.152-2.824a5.455,5.455,0,0,1-1.584-1.1l-4.523,4.523a4.6,4.6,0,0,0,1.332.927" transform="translate(-396.832 -193.407)" fill="#fff"/>
      <path id="Path_168" data-name="Path 168" d="M513.479,394.907a5.457,5.457,0,0,1,.162-1.922l-6.179-1.656a4.587,4.587,0,0,0-.137,1.617l.531,5.67a4.589,4.589,0,0,1-.6,2.726l6.14,3.545a5.455,5.455,0,0,0,.708-3.241Z" transform="translate(-430.066 -337.898)" fill="#fff"/>
      <path id="Path_169" data-name="Path 169" d="M444.438,466.776l-2.374,5.174a4.59,4.59,0,0,1-1.879,2.063l3.545,6.14a5.453,5.453,0,0,0,2.233-2.452l2.824-6.151a5.455,5.455,0,0,1,1.1-1.584l-4.523-4.523a4.6,4.6,0,0,0-.928,1.333" transform="translate(-376.741 -396.818)" fill="#fff"/>
      <path id="Path_170" data-name="Path 170" d="M355.858,508.922l-4.644,3.293a4.588,4.588,0,0,1-2.659.848v7.09a5.456,5.456,0,0,0,3.16-1.007l5.521-3.916a5.477,5.477,0,0,1,1.746-.821l-1.655-6.178a4.6,4.6,0,0,0-1.469.691" transform="translate(-303.895 -430.834)" fill="#fff"/>
      <path id="Path_171" data-name="Path 171" d="M173.274,444.425l-5.175-2.376a4.589,4.589,0,0,1-2.063-1.879l-6.141,3.545a5.46,5.46,0,0,0,2.452,2.233l6.151,2.824a5.466,5.466,0,0,1,1.584,1.1l4.523-4.523a4.587,4.587,0,0,0-1.332-.927" transform="translate(-153.912 -376.727)" fill="#fff"/>
      <path id="Path_172" data-name="Path 172" d="M251.574,507.313l-5.669.531a4.592,4.592,0,0,1-2.726-.6l-3.545,6.14a5.458,5.458,0,0,0,3.241.709l6.739-.632a5.47,5.47,0,0,1,1.923.163l1.656-6.178a4.6,4.6,0,0,0-1.617-.137" transform="translate(-217.303 -430.053)" fill="#fff"/>
      <path id="Path_173" data-name="Path 173" d="M141.941,355.843l-3.294-4.644a4.589,4.589,0,0,1-.847-2.659h-7.09a5.456,5.456,0,0,0,1.007,3.161l3.916,5.52a5.473,5.473,0,0,1,.821,1.747l6.178-1.656a4.6,4.6,0,0,0-.69-1.469" transform="translate(-130.71 -303.881)" fill="#fff"/>
      <path id="Path_174" data-name="Path 174" d="M264.358,233.915l-2.545-3.589a3.549,3.549,0,0,1-.64-2.385l.41-4.38A3.55,3.55,0,0,0,259.529,220l-4-1.836a3.554,3.554,0,0,1-1.746-1.746l-1.835-4a3.55,3.55,0,0,0-3.558-2.054l-4.381.41a3.548,3.548,0,0,1-2.384-.639l-3.589-2.545a3.55,3.55,0,0,0-4.108,0l-3.588,2.545a3.549,3.549,0,0,1-2.385.639l-4.381-.41a3.55,3.55,0,0,0-3.558,2.054l-1.835,4a3.55,3.55,0,0,1-1.746,1.746l-4,1.836a3.55,3.55,0,0,0-2.054,3.557l.41,4.38a3.552,3.552,0,0,1-.639,2.385l-2.545,3.589a3.551,3.551,0,0,0,0,4.109l2.545,3.588a3.552,3.552,0,0,1,.639,2.385l-.41,4.38a3.55,3.55,0,0,0,2.054,3.558l4,1.836a3.551,3.551,0,0,1,1.746,1.746l1.835,4a3.551,3.551,0,0,0,3.559,2.054l4.38-.41a3.554,3.554,0,0,1,2.385.64l3.588,2.545a3.549,3.549,0,0,0,4.109,0l3.588-2.545a3.554,3.554,0,0,1,2.385-.64l4.381.41a3.551,3.551,0,0,0,3.558-2.054l1.835-4a3.552,3.552,0,0,1,1.746-1.746l4-1.836a3.551,3.551,0,0,0,2.054-3.558l-.41-4.381a3.549,3.549,0,0,1,.64-2.385l2.545-3.588a3.552,3.552,0,0,0,0-4.109m-6.242,3.657-1.985,2.8a2.769,2.769,0,0,0-.5,1.86l.32,3.417a2.771,2.771,0,0,1-1.6,2.776l-3.119,1.431a2.768,2.768,0,0,0-1.362,1.362l-1.432,3.119a2.768,2.768,0,0,1-2.775,1.6l-3.417-.32a2.771,2.771,0,0,0-1.861.5l-2.8,1.985a2.771,2.771,0,0,1-3.2,0l-2.8-1.985a2.768,2.768,0,0,0-1.86-.5l-3.417.32a2.769,2.769,0,0,1-2.776-1.6l-1.432-3.118a2.766,2.766,0,0,0-1.362-1.362l-3.118-1.431a2.771,2.771,0,0,1-1.6-2.776l.32-3.416a2.766,2.766,0,0,0-.5-1.86l-1.985-2.8a2.77,2.77,0,0,1,0-3.2l1.985-2.8a2.767,2.767,0,0,0,.5-1.86l-.32-3.416a2.77,2.77,0,0,1,1.6-2.776l3.119-1.431a2.77,2.77,0,0,0,1.361-1.362l1.432-3.118a2.768,2.768,0,0,1,2.776-1.6l3.417.32a2.77,2.77,0,0,0,1.86-.5l2.8-1.985a2.769,2.769,0,0,1,3.2,0l2.8,1.985a2.772,2.772,0,0,0,1.86.5l3.417-.32a2.767,2.767,0,0,1,2.775,1.6l1.432,3.118a2.77,2.77,0,0,0,1.362,1.362l3.119,1.431a2.77,2.77,0,0,1,1.6,2.776l-.32,3.416a2.77,2.77,0,0,0,.5,1.86l1.985,2.8a2.77,2.77,0,0,1,0,3.2" transform="translate(-191.324 -191.31)" fill="#fff"/>
      <path id="Path_175" data-name="Path 175" d="M631.769,310.027l8.719-26.77h5.567l8.719,26.77h-4.994l-2.087-7.245h-9.005l-2.088,7.245Zm8.964-14.245-.941,3.275h6.836l-.942-3.275q-.656-2.129-1.248-4.38t-1.167-4.461h-.164q-.574,2.251-1.147,4.482t-1.228,4.359" transform="translate(-529.049 -251.981)" fill="#fff"/>
      <path id="Path_176" data-name="Path 176" d="M753.166,334V313.9h3.888l.327,3.561h.164a8.432,8.432,0,0,1,2.579-3.009,5.67,5.67,0,0,1,5.4-.634l-.819,4.093a8.916,8.916,0,0,0-.982-.245,6.378,6.378,0,0,0-1.105-.082,4.383,4.383,0,0,0-2.5.921,7.108,7.108,0,0,0-2.251,3.213V334Z" transform="translate(-625.559 -275.951)" fill="#fff"/>
      <path id="Path_177" data-name="Path 177" d="M822.411,342.879a16.01,16.01,0,0,1-3.336-.327,8.76,8.76,0,0,1-2.641-.982,5.153,5.153,0,0,1-1.74-1.638,4.283,4.283,0,0,1,.1-4.646,6.888,6.888,0,0,1,2.128-1.944v-.164a4.074,4.074,0,0,1-1.289-1.31,3.8,3.8,0,0,1-.512-2.046,3.659,3.659,0,0,1,.675-2.149,6.5,6.5,0,0,1,1.535-1.576v-.164a7.175,7.175,0,0,1-1.822-2.149,6.194,6.194,0,0,1-.8-3.173,6.945,6.945,0,0,1,.655-3.069,6.854,6.854,0,0,1,1.74-2.273,7.427,7.427,0,0,1,2.517-1.391,9.646,9.646,0,0,1,3.029-.471,8.472,8.472,0,0,1,1.576.143,10.616,10.616,0,0,1,1.371.348h7.2v3.479h-3.684a4.775,4.775,0,0,1,.818,1.453,5.544,5.544,0,0,1,.328,1.944,6.885,6.885,0,0,1-.594,2.947,6.138,6.138,0,0,1-1.617,2.129,7.125,7.125,0,0,1-2.415,1.31,9.648,9.648,0,0,1-2.988.45,7.767,7.767,0,0,1-1.351-.122,6.7,6.7,0,0,1-1.392-.41,4.285,4.285,0,0,0-.717.819,2,2,0,0,0-.266,1.105,1.55,1.55,0,0,0,.717,1.35,4.786,4.786,0,0,0,2.558.491h3.561a10.49,10.49,0,0,1,5.5,1.167,4.127,4.127,0,0,1,1.863,3.786,5.477,5.477,0,0,1-.758,2.784,6.882,6.882,0,0,1-2.149,2.251,11.485,11.485,0,0,1-3.377,1.494,16.552,16.552,0,0,1-4.441.553m.737-3.069a7.208,7.208,0,0,0,3.95-.963,2.726,2.726,0,0,0,1.494-2.271,1.576,1.576,0,0,0-.921-1.6,6.716,6.716,0,0,0-2.64-.409h-2.743a11.14,11.14,0,0,1-2.742-.287,3.356,3.356,0,0,0-1.555,2.661,2.325,2.325,0,0,0,1.372,2.108,7.886,7.886,0,0,0,3.786.758m-.491-15.145a3.317,3.317,0,0,0,2.456-1.044,4.123,4.123,0,0,0,1.023-3.008,4.052,4.052,0,0,0-1-2.926,3.3,3.3,0,0,0-2.476-1.044,3.4,3.4,0,0,0-2.5,1.023,3.989,3.989,0,0,0-1.023,2.947,4.119,4.119,0,0,0,1.023,3.008,3.363,3.363,0,0,0,2.5,1.044" transform="translate(-673.97 -275.951)" fill="#fff"/>
      <path id="Path_178" data-name="Path 178" d="M919.8,334.488a10.437,10.437,0,0,1-3.888-.716,9.211,9.211,0,0,1-3.152-2.067,9.429,9.429,0,0,1-2.108-3.295,12.172,12.172,0,0,1-.757-4.441,11.926,11.926,0,0,1,.778-4.421,10.137,10.137,0,0,1,2.067-3.315,9.151,9.151,0,0,1,2.968-2.088,8.463,8.463,0,0,1,3.438-.737,8.74,8.74,0,0,1,3.6.7,7.039,7.039,0,0,1,2.6,1.965,8.641,8.641,0,0,1,1.576,3.029,13.257,13.257,0,0,1,.532,3.847q0,.7-.061,1.311a8.743,8.743,0,0,1-.143.982H914.484a6.482,6.482,0,0,0,1.9,4.154,5.714,5.714,0,0,0,4.031,1.453,7.4,7.4,0,0,0,2.436-.389,10.778,10.778,0,0,0,2.23-1.085l1.6,2.947a14.462,14.462,0,0,1-3.193,1.555,11.1,11.1,0,0,1-3.684.614m-5.362-12.443h8.923a5.965,5.965,0,0,0-1-3.663,3.623,3.623,0,0,0-3.091-1.331,4.46,4.46,0,0,0-3.152,1.269,6.017,6.017,0,0,0-1.678,3.725" transform="translate(-750.16 -275.951)" fill="#fff"/>
      <path id="Path_179" data-name="Path 179" d="M1012.524,334V313.9h3.888l.327,2.7h.164a15.963,15.963,0,0,1,2.926-2.251,7,7,0,0,1,3.664-.942,5.383,5.383,0,0,1,4.708,2.068,10.1,10.1,0,0,1,1.473,5.914V334h-4.707V322a6.257,6.257,0,0,0-.737-3.52,2.772,2.772,0,0,0-2.415-1.023,4.233,4.233,0,0,0-2.313.634,14.751,14.751,0,0,0-2.271,1.862V334Z" transform="translate(-831.747 -275.951)" fill="#fff"/>
      <path id="Path_180" data-name="Path 180" d="M1118.01,315.123a7.344,7.344,0,0,1-2.967-.533,5.02,5.02,0,0,1-1.965-1.493,6.157,6.157,0,0,1-1.105-2.293,11.688,11.688,0,0,1-.348-2.967v-9.578h-2.865v-3.52l3.111-.2.572-5.485h3.93v5.485h5.117v3.724h-5.117v9.578q0,3.521,2.825,3.52a5,5,0,0,0,1.084-.122,5.112,5.112,0,0,0,1-.327l.818,3.479a15.523,15.523,0,0,1-1.862.512,10.614,10.614,0,0,1-2.231.225" transform="translate(-908.254 -256.586)" fill="#fff"/>
      <path id="Path_181" data-name="Path 181" d="M1186.739,277.838a3,3,0,0,1-2.087-.737,2.464,2.464,0,0,1-.819-1.924,2.529,2.529,0,0,1,.819-1.944,3.256,3.256,0,0,1,4.175,0,2.532,2.532,0,0,1,.819,1.944,2.467,2.467,0,0,1-.819,1.924,3,3,0,0,1-2.088.737m-2.374,3.52h4.707v20.1h-4.707Z" transform="translate(-967.936 -243.41)" fill="#fff"/>
      <path id="Path_182" data-name="Path 182" d="M1233.748,334V313.9h3.888l.328,2.7h.164a15.953,15.953,0,0,1,2.926-2.251,7,7,0,0,1,3.663-.942,5.382,5.382,0,0,1,4.708,2.068,10.1,10.1,0,0,1,1.473,5.914V334h-4.707V322a6.256,6.256,0,0,0-.737-3.52,2.772,2.772,0,0,0-2.415-1.023,4.232,4.232,0,0,0-2.313.634,14.751,14.751,0,0,0-2.271,1.862V334Z" transform="translate(-1007.618 -275.951)" fill="#fff"/>
      <path id="Path_183" data-name="Path 183" d="M1341.31,334.489a5.85,5.85,0,0,1-4.3-1.617,5.741,5.741,0,0,1-1.637-4.277,5.884,5.884,0,0,1,.675-2.845,5.821,5.821,0,0,1,2.128-2.149,14.133,14.133,0,0,1,3.684-1.515,33.685,33.685,0,0,1,5.342-.941,7.62,7.62,0,0,0-.225-1.494,3.442,3.442,0,0,0-.614-1.269,2.853,2.853,0,0,0-1.126-.86,4.256,4.256,0,0,0-1.719-.307,7.616,7.616,0,0,0-2.885.573,19.429,19.429,0,0,0-2.763,1.391l-1.719-3.151a20.131,20.131,0,0,1,3.766-1.842,12.8,12.8,0,0,1,4.5-.777,6.919,6.919,0,0,1,5.629,2.231q1.862,2.231,1.862,6.447V334h-3.888l-.327-2.211h-.165a14.743,14.743,0,0,1-2.885,1.924,7.292,7.292,0,0,1-3.337.778m1.515-3.684a4.415,4.415,0,0,0,2.231-.573,11.954,11.954,0,0,0,2.149-1.638v-4.5a21.618,21.618,0,0,0-3.438.655,9.989,9.989,0,0,0-2.251.921,3.3,3.3,0,0,0-1.228,1.167,2.8,2.8,0,0,0-.368,1.392,2.293,2.293,0,0,0,.818,1.964,3.384,3.384,0,0,0,2.088.614" transform="translate(-1088.411 -275.951)" fill="#fff"/>
    </g>
  </g>
</svg>
