<svg id="Grupo_10" data-name="Grupo 10" xmlns="http://www.w3.org/2000/svg" xmlns:xlink="http://www.w3.org/1999/xlink" width="316.504" height="60" viewBox="0 0 316.504 60">
  <defs>
    <clipPath id="clip-path">
      <rect id="Rect치ngulo_4" data-name="Rect치ngulo 4" width="316.504" height="60" fill="none"/>
    </clipPath>
    <clipPath id="clip-path-3">
      <rect id="Rect치ngulo_1" data-name="Rect치ngulo 1" width="37.185" height="25.726" fill="none"/>
    </clipPath>
  </defs>
  <g id="Grupo_9" data-name="Grupo 9" clip-path="url(#clip-path)">
    <g id="Grupo_8" data-name="Grupo 8">
      <g id="Grupo_7" data-name="Grupo 7" clip-path="url(#clip-path)">
        <path id="Trazado_1" data-name="Trazado 1" d="M449.532,116.27V101.622h2.049l.211,2.11h.09a11.963,11.963,0,0,1,2.215-1.763,5.073,5.073,0,0,1,2.7-.708,3.939,3.939,0,0,1,3.391,1.447,7.154,7.154,0,0,1,1.07,4.279v9.283h-2.472v-8.951a5.23,5.23,0,0,0-.663-3,2.424,2.424,0,0,0-2.11-.92,3.6,3.6,0,0,0-2.019.573A13.1,13.1,0,0,0,452,105.661V116.27Z" transform="translate(-279.769 -63.02)" fill="#003278"/>
        <path id="Trazado_2" data-name="Trazado 2" d="M492.682,110.473a4.778,4.778,0,0,1-1.974-.362,3.394,3.394,0,0,1-1.3-.994,3.872,3.872,0,0,1-.708-1.537,8.754,8.754,0,0,1-.211-1.989V97.482h-2.17V95.614l2.29-.151.3-4.1h2.079v4.1h3.948v2.019h-3.948v8.137a3.734,3.734,0,0,0,.5,2.095,1.97,1.97,0,0,0,1.763.739,3.26,3.26,0,0,0,.844-.121,6.275,6.275,0,0,0,.813-.27l.482,1.868a12.9,12.9,0,0,1-1.311.377,6.166,6.166,0,0,1-1.4.166" transform="translate(-302.666 -56.862)" fill="#003278"/>
        <path id="Trazado_3" data-name="Trazado 3" d="M516.211,88.972a1.751,1.751,0,0,1-1.221-.452,1.585,1.585,0,0,1,0-2.306,1.925,1.925,0,0,1,2.441,0,1.585,1.585,0,0,1,0,2.306,1.752,1.752,0,0,1-1.221.452m-1.265,3.014h2.471v14.648h-2.471Z" transform="translate(-320.198 -53.384)" fill="#003278"/>
        <path id="Trazado_4" data-name="Trazado 4" d="M533.088,116.27V101.622h2.049l.211,2.11h.091a11.962,11.962,0,0,1,2.215-1.763,5.074,5.074,0,0,1,2.7-.708,3.938,3.938,0,0,1,3.391,1.447,7.154,7.154,0,0,1,1.07,4.279v9.283H542.34v-8.951a5.23,5.23,0,0,0-.663-3,2.424,2.424,0,0,0-2.109-.92,3.6,3.6,0,0,0-2.019.573,13.1,13.1,0,0,0-1.989,1.687V116.27Z" transform="translate(-331.771 -63.02)" fill="#003278"/>
        <path id="Trazado_5" data-name="Trazado 5" d="M576.394,116.631a4.434,4.434,0,0,1-3.059-1.086,3.9,3.9,0,0,1-1.221-3.074,4.067,4.067,0,0,1,2.14-3.691,17.683,17.683,0,0,1,6.841-1.793,6.734,6.734,0,0,0-.136-1.356,3.4,3.4,0,0,0-.466-1.175,2.462,2.462,0,0,0-.92-.829,3.129,3.129,0,0,0-1.492-.316,5.94,5.94,0,0,0-2.381.482,11.613,11.613,0,0,0-1.989,1.085l-.964-1.718a16.018,16.018,0,0,1,2.5-1.281,8.353,8.353,0,0,1,3.255-.617,4.5,4.5,0,0,1,3.887,1.642,7.246,7.246,0,0,1,1.206,4.384v8.982h-2.049l-.211-1.748h-.091a12.367,12.367,0,0,1-2.26,1.492,5.612,5.612,0,0,1-2.592.618m.723-1.989a4.178,4.178,0,0,0,1.989-.5,10.019,10.019,0,0,0,1.989-1.462v-4.069a25,25,0,0,0-3.089.573,8.168,8.168,0,0,0-2.019.783,3.041,3.041,0,0,0-1.116,1.04,2.476,2.476,0,0,0-.347,1.281,2.074,2.074,0,0,0,.753,1.808,3.062,3.062,0,0,0,1.838.543" transform="translate(-356.059 -63.02)" fill="#003278"/>
        <path id="Trazado_6" data-name="Trazado 6" d="M301.255,108.421l6.691-19.771h2.833l6.691,19.771h-2.682l-1.869-6.028h-7.2l-1.9,6.028Zm6.028-11.061-.934,3.014h5.937l-.935-3.014q-.543-1.658-1.025-3.3t-.964-3.36h-.12q-.452,1.718-.935,3.36t-1.024,3.3" transform="translate(-187.488 -55.172)" fill="#003278"/>
        <path id="Trazado_7" data-name="Trazado 7" d="M348.739,116.27V101.622h2.049l.211,2.653h.091a6.768,6.768,0,0,1,1.823-2.2,3.777,3.777,0,0,1,2.336-.813,3.9,3.9,0,0,1,1.567.3l-.482,2.17a5.781,5.781,0,0,0-.663-.181,3.948,3.948,0,0,0-.753-.06,3.283,3.283,0,0,0-1.944.754,6,6,0,0,0-1.764,2.622v9.4Z" transform="translate(-217.04 -63.02)" fill="#003278"/>
        <path id="Trazado_8" data-name="Trazado 8" d="M377.3,123.02a11.11,11.11,0,0,1-2.472-.256,6.025,6.025,0,0,1-1.913-.769,3.814,3.814,0,0,1-1.236-1.236,3.2,3.2,0,0,1-.437-1.688,3.116,3.116,0,0,1,.573-1.778,6.028,6.028,0,0,1,1.567-1.537v-.121a2.865,2.865,0,0,1-.919-.919,2.924,2.924,0,0,1,.135-3.089,4.623,4.623,0,0,1,1.085-1.086v-.12a6.007,6.007,0,0,1-1.311-1.613,4.559,4.559,0,0,1-.588-2.336,5.214,5.214,0,0,1,.437-2.17,4.906,4.906,0,0,1,1.191-1.642,5.26,5.26,0,0,1,1.763-1.04,6.267,6.267,0,0,1,2.125-.361,5.8,5.8,0,0,1,1.13.105,7.005,7.005,0,0,1,.949.256h5.093v1.9h-3.013a4.308,4.308,0,0,1,1.205,3.014,5.184,5.184,0,0,1-.422,2.125,4.646,4.646,0,0,1-1.145,1.6,5.239,5.239,0,0,1-1.7,1.01,6.013,6.013,0,0,1-2.095.362,4.833,4.833,0,0,1-1.115-.136,5.509,5.509,0,0,1-1.085-.377,3.543,3.543,0,0,0-.663.739,1.787,1.787,0,0,0-.271,1.01,1.426,1.426,0,0,0,.542,1.145,3.337,3.337,0,0,0,2.05.452h2.833a7.163,7.163,0,0,1,3.843.829,2.941,2.941,0,0,1,1.281,2.667,3.937,3.937,0,0,1-.512,1.944,4.982,4.982,0,0,1-1.477,1.613,7.761,7.761,0,0,1-2.336,1.1,10.842,10.842,0,0,1-3.089.407m.362-1.718a6.715,6.715,0,0,0,1.914-.256,5.326,5.326,0,0,0,1.461-.663,3.11,3.11,0,0,0,.935-.949,2.115,2.115,0,0,0,.331-1.115,1.452,1.452,0,0,0-.754-1.416,4.884,4.884,0,0,0-2.2-.392h-2.532c-.281,0-.588-.016-.919-.046a4.71,4.71,0,0,1-.98-.2,4,4,0,0,0-1.145,1.206,2.536,2.536,0,0,0-.361,1.266,2.11,2.11,0,0,0,1.13,1.868,5.957,5.957,0,0,0,3.119.693m-.362-11.332a2.959,2.959,0,0,0,1.191-.241,3.065,3.065,0,0,0,.994-.693,3.134,3.134,0,0,0,.678-1.1,4.171,4.171,0,0,0,.241-1.461,3.37,3.37,0,0,0-.9-2.516,3.165,3.165,0,0,0-4.4,0,3.369,3.369,0,0,0-.9,2.516,4.171,4.171,0,0,0,.241,1.461,3.134,3.134,0,0,0,.678,1.1,3.054,3.054,0,0,0,.995.693,2.957,2.957,0,0,0,1.19.241" transform="translate(-231.044 -63.02)" fill="#003278"/>
        <path id="Trazado_9" data-name="Trazado 9" d="M416.333,116.631a7.17,7.17,0,0,1-2.758-.528,6.519,6.519,0,0,1-2.23-1.506,6.975,6.975,0,0,1-1.492-2.4,8.968,8.968,0,0,1-.543-3.225,8.869,8.869,0,0,1,.558-3.24,7.585,7.585,0,0,1,1.477-2.426,6.406,6.406,0,0,1,2.094-1.522,5.918,5.918,0,0,1,2.442-.527,6.133,6.133,0,0,1,2.486.482,4.858,4.858,0,0,1,1.838,1.386,6.38,6.38,0,0,1,1.13,2.17,9.582,9.582,0,0,1,.392,2.833q0,.393-.015.769a3.811,3.811,0,0,1-.076.648h-9.886a5.719,5.719,0,0,0,1.461,3.722,4.52,4.52,0,0,0,3.421,1.371,5.758,5.758,0,0,0,1.944-.316,8.569,8.569,0,0,0,1.7-.829l.874,1.628a12.5,12.5,0,0,1-2.14,1.055,7.438,7.438,0,0,1-2.682.452m-4.611-8.861h7.836a5.246,5.246,0,0,0-.95-3.39,3.253,3.253,0,0,0-2.667-1.16,3.77,3.77,0,0,0-1.492.3,3.91,3.91,0,0,0-1.281.889,4.874,4.874,0,0,0-.95,1.432,6.438,6.438,0,0,0-.5,1.929" transform="translate(-254.737 -63.02)" fill="#003278"/>
        <path id="Trazado_10" data-name="Trazado 10" d="M308.261,26.486V4.752h5.816q4.985,0,7.776,2.692t2.792,8.075a14.486,14.486,0,0,1-.715,4.752,9.116,9.116,0,0,1-2.06,3.44,8.612,8.612,0,0,1-3.257,2.077,12.6,12.6,0,0,1-4.337.7Zm3.855-3.124h1.695a6.625,6.625,0,0,0,5.1-1.911q1.778-1.911,1.778-5.932,0-3.988-1.795-5.816a6.8,6.8,0,0,0-5.085-1.828h-1.695Z" transform="translate(-191.848 -2.957)" fill="#00bac1"/>
        <path id="Trazado_11" data-name="Trazado 11" d="M361.4,4.353a2.435,2.435,0,0,1-1.695-.6,2,2,0,0,1-.665-1.562A2.053,2.053,0,0,1,359.7.615a2.644,2.644,0,0,1,3.39,0,2.054,2.054,0,0,1,.665,1.579,2,2,0,0,1-.665,1.562,2.437,2.437,0,0,1-1.695.6m-1.928,2.858h3.822V23.529h-3.822Z" transform="translate(-223.449)" fill="#00bac1"/>
        <path id="Trazado_12" data-name="Trazado 12" d="M384.911,41.967A12.964,12.964,0,0,1,382.2,41.7a7.1,7.1,0,0,1-2.144-.8,4.188,4.188,0,0,1-1.412-1.33,3.477,3.477,0,0,1,.083-3.772,5.592,5.592,0,0,1,1.728-1.579v-.133a3.305,3.305,0,0,1-1.047-1.064A3.078,3.078,0,0,1,379,31.366a2.967,2.967,0,0,1,.548-1.745,5.291,5.291,0,0,1,1.246-1.28v-.133a5.837,5.837,0,0,1-1.479-1.745,5.023,5.023,0,0,1-.648-2.576A5.64,5.64,0,0,1,379.2,21.4a5.57,5.57,0,0,1,1.412-1.844,6.013,6.013,0,0,1,2.044-1.13,7.835,7.835,0,0,1,2.459-.382,6.885,6.885,0,0,1,1.279.116,8.635,8.635,0,0,1,1.113.282h5.849v2.825h-2.991a3.872,3.872,0,0,1,.665,1.18,4.5,4.5,0,0,1,.266,1.579,5.594,5.594,0,0,1-.482,2.393,4.983,4.983,0,0,1-1.313,1.728,5.775,5.775,0,0,1-1.961,1.063,7.818,7.818,0,0,1-2.426.366,6.306,6.306,0,0,1-1.1-.1,5.415,5.415,0,0,1-1.13-.332,3.479,3.479,0,0,0-.582.665,1.63,1.63,0,0,0-.216.9,1.259,1.259,0,0,0,.582,1.1,3.888,3.888,0,0,0,2.077.4h2.891a8.517,8.517,0,0,1,4.47.948,3.351,3.351,0,0,1,1.512,3.074,4.447,4.447,0,0,1-.615,2.26,5.6,5.6,0,0,1-1.745,1.828,9.343,9.343,0,0,1-2.742,1.213,13.443,13.443,0,0,1-3.606.448m.6-2.492a5.852,5.852,0,0,0,3.207-.781,2.214,2.214,0,0,0,1.213-1.844,1.278,1.278,0,0,0-.748-1.3,5.445,5.445,0,0,0-2.143-.332h-2.227a9.061,9.061,0,0,1-2.227-.233,2.724,2.724,0,0,0-1.263,2.16,1.889,1.889,0,0,0,1.113,1.712,6.406,6.406,0,0,0,3.074.615m-.4-12.3a2.693,2.693,0,0,0,1.994-.847,3.348,3.348,0,0,0,.831-2.443,3.291,3.291,0,0,0-.814-2.376,2.677,2.677,0,0,0-2.011-.847,2.758,2.758,0,0,0-2.027.83,3.24,3.24,0,0,0-.831,2.393,3.347,3.347,0,0,0,.831,2.443,2.73,2.73,0,0,0,2.027.847" transform="translate(-235.333 -11.227)" fill="#00bac1"/>
        <path id="Trazado_13" data-name="Trazado 13" d="M425.811,4.353a2.435,2.435,0,0,1-1.695-.6,2,2,0,0,1-.665-1.562,2.053,2.053,0,0,1,.665-1.579,2.644,2.644,0,0,1,3.39,0,2.054,2.054,0,0,1,.665,1.579,2,2,0,0,1-.665,1.562,2.437,2.437,0,0,1-1.695.6m-1.928,2.858H427.7V23.529h-3.822Z" transform="translate(-263.537)" fill="#00bac1"/>
        <path id="Trazado_14" data-name="Trazado 14" d="M448.3,28.472a5.973,5.973,0,0,1-2.409-.432,4.078,4.078,0,0,1-1.6-1.213,5.014,5.014,0,0,1-.9-1.861,9.519,9.519,0,0,1-.282-2.41V14.78h-2.326V11.923l2.526-.167.465-4.453h3.19v4.453h4.154V14.78h-4.154v7.776q0,2.859,2.293,2.858a4.076,4.076,0,0,0,.881-.1,4.167,4.167,0,0,0,.814-.266l.665,2.824a12.8,12.8,0,0,1-1.512.416,8.622,8.622,0,0,1-1.811.182" transform="translate(-274.327 -4.545)" fill="#00bac1"/>
        <path id="Trazado_15" data-name="Trazado 15" d="M475.7,35.154a4.748,4.748,0,0,1-3.489-1.313,4.661,4.661,0,0,1-1.329-3.473,4.778,4.778,0,0,1,.548-2.31,4.73,4.73,0,0,1,1.728-1.744,11.49,11.49,0,0,1,2.991-1.23,27.371,27.371,0,0,1,4.337-.764,6.168,6.168,0,0,0-.183-1.213,2.789,2.789,0,0,0-.5-1.031,2.319,2.319,0,0,0-.914-.7,3.459,3.459,0,0,0-1.4-.249,6.175,6.175,0,0,0-2.343.466,15.793,15.793,0,0,0-2.243,1.13l-1.4-2.559a16.382,16.382,0,0,1,3.057-1.5,10.393,10.393,0,0,1,3.656-.631,5.614,5.614,0,0,1,4.569,1.811,7.973,7.973,0,0,1,1.512,5.234v9.671h-3.157l-.266-1.795h-.133a11.938,11.938,0,0,1-2.343,1.562,5.91,5.91,0,0,1-2.708.631m1.23-2.991a3.583,3.583,0,0,0,1.811-.465,9.738,9.738,0,0,0,1.745-1.33V26.713a17.457,17.457,0,0,0-2.792.532,8.078,8.078,0,0,0-1.828.747,2.668,2.668,0,0,0-1,.947,2.27,2.27,0,0,0-.3,1.13,1.864,1.864,0,0,0,.665,1.6,2.747,2.747,0,0,0,1.695.5" transform="translate(-293.057 -11.227)" fill="#00bac1"/>
        <path id="Trazado_16" data-name="Trazado 16" d="M520.1,24.036a3.232,3.232,0,0,1-2.891-1.23,5.922,5.922,0,0,1-.831-3.356V.175H520.2V19.65a1.421,1.421,0,0,0,.266.98.775.775,0,0,0,.565.283h.249a1.4,1.4,0,0,0,.349-.066l.5,2.858a5.163,5.163,0,0,1-2.027.332" transform="translate(-321.371 -0.109)" fill="#00bac1"/>
        <path id="Trazado_17" data-name="Trazado 17" d="M553.424,34.756V18.439h3.157l.266,2.193h.133a12.947,12.947,0,0,1,2.376-1.828,5.689,5.689,0,0,1,2.974-.764,4.37,4.37,0,0,1,3.822,1.678,8.2,8.2,0,0,1,1.2,4.8V34.756h-3.822V25.019a5.079,5.079,0,0,0-.6-2.858,2.252,2.252,0,0,0-1.961-.831,3.437,3.437,0,0,0-1.878.515,11.994,11.994,0,0,0-1.844,1.512v11.4Z" transform="translate(-344.427 -11.227)" fill="#00bac1"/>
        <path id="Trazado_18" data-name="Trazado 18" d="M605.432,35.154a7.724,7.724,0,0,1-2.925-.565,7.266,7.266,0,0,1-2.476-1.661,7.952,7.952,0,0,1-1.711-2.692,9.776,9.776,0,0,1-.631-3.622,9.781,9.781,0,0,1,.631-3.623,7.946,7.946,0,0,1,1.711-2.691,7.527,7.527,0,0,1,5.4-2.26,7.656,7.656,0,0,1,2.941.582,7.273,7.273,0,0,1,2.476,1.678,8.306,8.306,0,0,1,1.711,2.691,9.56,9.56,0,0,1,.648,3.623,9.555,9.555,0,0,1-.648,3.622,8.312,8.312,0,0,1-1.711,2.692,7.065,7.065,0,0,1-2.476,1.661,7.85,7.85,0,0,1-2.941.565m0-3.123a3.261,3.261,0,0,0,2.824-1.479,6.767,6.767,0,0,0,1.03-3.938,6.833,6.833,0,0,0-1.03-3.971,3.262,3.262,0,0,0-2.824-1.479,3.221,3.221,0,0,0-2.809,1.479,6.914,6.914,0,0,0-1.014,3.971,6.847,6.847,0,0,0,1.014,3.938,3.22,3.22,0,0,0,2.809,1.479" transform="translate(-371.975 -11.227)" fill="#00bac1"/>
        <path id="Trazado_19" data-name="Trazado 19" d="M646.616,34.756V18.439h3.157l.266,2.227h.133a11.445,11.445,0,0,1,2.243-1.861,5.035,5.035,0,0,1,2.742-.764,4.882,4.882,0,0,1,2.875.764,4.75,4.75,0,0,1,1.645,2.16,13.124,13.124,0,0,1,2.426-2.094,5.032,5.032,0,0,1,2.825-.831,4.423,4.423,0,0,1,3.822,1.678,8.032,8.032,0,0,1,1.23,4.8V34.756h-3.855V25.019a4.969,4.969,0,0,0-.615-2.858,2.185,2.185,0,0,0-1.878-.831q-1.529,0-3.423,2.027v11.4h-3.822V25.019a4.969,4.969,0,0,0-.615-2.858,2.222,2.222,0,0,0-1.911-.831q-1.529,0-3.423,2.027v11.4Z" transform="translate(-402.426 -11.227)" fill="#00bac1"/>
        <path id="Trazado_20" data-name="Trazado 20" d="M721.129,35.154a4.748,4.748,0,0,1-3.49-1.313,4.661,4.661,0,0,1-1.329-3.473,4.777,4.777,0,0,1,.548-2.31,4.729,4.729,0,0,1,1.728-1.744,11.49,11.49,0,0,1,2.991-1.23,27.372,27.372,0,0,1,4.337-.764,6.166,6.166,0,0,0-.183-1.213,2.789,2.789,0,0,0-.5-1.031,2.319,2.319,0,0,0-.914-.7,3.46,3.46,0,0,0-1.4-.249,6.174,6.174,0,0,0-2.343.466,15.8,15.8,0,0,0-2.243,1.13l-1.4-2.559a16.382,16.382,0,0,1,3.057-1.5,10.393,10.393,0,0,1,3.656-.631,5.614,5.614,0,0,1,4.569,1.811,7.973,7.973,0,0,1,1.512,5.234v9.671h-3.157l-.266-1.795h-.133a11.937,11.937,0,0,1-2.343,1.562,5.91,5.91,0,0,1-2.708.631m1.23-2.991a3.583,3.583,0,0,0,1.811-.465,9.738,9.738,0,0,0,1.745-1.33V26.713a17.459,17.459,0,0,0-2.792.532,8.077,8.077,0,0,0-1.828.747,2.668,2.668,0,0,0-1,.947,2.27,2.27,0,0,0-.3,1.13,1.864,1.864,0,0,0,.665,1.6,2.747,2.747,0,0,0,1.695.5" transform="translate(-445.8 -11.227)" fill="#00bac1"/>
        <path id="Trazado_21" data-name="Trazado 21" d="M765.879,24.037a5.968,5.968,0,0,1-4.9-2.243,9.777,9.777,0,0,1-1.811-6.3,10.426,10.426,0,0,1,.582-3.59,8.37,8.37,0,0,1,1.545-2.692A6.907,6.907,0,0,1,763.5,7.52a5.88,5.88,0,0,1,2.575-.6,5.247,5.247,0,0,1,2.36.481,9.491,9.491,0,0,1,1.927,1.313l-.133-2.625V.176h3.822V23.638H770.9l-.266-1.761H770.5a8.621,8.621,0,0,1-2.094,1.528,5.335,5.335,0,0,1-2.526.631m.931-3.157a4.559,4.559,0,0,0,3.423-1.828v-7.61a5.42,5.42,0,0,0-1.678-1.064,4.749,4.749,0,0,0-1.645-.3,3.311,3.311,0,0,0-2.692,1.4,6.329,6.329,0,0,0-1.1,3.988,7.129,7.129,0,0,0,.947,4.038,3.12,3.12,0,0,0,2.742,1.379" transform="translate(-472.472 -0.11)" fill="#00bac1"/>
        <path id="Trazado_22" data-name="Trazado 22" d="M811.107,35.154a9.035,9.035,0,0,1-3.34-.648,10.789,10.789,0,0,1-2.841-1.611l1.795-2.46a10.334,10.334,0,0,0,2.177,1.346,5.675,5.675,0,0,0,2.343.482,2.941,2.941,0,0,0,1.961-.548,1.785,1.785,0,0,0,.631-1.413,1.39,1.39,0,0,0-.3-.881,2.872,2.872,0,0,0-.8-.681,7.644,7.644,0,0,0-1.13-.549q-.632-.249-1.263-.515-.8-.3-1.628-.7a6.547,6.547,0,0,1-1.479-.964,4.854,4.854,0,0,1-1.063-1.313,3.6,3.6,0,0,1-.415-1.778,4.419,4.419,0,0,1,1.6-3.523,6.487,6.487,0,0,1,4.353-1.362,7.523,7.523,0,0,1,3.057.6A11.373,11.373,0,0,1,817.122,20l-1.761,2.326a9.146,9.146,0,0,0-1.745-1.013,4.59,4.59,0,0,0-1.844-.383,2.679,2.679,0,0,0-1.811.515,1.64,1.64,0,0,0-.582,1.279,1.3,1.3,0,0,0,.282.847,2.607,2.607,0,0,0,.748.615,7.5,7.5,0,0,0,1.08.5q.615.233,1.279.466.83.3,1.662.681a6.84,6.84,0,0,1,1.512.947,4.326,4.326,0,0,1,1.1,1.38,4.233,4.233,0,0,1,.415,1.944,4.72,4.72,0,0,1-.415,1.977,4.558,4.558,0,0,1-1.213,1.6,5.905,5.905,0,0,1-1.994,1.08,8.6,8.6,0,0,1-2.725.4" transform="translate(-500.951 -11.227)" fill="#00bac1"/>
        <path id="Trazado_23" data-name="Trazado 23" d="M197.184,5.022c-.726,8.336,12.554,17.423,12.54,25.726H185.108c.023-8.286-13.274-17.407-12.54-25.726Z" transform="translate(-107.381 -3.125)" fill="#00bac1"/>
        <g id="Grupo_3" data-name="Grupo 3" transform="translate(65.158 27.624)" opacity="0.7">
          <g id="Grupo_2" data-name="Grupo 2">
            <g id="Grupo_1" data-name="Grupo 1" clip-path="url(#clip-path-3)">
              <path id="Trazado_24" data-name="Trazado 24" d="M197.184,98.873c-.726-8.336,12.554-17.423,12.54-25.726H185.108c.023,8.286-13.274,17.407-12.54,25.726Z" transform="translate(-172.539 -73.147)" fill="#00bac1"/>
            </g>
          </g>
        </g>
        <path id="Trazado_25" data-name="Trazado 25" d="M12.54,98.873C13.266,90.537-.014,81.451,0,73.147H24.616c-.023,8.286,13.274,17.407,12.54,25.726Z" transform="translate(0 -45.524)" fill="#00bac1"/>
        <g id="Grupo_6" data-name="Grupo 6" transform="translate(0 1.897)" opacity="0.7">
          <g id="Grupo_5" data-name="Grupo 5">
            <g id="Grupo_4" data-name="Grupo 4" clip-path="url(#clip-path-3)">
              <path id="Trazado_26" data-name="Trazado 26" d="M12.54,5.022C13.266,13.358-.014,22.445,0,30.748H24.616c-.023-8.286,13.274-17.407,12.54-25.726Z" transform="translate(0 -5.022)" fill="#00bac1"/>
            </g>
          </g>
        </g>
        <path id="Trazado_27" data-name="Trazado 27" d="M131.152,62.08a6.714,6.714,0,1,1-6.714-6.714,6.714,6.714,0,0,1,6.714,6.714" transform="translate(-73.266 -34.457)" fill="#003278"/>
      </g>
    </g>
  </g>
</svg>
