<svg id="Group_159" data-name="Group 159" xmlns="http://www.w3.org/2000/svg" xmlns:xlink="http://www.w3.org/1999/xlink" width="179.957" height="25.738" viewBox="0 0 179.957 25.738">
  <defs>
    <clipPath id="clip-path">
      <rect id="Rectangle_93" data-name="Rectangle 93" width="179.957" height="25.738" fill="#585858"/>
    </clipPath>
    <clipPath id="clip-path-3">
      <rect id="Rectangle_91" data-name="Rectangle 91" width="6.372" height="19.823" fill="#585858"/>
    </clipPath>
  </defs>
  <g id="Group_158" data-name="Group 158" clip-path="url(#clip-path)">
    <g id="Group_157" data-name="Group 157">
      <g id="Group_156" data-name="Group 156" clip-path="url(#clip-path)">
        <path id="Path_184" data-name="Path 184" d="M70.143,2.112a1.587,1.587,0,0,1,.424,1.129V19.7a1.688,1.688,0,0,1-1.722,1.722,2.439,2.439,0,0,1-.776-.127,1.1,1.1,0,0,1-.551-.353L57.156,7.787V19.843a1.559,1.559,0,0,1-.438,1.129,1.52,1.52,0,0,1-1.143.452,1.44,1.44,0,0,1-1.1-.452,1.587,1.587,0,0,1-.424-1.129V3.382A1.688,1.688,0,0,1,55.772,1.66a2.161,2.161,0,0,1,.833.169,1.344,1.344,0,0,1,.607.452l10.277,13.1V3.241a1.557,1.557,0,0,1,.438-1.129,1.486,1.486,0,0,1,1.115-.452,1.441,1.441,0,0,1,1.1.452" transform="translate(-44.857 -1.378)" fill="#585858"/>
        <path id="Path_185" data-name="Path 185" d="M180.809,2.521A6.379,6.379,0,0,1,182.9,4.836a6.547,6.547,0,0,1,.791,3.176,6.57,6.57,0,0,1-.791,3.162,6.342,6.342,0,0,1-2.089,2.329,4.874,4.874,0,0,1-2.739.861h-4.913V19.7a1.74,1.74,0,0,1-.452,1.242,1.552,1.552,0,0,1-1.186.48,1.5,1.5,0,0,1-1.158-.494,1.75,1.75,0,0,1-.452-1.228V3.382a1.688,1.688,0,0,1,1.722-1.722h6.437a4.878,4.878,0,0,1,2.739.861m-1.68,8.174a3.328,3.328,0,0,0,.847-1.172,3.676,3.676,0,0,0,0-3.021,3.193,3.193,0,0,0-.847-1.158,1.648,1.648,0,0,0-1.059-.438h-4.913v6.24h4.913a1.62,1.62,0,0,0,1.059-.452" transform="translate(-141.012 -1.378)" fill="#585858"/>
        <path id="Path_186" data-name="Path 186" d="M274.163,14.044a5.415,5.415,0,0,0,1.036-.54,6.346,6.346,0,0,0,2.089-2.329,6.57,6.57,0,0,0,.791-3.162,6.547,6.547,0,0,0-.791-3.176A6.381,6.381,0,0,0,275.2,2.521a4.878,4.878,0,0,0-2.739-.861h-6.437A1.688,1.688,0,0,0,264.3,3.382V19.7a1.75,1.75,0,0,0,.452,1.228,1.5,1.5,0,0,0,1.158.494,1.552,1.552,0,0,0,1.186-.48,1.74,1.74,0,0,0,.452-1.242V14.365h2.883l4.8,6.411a1.5,1.5,0,0,0,1.02.619,1.534,1.534,0,0,0,1.173-.322,1.6,1.6,0,0,0,.629-1.027,1.443,1.443,0,0,0-.276-1.176Zm-6.615-9.137h4.913a1.647,1.647,0,0,1,1.059.438,3.2,3.2,0,0,1,.847,1.158,3.676,3.676,0,0,1,0,3.021,3.33,3.33,0,0,1-.847,1.172,1.619,1.619,0,0,1-1.059.452h-4.913Z" transform="translate(-219.348 -1.378)" fill="#585858"/>
        <path id="Path_187" data-name="Path 187" d="M686.516,14.044a5.417,5.417,0,0,0,1.036-.54,6.347,6.347,0,0,0,2.089-2.329,6.569,6.569,0,0,0,.791-3.162,6.547,6.547,0,0,0-.791-3.176,6.381,6.381,0,0,0-2.089-2.315,4.878,4.878,0,0,0-2.739-.861h-6.437a1.688,1.688,0,0,0-1.722,1.722V19.7a1.75,1.75,0,0,0,.452,1.228,1.5,1.5,0,0,0,1.158.494,1.552,1.552,0,0,0,1.186-.48A1.74,1.74,0,0,0,679.9,19.7V14.365h2.883l4.8,6.411a1.5,1.5,0,0,0,1.02.619,1.534,1.534,0,0,0,1.173-.322,1.6,1.6,0,0,0,.63-1.027,1.443,1.443,0,0,0-.276-1.176ZM679.9,4.907h4.913a1.647,1.647,0,0,1,1.059.438,3.194,3.194,0,0,1,.847,1.158,3.676,3.676,0,0,1,0,3.021,3.329,3.329,0,0,1-.847,1.172,1.62,1.62,0,0,1-1.059.452H679.9Z" transform="translate(-561.566 -1.378)" fill="#585858"/>
        <path id="Path_188" data-name="Path 188" d="M373.921,15.289a9.518,9.518,0,0,1-3.43,3.685,9.633,9.633,0,0,1-9.854,0,9.409,9.409,0,0,1-3.416-3.685,10.817,10.817,0,0,1-1.228-5.124A10.817,10.817,0,0,1,357.22,5.04a9.409,9.409,0,0,1,3.416-3.685,9.633,9.633,0,0,1,9.854,0,9.518,9.518,0,0,1,3.43,3.685,10.719,10.719,0,0,1,1.242,5.124,10.719,10.719,0,0,1-1.242,5.124m-3.19-8.555a6.156,6.156,0,0,0-2.118-2.442,5.658,5.658,0,0,0-6.113-.014,5.964,5.964,0,0,0-2.089,2.442,7.832,7.832,0,0,0-.748,3.445,7.83,7.83,0,0,0,.748,3.445,5.961,5.961,0,0,0,2.089,2.442,5.658,5.658,0,0,0,6.113-.014,6.149,6.149,0,0,0,2.118-2.442,7.62,7.62,0,0,0,.762-3.43,7.623,7.623,0,0,0-.762-3.43" transform="translate(-295.443)" fill="#585858"/>
        <path id="Path_189" data-name="Path 189" d="M482.1,2.112a1.554,1.554,0,0,1,.48,1.186,1.509,1.509,0,0,1-.48,1.172,1.771,1.771,0,0,1-1.242.438H476.42V19.7a1.6,1.6,0,0,1-.536,1.228,1.885,1.885,0,0,1-1.327.494,1.785,1.785,0,0,1-1.3-.494,1.643,1.643,0,0,1-.508-1.228V4.907h-4.433a1.739,1.739,0,0,1-1.242-.452,1.551,1.551,0,0,1-.48-1.186,1.5,1.5,0,0,1,.494-1.158,1.752,1.752,0,0,1,1.228-.452h12.536a1.741,1.741,0,0,1,1.242.452" transform="translate(-387.235 -1.378)" fill="#585858"/>
        <path id="Path_190" data-name="Path 190" d="M585.041,1.974a1.741,1.741,0,0,1,.452,1.242V13.437a8.509,8.509,0,0,1-.988,4.15,7.131,7.131,0,0,1-2.767,2.823,8.668,8.668,0,0,1-8.146,0,7.1,7.1,0,0,1-2.781-2.823,8.505,8.505,0,0,1-.988-4.15V3.216a1.644,1.644,0,0,1,.508-1.228,1.787,1.787,0,0,1,1.3-.494,1.649,1.649,0,0,1,1.186.494,1.644,1.644,0,0,1,.508,1.228V13.437a4.856,4.856,0,0,0,.593,2.414,4.135,4.135,0,0,0,1.6,1.623,4.324,4.324,0,0,0,2.16.565,4.755,4.755,0,0,0,2.273-.565,4.317,4.317,0,0,0,1.694-1.623,4.6,4.6,0,0,0,.635-2.414V3.216a1.809,1.809,0,0,1,.424-1.242,1.465,1.465,0,0,1,1.158-.48,1.554,1.554,0,0,1,1.186.48" transform="translate(-472.905 -1.24)" fill="#585858"/>
        <g id="Group_155" data-name="Group 155" transform="translate(0 0.223)" style="mix-blend-mode: multiply;isolation: isolate">
          <g id="Group_154" data-name="Group 154">
            <g id="Group_153" data-name="Group 153" clip-path="url(#clip-path-3)">
              <path id="Path_191" data-name="Path 191" d="M4.817,17.948H4.781V4.5h.036a1.5,1.5,0,0,0,1.109-.446,1.535,1.535,0,0,0,.446-1.134,1.606,1.606,0,0,0-.446-1.121A1.446,1.446,0,0,0,4.817,1.31H1.554a1.484,1.484,0,0,0-1.108.459A1.519,1.519,0,0,0,0,2.864,1.613,1.613,0,0,0,.446,4.037,1.484,1.484,0,0,0,1.554,4.5H1.6V17.948H1.554a1.484,1.484,0,0,0-1.108.459A1.518,1.518,0,0,0,0,19.5a1.613,1.613,0,0,0,.446,1.172,1.484,1.484,0,0,0,1.108.459H4.817a1.5,1.5,0,0,0,1.109-.446,1.535,1.535,0,0,0,.446-1.134,1.605,1.605,0,0,0-.446-1.121,1.446,1.446,0,0,0-1.109-.484" transform="translate(0 -1.31)" fill="#585858"/>
            </g>
          </g>
        </g>
        <path id="Path_192" data-name="Path 192" d="M912.05,46.129a1.651,1.651,0,0,1-1.231-.5,1.72,1.72,0,0,1-.487-1.243V33.145a1.721,1.721,0,0,1,.487-1.243,1.76,1.76,0,0,1,2.462,0,1.722,1.722,0,0,1,.487,1.243v.05a4.234,4.234,0,0,1,1.673-1.473,5.629,5.629,0,0,1,2.542-.594,2.174,2.174,0,0,1,1.429.482A1.468,1.468,0,0,1,920,32.764a1.775,1.775,0,0,1-.461,1.327,1.525,1.525,0,0,1-1.093.446,2.8,2.8,0,0,1-.955-.2c-.051-.016-.172-.053-.361-.107a2.143,2.143,0,0,0-.589-.078,2.349,2.349,0,0,0-1.314.421,3.11,3.11,0,0,0-1.045,1.286,4.8,4.8,0,0,0-.413,2.072v6.45a1.721,1.721,0,0,1-.487,1.243,1.652,1.652,0,0,1-1.231.5" transform="translate(-755.499 -25.834)" fill="#585858"/>
        <path id="Path_193" data-name="Path 193" d="M979.094,51.571a12.947,12.947,0,0,1-2.261-.274,10.049,10.049,0,0,1-2.047-.55c-.917-.393-1.383-.95-1.383-1.656a1.485,1.485,0,0,1,.086-.462,1.767,1.767,0,0,1,.586-.951,1.437,1.437,0,0,1,.91-.331,1.72,1.72,0,0,1,.544.086c.042.01.235.076,1.351.5a6.273,6.273,0,0,0,2.215.471,4.669,4.669,0,0,0,2.953-.784,2.686,2.686,0,0,0,.962-2.206V44.363a5.831,5.831,0,0,1-1.683,1.346,5.333,5.333,0,0,1-2.641.691,6.585,6.585,0,0,1-3.514-.979,6.878,6.878,0,0,1-2.494-2.713,8.383,8.383,0,0,1-.908-3.931,8.572,8.572,0,0,1,.894-3.944,6.832,6.832,0,0,1,2.453-2.727,6.4,6.4,0,0,1,3.461-.979,6.037,6.037,0,0,1,2.622.58,6.363,6.363,0,0,1,1.81,1.25v-.085a1.721,1.721,0,0,1,.487-1.243,1.652,1.652,0,0,1,1.231-.5,1.676,1.676,0,0,1,1.23.488,1.71,1.71,0,0,1,.488,1.257v12.11a5.93,5.93,0,0,1-2.088,4.979,8.378,8.378,0,0,1-5.263,1.61m0-17.281a3.691,3.691,0,0,0-2.9,1.277,4.719,4.719,0,0,0-1.122,3.21,4.666,4.666,0,0,0,1.122,3.2,3.709,3.709,0,0,0,2.9,1.264,3.75,3.75,0,0,0,2.916-1.264,4.633,4.633,0,0,0,1.135-3.2,4.685,4.685,0,0,0-1.135-3.209,3.733,3.733,0,0,0-2.916-1.278" transform="translate(-806.487 -25.833)" fill="#585858"/>
        <path id="Path_194" data-name="Path 194" d="M799.512,21.673a1.659,1.659,0,0,1-1.53-2.293l6.916-16.7a1.658,1.658,0,0,1,3.064,0l6.9,16.648a1.658,1.658,0,1,1-3.064,1.269L806.43,7.652l-5.384,13a1.654,1.654,0,0,1-1.533,1.024Z" transform="translate(-662.153 -1.378)" fill="#585858"/>
      </g>
    </g>
  </g>
</svg>
