<svg id="Group_520" data-name="Group 520" xmlns="http://www.w3.org/2000/svg" xmlns:xlink="http://www.w3.org/1999/xlink" width="122.005" height="54.223" viewBox="0 0 122.005 54.223">
  <defs>
    <clipPath id="clip-path">
      <rect id="Rectangle_242" data-name="Rectangle 242" width="122.005" height="54.223" fill="none"/>
    </clipPath>
    <clipPath id="clip-path-3">
      <rect id="Rectangle_240" data-name="Rectangle 240" width="33.889" height="33.889" fill="none"/>
    </clipPath>
  </defs>
  <g id="Group_519" data-name="Group 519" clip-path="url(#clip-path)">
    <g id="Group_518" data-name="Group 518">
      <g id="Group_517" data-name="Group 517" clip-path="url(#clip-path)">
        <g id="Group_516" data-name="Group 516" transform="translate(10.167 10.166)" opacity="0.7">
          <g id="Group_515" data-name="Group 515">
            <g id="Group_514" data-name="Group 514" clip-path="url(#clip-path-3)">
              <path id="Path_382" data-name="Path 382" d="M159.983,141.667l-.2,2.109a1.709,1.709,0,0,0,.051.6l2.584-.692a2.072,2.072,0,0,1-.062-.73l.239-2.557a2.07,2.07,0,0,0-.269-1.23l-2.568,1.482a1.708,1.708,0,0,1,.222,1.015m-1.937-5.435-1.071-2.334a2.072,2.072,0,0,0-.848-.931l-1.483,2.568a1.709,1.709,0,0,1,.7.768l.884,1.926a1.714,1.714,0,0,0,.345.5l1.892-1.891a2.081,2.081,0,0,1-.418-.6m-6.435-3.355a2.069,2.069,0,0,1-.663-.311l-2.095-1.486a2.069,2.069,0,0,0-1.2-.382v2.965a1.708,1.708,0,0,1,.989.315l1.728,1.226a1.709,1.709,0,0,0,.547.257Zm10.023,14.765a1.707,1.707,0,0,1-.315.989l-1.226,1.728a1.709,1.709,0,0,0-.257.547l2.584.692a2.071,2.071,0,0,1,.311-.663l1.486-2.095a2.071,2.071,0,0,0,.382-1.2Zm-26.308,5.975.2-2.109a1.714,1.714,0,0,0-.051-.6l-2.584.692a2.071,2.071,0,0,1,.062.73l-.24,2.557a2.07,2.07,0,0,0,.269,1.23l2.568-1.483a1.707,1.707,0,0,1-.222-1.014m-1.336-6.965,1.226-1.728a1.711,1.711,0,0,0,.257-.547l-2.584-.692a2.066,2.066,0,0,1-.311.662l-1.486,2.1a2.069,2.069,0,0,0-.382,1.2h2.965a1.708,1.708,0,0,1,.315-.989m10.4-11.192-.692-2.584a2.074,2.074,0,0,1-.729.062l-2.557-.239a2.072,2.072,0,0,0-1.23.269l1.483,2.568a1.709,1.709,0,0,1,1.014-.222l2.11.2a1.705,1.705,0,0,0,.6-.051m14.6,19.87-1.926.884a1.713,1.713,0,0,0-.5.345l1.892,1.892a2.072,2.072,0,0,1,.6-.418l2.334-1.071a2.07,2.07,0,0,0,.93-.848l-2.568-1.483a1.707,1.707,0,0,1-.768.7m-20.256-16.606-1.892-1.891a2.079,2.079,0,0,1-.6.418l-2.334,1.071a2.069,2.069,0,0,0-.93.848l2.568,1.482a1.707,1.707,0,0,1,.768-.7l1.925-.884a1.708,1.708,0,0,0,.5-.345m14.893,21.246-2.11-.2a1.709,1.709,0,0,0-.6.051l.692,2.584a2.071,2.071,0,0,1,.73-.062l2.557.239a2.07,2.07,0,0,0,1.23-.269l-1.483-2.568a1.708,1.708,0,0,1-1.014.222m-13.664-.989-.884-1.925a1.708,1.708,0,0,0-.345-.5l-1.892,1.892a2.073,2.073,0,0,1,.418.6l1.071,2.334a2.07,2.07,0,0,0,.848.93l1.483-2.568a1.707,1.707,0,0,1-.7-.768m4.971,1.1a1.713,1.713,0,0,0-.547-.257l-.692,2.584a2.074,2.074,0,0,1,.663.312l2.095,1.486a2.07,2.07,0,0,0,1.2.382v-2.965a1.708,1.708,0,0,1-.989-.315Z" transform="translate(-130.71 -130.698)" fill="#0096dc"/>
            </g>
          </g>
        </g>
        <path id="Path_383" data-name="Path 383" d="M135.548,140.653l-2.568-1.482a2.07,2.07,0,0,0-.269,1.229l.239,2.557a2.071,2.071,0,0,1-.062.73l2.584.692a1.712,1.712,0,0,0,.051-.6l-.2-2.109a1.708,1.708,0,0,1,.222-1.015m1.3-3.819,1.892,1.891a1.711,1.711,0,0,0,.345-.5l.884-1.925a1.71,1.71,0,0,1,.7-.768l-1.483-2.568a2.07,2.07,0,0,0-.847.931l-1.071,2.334a2.075,2.075,0,0,1-.418.6m7.545-1.373a1.708,1.708,0,0,0,.547-.257l1.728-1.226a1.708,1.708,0,0,1,.989-.315V130.7a2.07,2.07,0,0,0-1.2.382l-2.094,1.486a2.07,2.07,0,0,1-.663.311ZM130.71,147.643a2.07,2.07,0,0,0,.382,1.2l1.486,2.095a2.075,2.075,0,0,1,.312.663l2.584-.692a1.713,1.713,0,0,0-.257-.547l-1.226-1.728a1.707,1.707,0,0,1-.315-.989Zm29.051,6.99,2.568,1.483a2.07,2.07,0,0,0,.269-1.23l-.239-2.557a2.069,2.069,0,0,1,.062-.729l-2.584-.692a1.71,1.71,0,0,0-.051.6l.2,2.109a1.707,1.707,0,0,1-.222,1.014m1.873-6.99H164.6a2.07,2.07,0,0,0-.382-1.2l-1.486-2.095a2.07,2.07,0,0,1-.312-.662l-2.584.692a1.709,1.709,0,0,0,.257.547l1.226,1.728a1.709,1.709,0,0,1,.315.989M151.52,135.512l2.11-.2a1.709,1.709,0,0,1,1.014.222l1.482-2.568a2.072,2.072,0,0,0-1.229-.269l-2.557.239a2.07,2.07,0,0,1-.729-.062l-.692,2.584a1.7,1.7,0,0,0,.6.051m-15.972,19.121-2.568,1.483a2.072,2.072,0,0,0,.931.847l2.334,1.071a2.073,2.073,0,0,1,.6.418l1.892-1.892a1.716,1.716,0,0,0-.5-.345l-1.925-.884a1.706,1.706,0,0,1-.768-.7m21.52-15.562,1.926.884a1.709,1.709,0,0,1,.768.7l2.568-1.482a2.069,2.069,0,0,0-.93-.847l-2.334-1.071a2.072,2.072,0,0,1-.6-.418l-1.892,1.891a1.708,1.708,0,0,0,.5.345m-16.4,20.679-1.483,2.568a2.07,2.07,0,0,0,1.23.269l2.557-.24a2.074,2.074,0,0,1,.73.062l.692-2.584a1.712,1.712,0,0,0-.6-.051l-2.11.2a1.708,1.708,0,0,1-1.014-.222m13.979,0,1.483,2.568a2.069,2.069,0,0,0,.847-.93l1.071-2.334a2.067,2.067,0,0,1,.418-.6l-1.892-1.892a1.71,1.71,0,0,0-.345.5l-.884,1.925a1.709,1.709,0,0,1-.7.768m-6,1.558a1.708,1.708,0,0,1-.989.315v2.965a2.07,2.07,0,0,0,1.2-.382l2.095-1.486a2.079,2.079,0,0,1,.663-.312l-.692-2.584a1.707,1.707,0,0,0-.547.257Z" transform="translate(-120.543 -120.532)" fill="#0096dc"/>
        <path id="Path_384" data-name="Path 384" d="M228.733,217.175l-.966-1.362a1.347,1.347,0,0,1-.243-.9l.156-1.662a1.347,1.347,0,0,0-.779-1.35l-1.517-.7a1.349,1.349,0,0,1-.663-.663l-.7-1.517a1.347,1.347,0,0,0-1.35-.779l-1.662.155a1.346,1.346,0,0,1-.9-.242l-1.362-.966a1.347,1.347,0,0,0-1.559,0l-1.361.966a1.346,1.346,0,0,1-.9.242l-1.662-.155a1.347,1.347,0,0,0-1.35.779l-.7,1.517a1.347,1.347,0,0,1-.662.663l-1.517.7a1.347,1.347,0,0,0-.779,1.35l.155,1.662a1.348,1.348,0,0,1-.242.9l-.966,1.362a1.347,1.347,0,0,0,0,1.559l.966,1.361a1.348,1.348,0,0,1,.242.9l-.155,1.662a1.347,1.347,0,0,0,.779,1.35l1.517.7a1.347,1.347,0,0,1,.662.662l.7,1.517a1.347,1.347,0,0,0,1.35.779l1.662-.156a1.348,1.348,0,0,1,.9.243l1.361.966a1.346,1.346,0,0,0,1.559,0l1.361-.966a1.347,1.347,0,0,1,.9-.243l1.662.156a1.347,1.347,0,0,0,1.35-.779l.7-1.517a1.348,1.348,0,0,1,.663-.663l1.517-.7a1.347,1.347,0,0,0,.779-1.35L227.525,221a1.347,1.347,0,0,1,.243-.9l.966-1.361a1.348,1.348,0,0,0,0-1.559m-2.691,1.364-.724,1.021a1.011,1.011,0,0,0-.182.678l.117,1.247a1.011,1.011,0,0,1-.585,1.013l-1.138.522a1.01,1.01,0,0,0-.5.5l-.522,1.138a1.01,1.01,0,0,1-1.012.584l-1.246-.117a1.011,1.011,0,0,0-.679.182l-1.021.724a1.011,1.011,0,0,1-1.169,0l-1.021-.724a1.01,1.01,0,0,0-.679-.182l-1.246.117a1.01,1.01,0,0,1-1.013-.585l-.522-1.138a1.01,1.01,0,0,0-.5-.5l-1.138-.522a1.011,1.011,0,0,1-.585-1.013l.117-1.246a1.009,1.009,0,0,0-.182-.679l-.724-1.021a1.01,1.01,0,0,1,0-1.169l.724-1.021a1.01,1.01,0,0,0,.182-.679l-.117-1.246a1.011,1.011,0,0,1,.585-1.013l1.138-.522a1.011,1.011,0,0,0,.5-.5l.522-1.138a1.01,1.01,0,0,1,1.013-.584l1.246.117a1.011,1.011,0,0,0,.679-.182l1.021-.724a1.01,1.01,0,0,1,1.169,0l1.021.724a1.011,1.011,0,0,0,.679.182l1.247-.117a1.009,1.009,0,0,1,1.012.584l.522,1.138a1.011,1.011,0,0,0,.5.5l1.138.522a1.011,1.011,0,0,1,.585,1.013l-.117,1.246a1.011,1.011,0,0,0,.182.679l.724,1.021a1.011,1.011,0,0,1,0,1.169" transform="translate(-190.856 -190.844)" fill="#0096dc"/>
        <path id="Path_385" data-name="Path 385" d="M631.769,293.414l3.308-10.157h2.112l3.308,10.157H638.6l-.792-2.749h-3.417l-.792,2.749Zm3.4-5.4-.357,1.242h2.594l-.357-1.242q-.249-.808-.474-1.662t-.443-1.693h-.062q-.218.854-.435,1.7t-.466,1.654" transform="translate(-582.628 -261.224)" fill="#0096dc"/>
        <path id="Path_386" data-name="Path 386" d="M753.166,321.22v-7.626h1.475l.124,1.351h.062a3.2,3.2,0,0,1,.978-1.142,2.151,2.151,0,0,1,2.05-.241l-.311,1.553a3.375,3.375,0,0,0-.373-.093,2.425,2.425,0,0,0-.419-.031,1.663,1.663,0,0,0-.947.349,2.7,2.7,0,0,0-.854,1.219v4.659Z" transform="translate(-694.582 -289.03)" fill="#0096dc"/>
        <path id="Path_387" data-name="Path 387" d="M817.229,324.59a6.073,6.073,0,0,1-1.266-.124,3.323,3.323,0,0,1-1-.373,1.955,1.955,0,0,1-.66-.621,1.625,1.625,0,0,1,.039-1.763,2.613,2.613,0,0,1,.807-.738v-.062a1.545,1.545,0,0,1-.489-.5,1.44,1.44,0,0,1-.194-.776,1.388,1.388,0,0,1,.256-.815,2.464,2.464,0,0,1,.582-.6v-.062a2.721,2.721,0,0,1-.691-.815,2.35,2.35,0,0,1-.3-1.2,2.636,2.636,0,0,1,.249-1.165,2.6,2.6,0,0,1,.66-.862,2.819,2.819,0,0,1,.955-.528,3.661,3.661,0,0,1,1.149-.179,3.213,3.213,0,0,1,.6.054,4.037,4.037,0,0,1,.52.132h2.733v1.32h-1.4a1.814,1.814,0,0,1,.31.551,2.106,2.106,0,0,1,.124.738,2.614,2.614,0,0,1-.225,1.118,2.33,2.33,0,0,1-.614.808,2.7,2.7,0,0,1-.916.5,3.661,3.661,0,0,1-1.134.171,2.945,2.945,0,0,1-.513-.046,2.541,2.541,0,0,1-.528-.155,1.621,1.621,0,0,0-.272.311.759.759,0,0,0-.1.419.588.588,0,0,0,.272.512,1.816,1.816,0,0,0,.971.186H818.5a3.98,3.98,0,0,1,2.089.443,1.566,1.566,0,0,1,.707,1.437,2.077,2.077,0,0,1-.288,1.056,2.61,2.61,0,0,1-.815.854,4.358,4.358,0,0,1-1.281.567,6.28,6.28,0,0,1-1.685.21m.28-1.165a2.735,2.735,0,0,0,1.5-.365,1.034,1.034,0,0,0,.567-.862.6.6,0,0,0-.349-.606,2.548,2.548,0,0,0-1-.155h-1.041a4.225,4.225,0,0,1-1.04-.109,1.273,1.273,0,0,0-.59,1.009.882.882,0,0,0,.52.8,2.991,2.991,0,0,0,1.436.288m-.186-5.747a1.258,1.258,0,0,0,.932-.4,1.564,1.564,0,0,0,.388-1.141,1.538,1.538,0,0,0-.38-1.11,1.252,1.252,0,0,0-.94-.4,1.29,1.29,0,0,0-.948.388,1.514,1.514,0,0,0-.388,1.118,1.563,1.563,0,0,0,.388,1.141,1.276,1.276,0,0,0,.948.4" transform="translate(-750.74 -289.03)" fill="#0096dc"/>
        <path id="Path_388" data-name="Path 388" d="M913.657,321.406a3.959,3.959,0,0,1-1.475-.272,3.5,3.5,0,0,1-1.2-.784,3.577,3.577,0,0,1-.8-1.25,4.618,4.618,0,0,1-.287-1.685,4.525,4.525,0,0,1,.3-1.677,3.846,3.846,0,0,1,.784-1.258,3.472,3.472,0,0,1,1.126-.792,3.211,3.211,0,0,1,1.3-.28,3.316,3.316,0,0,1,1.366.264,2.668,2.668,0,0,1,.986.745,3.278,3.278,0,0,1,.6,1.149,5.033,5.033,0,0,1,.2,1.46q0,.264-.023.5a3.338,3.338,0,0,1-.054.373h-4.846a2.459,2.459,0,0,0,.722,1.576,2.168,2.168,0,0,0,1.53.551,2.807,2.807,0,0,0,.924-.147,4.091,4.091,0,0,0,.846-.412l.606,1.118a5.485,5.485,0,0,1-1.211.59,4.213,4.213,0,0,1-1.4.233m-2.035-4.721h3.386a2.263,2.263,0,0,0-.38-1.39,1.375,1.375,0,0,0-1.173-.5,1.692,1.692,0,0,0-1.2.481,2.284,2.284,0,0,0-.637,1.413" transform="translate(-839.124 -289.03)" fill="#0096dc"/>
        <path id="Path_389" data-name="Path 389" d="M1012.524,321.22v-7.626H1014l.124,1.025h.062a6.058,6.058,0,0,1,1.11-.854,2.657,2.657,0,0,1,1.39-.357,2.042,2.042,0,0,1,1.786.784,3.832,3.832,0,0,1,.559,2.244v4.784h-1.786v-4.551a2.375,2.375,0,0,0-.279-1.335,1.052,1.052,0,0,0-.916-.388,1.606,1.606,0,0,0-.878.241,5.6,5.6,0,0,0-.862.707v5.327Z" transform="translate(-933.766 -289.03)" fill="#0096dc"/>
        <path id="Path_390" data-name="Path 390" d="M1112.27,298.942a2.786,2.786,0,0,1-1.126-.2,1.9,1.9,0,0,1-.745-.567,2.333,2.333,0,0,1-.419-.87,4.439,4.439,0,0,1-.132-1.126v-3.634h-1.087v-1.335l1.18-.078.217-2.081h1.491v2.081h1.941v1.413h-1.941v3.634q0,1.336,1.072,1.336a1.9,1.9,0,0,0,.411-.046,1.938,1.938,0,0,0,.38-.124l.311,1.32a5.909,5.909,0,0,1-.706.194,4.029,4.029,0,0,1-.847.086" transform="translate(-1022.517 -266.566)" fill="#0096dc"/>
        <path id="Path_391" data-name="Path 391" d="M1184.936,274.51a1.139,1.139,0,0,1-.792-.279.935.935,0,0,1-.311-.73.959.959,0,0,1,.311-.738,1.235,1.235,0,0,1,1.584,0,.96.96,0,0,1,.311.738.936.936,0,0,1-.311.73,1.14,1.14,0,0,1-.792.279m-.9,1.336h1.786v7.626h-1.786Z" transform="translate(-1091.75 -251.282)" fill="#0096dc"/>
        <path id="Path_392" data-name="Path 392" d="M1233.748,321.22v-7.626h1.475l.124,1.025h.062a6.061,6.061,0,0,1,1.11-.854,2.659,2.659,0,0,1,1.39-.357,2.042,2.042,0,0,1,1.786.784,3.83,3.83,0,0,1,.559,2.244v4.784h-1.786v-4.551a2.374,2.374,0,0,0-.28-1.335,1.052,1.052,0,0,0-.916-.388,1.606,1.606,0,0,0-.878.241,5.594,5.594,0,0,0-.862.707v5.327Z" transform="translate(-1137.783 -289.03)" fill="#0096dc"/>
        <path id="Path_393" data-name="Path 393" d="M1337.627,321.406a2.219,2.219,0,0,1-1.631-.614,2.178,2.178,0,0,1-.621-1.623,2.232,2.232,0,0,1,.256-1.079,2.209,2.209,0,0,1,.807-.815,5.366,5.366,0,0,1,1.4-.575,12.777,12.777,0,0,1,2.027-.357,2.9,2.9,0,0,0-.085-.567,1.305,1.305,0,0,0-.233-.481,1.082,1.082,0,0,0-.427-.326,1.615,1.615,0,0,0-.652-.116,2.888,2.888,0,0,0-1.095.217,7.369,7.369,0,0,0-1.048.528l-.652-1.2a7.643,7.643,0,0,1,1.429-.7,4.857,4.857,0,0,1,1.708-.3,2.626,2.626,0,0,1,2.136.846,3.727,3.727,0,0,1,.706,2.446v4.519h-1.475l-.124-.839h-.062a5.6,5.6,0,0,1-1.095.73,2.765,2.765,0,0,1-1.266.3m.575-1.4a1.674,1.674,0,0,0,.846-.217,4.525,4.525,0,0,0,.815-.621v-1.708a8.21,8.21,0,0,0-1.3.248,3.789,3.789,0,0,0-.854.349,1.25,1.25,0,0,0-.466.443,1.061,1.061,0,0,0-.14.528.87.87,0,0,0,.311.745,1.284,1.284,0,0,0,.792.233" transform="translate(-1231.505 -289.03)" fill="#0096dc"/>
      </g>
    </g>
  </g>
</svg>
