<svg id="Group_63" data-name="Group 63" xmlns="http://www.w3.org/2000/svg" width="42.999" height="53.459" viewBox="0 0 42.999 53.459">
  <ellipse id="Ellipse_2" data-name="Ellipse 2" cx="7.155" cy="6.844" rx="7.155" ry="6.844" transform="translate(10.922 10.552)" fill="#fff"/>
  <path id="Path_106" data-name="Path 106" d="M43.54,2H14.486A3.486,3.486,0,0,0,11,5.486V46.162a3.486,3.486,0,0,0,3.486,3.486H43.54a3.486,3.486,0,0,0,3.486-3.486V5.486A3.486,3.486,0,0,0,43.54,2ZM29.013,10.135a9.3,9.3,0,1,1-9.3,9.3A9.3,9.3,0,0,1,29.013,10.135Zm7.554,23.243a1.162,1.162,0,0,1-1.162,1.162H22.621a1.162,1.162,0,1,1,0-2.324H35.405A1.162,1.162,0,0,1,36.567,33.378Zm2.905,6.973H18.554a1.162,1.162,0,1,1,0-2.324H39.473a1.162,1.162,0,1,1,0,2.324Z" transform="translate(-11 -2)" fill="#fff"/>
  <path id="Path_107" data-name="Path 107" d="M56.635,59.648H28.162a1.162,1.162,0,0,1,0-2.324H56.635a1.743,1.743,0,0,0,1.743-1.743V13.162a1.162,1.162,0,1,1,2.324,0V55.581A4.068,4.068,0,0,1,56.635,59.648Z" transform="translate(-17.703 -6.189)" fill="#fff"/>
</svg>
