<svg xmlns="http://www.w3.org/2000/svg" width="96" height="96" viewBox="0 0 96 96">
  <g id="Group_510" data-name="Group 510" transform="translate(-644 -3127)">
    <rect id="Rectangle_53" data-name="Rectangle 53" width="96" height="96" rx="20" transform="translate(644 3127)" fill="#3c13a2"/>
    <g id="Group_63" data-name="Group 63" transform="translate(670.5 3148.125)">
      <ellipse id="Ellipse_2" data-name="Ellipse 2" cx="7.155" cy="6.844" rx="7.155" ry="6.844" transform="translate(10.922 10.552)" fill="#fff"/>
      <path id="Path_106" data-name="Path 106" d="M43.54,2H14.486A3.486,3.486,0,0,0,11,5.486V46.162a3.486,3.486,0,0,0,3.486,3.486H43.54a3.486,3.486,0,0,0,3.486-3.486V5.486A3.486,3.486,0,0,0,43.54,2ZM29.013,10.135a9.3,9.3,0,1,1-9.3,9.3,9.3,9.3,0,0,1,9.3-9.3Zm7.554,23.243A1.162,1.162,0,0,1,35.4,34.54H22.621a1.162,1.162,0,1,1,0-2.324H35.4a1.162,1.162,0,0,1,1.162,1.162Zm2.9,6.973H18.554a1.162,1.162,0,1,1,0-2.324H39.473a1.162,1.162,0,1,1,0,2.324Z" transform="translate(-11 -2)" fill="#fff"/>
      <path id="Path_107" data-name="Path 107" d="M56.635,59.648H28.162a1.162,1.162,0,0,1,0-2.324H56.635a1.743,1.743,0,0,0,1.743-1.743V13.162a1.162,1.162,0,0,1,2.324,0V55.581a4.068,4.068,0,0,1-4.067,4.067Z" transform="translate(-17.703 -6.189)" fill="#fff"/>
    </g>
  </g>
</svg>
