<svg xmlns="http://www.w3.org/2000/svg" width="58.696" height="40.767" viewBox="0 0 58.696 40.767">
  <g id="Group_69" data-name="Group 69" transform="translate(-1 -11.08)">
    <path id="Path_108" data-name="Path 108" d="M36.474,19.86a8.662,8.662,0,1,0,8.662,8.653,8.662,8.662,0,0,0-8.662-8.653Zm0,7.764a2.579,2.579,0,0,1,.889,5v.6a.889.889,0,1,1-1.779,0v-.6a2.588,2.588,0,0,1-1.7-2.419.889.889,0,1,1,1.779,0,.809.809,0,1,0,1.61,0,.8.8,0,0,0-.8-.8,2.57,2.57,0,0,1-.889-4.989v-.6a.889.889,0,1,1,1.779,0v.614a2.579,2.579,0,0,1,1.69,2.41.889.889,0,1,1-1.779,0,.792.792,0,0,0-.8-.8.8.8,0,1,0,0,1.6Zm-11.917,0H21.889a.889.889,0,1,0,0,1.779h2.668a.889.889,0,1,0,0-1.779Zm26.484,0H48.374a.889.889,0,0,0,0,1.779h2.668a.889.889,0,1,0,0-1.779Z" transform="translate(-2.213 -0.972)" fill="#fff"/>
    <path id="Path_109" data-name="Path 109" d="M55.738,11.08H12.793A3.966,3.966,0,0,0,8.835,15a3.958,3.958,0,0,0-3.913,3.913A3.966,3.966,0,0,0,1,22.873V47.88a3.966,3.966,0,0,0,3.958,3.966H47.912a3.966,3.966,0,0,0,3.949-3.922A3.958,3.958,0,0,0,55.774,44,3.958,3.958,0,0,0,59.7,40.045V15.038a3.966,3.966,0,0,0-3.958-3.958ZM51.825,46.146H8.871a2.179,2.179,0,0,1-2.179-2.179V18.959a2.179,2.179,0,0,1,2.144-2.179V40.045A3.958,3.958,0,0,0,12.793,44H54a2.17,2.17,0,0,1-2.17,2.143Zm4.038-11.73a.889.889,0,0,1-.889.889A3.975,3.975,0,0,0,51,39.281a.889.889,0,0,1-.889.889H18.422a.889.889,0,0,1-.889-.889,3.975,3.975,0,0,0-3.975-3.975.889.889,0,0,1-.889-.889V20.676a.889.889,0,0,1,.889-.889,3.975,3.975,0,0,0,3.975-3.975.889.889,0,0,1,.889-.889H50.109a.889.889,0,0,1,.889.889,3.975,3.975,0,0,0,3.975,3.975.889.889,0,0,1,.889.889Z" fill="#fff"/>
  </g>
</svg>
