<svg xmlns="http://www.w3.org/2000/svg" xmlns:xlink="http://www.w3.org/1999/xlink" width="42.07" height="57.368" viewBox="0 0 42.07 57.368">
  <defs>
    <clipPath id="clip-path">
      <rect id="Rectangle_236" data-name="Rectangle 236" width="42.07" height="57.368" fill="none"/>
    </clipPath>
  </defs>
  <g id="Group_509" data-name="Group 509" transform="translate(0 0)">
    <g id="Group_508" data-name="Group 508" transform="translate(0 0)" clip-path="url(#clip-path)">
      <path id="Path_379" data-name="Path 379" d="M35.372,0H12.424A5.737,5.737,0,0,0,7.032,3.825H27.723a9.56,9.56,0,0,1,9.561,9.561V49.374a5.736,5.736,0,0,0,3.825-5.392V5.737A5.737,5.737,0,0,0,35.372,0" transform="translate(0.961 0)" fill="#fff"/>
      <path id="Path_380" data-name="Path 380" d="M17.211,35.413A11.474,11.474,0,1,1,28.684,23.94,11.474,11.474,0,0,1,17.211,35.413m9.562,5.736H7.65a1.912,1.912,0,1,1,0-3.824H26.772a1.912,1.912,0,1,1,0,3.824m0,7.65H7.65a1.912,1.912,0,1,1,0-3.825H26.772a1.912,1.912,0,0,1,0,3.825m1.912-42.07H5.737A5.737,5.737,0,0,0,0,12.466V50.711a5.737,5.737,0,0,0,5.737,5.737H28.684a5.737,5.737,0,0,0,5.737-5.737V12.466a5.737,5.737,0,0,0-5.737-5.737" transform="translate(0 0.92)" fill="#fff"/>
      <path id="Path_381" data-name="Path 381" d="M20.248,22.254,16.29,26.079a1.918,1.918,0,0,1-2.659,0l-1.758-1.721A1.912,1.912,0,1,1,14.511,21.6l.459.44L17.61,19.5a1.912,1.912,0,0,1,2.638,2.754m-4.188-7.113A7.649,7.649,0,1,0,23.71,22.79a7.649,7.649,0,0,0-7.649-7.649" transform="translate(1.15 2.069)" fill="#fff"/>
    </g>
  </g>
</svg>
