<svg id="Group_112" data-name="Group 112" xmlns="http://www.w3.org/2000/svg" xmlns:xlink="http://www.w3.org/1999/xlink" width="252.558" height="36.464" viewBox="0 0 252.558 36.464">
  <defs>
    <clipPath id="clip-path">
      <rect id="Rectangle_78" data-name="Rectangle 78" width="252.558" height="36.464" fill="none"/>
    </clipPath>
  </defs>
  <g id="Group_111" data-name="Group 111" clip-path="url(#clip-path)">
    <path id="Path_132" data-name="Path 132" d="M141.224,14.715a1.9,1.9,0,1,1,1.932-1.9,1.917,1.917,0,0,1-1.932,1.9" transform="translate(-108.331 -8.494)" fill="#fff"/>
    <path id="Path_133" data-name="Path 133" d="M143.107,46.428a1.339,1.339,0,0,1-1-.407,1.4,1.4,0,0,1-.395-1.008V35.894a1.4,1.4,0,0,1,.395-1.008,1.429,1.429,0,0,1,2,0,1.4,1.4,0,0,1,.395,1.008v9.118a1.4,1.4,0,0,1-.395,1.008,1.341,1.341,0,0,1-1,.407" transform="translate(-110.214 -26.815)" fill="#fff"/>
    <path id="Path_134" data-name="Path 134" d="M6.94,31.427A1.341,1.341,0,0,1,5.7,30.6L.1,17.09a1.346,1.346,0,0,1,2.486-1.03L6.94,26.566l4.368-10.545a1.345,1.345,0,1,1,2.486,1.03L8.183,30.6a1.341,1.341,0,0,1-1.243.83" transform="translate(0 -11.814)" fill="#fff"/>
    <path id="Path_135" data-name="Path 135" d="M69.906,28.106a1.339,1.339,0,0,1-1-.407,1.4,1.4,0,0,1-.395-1.009V17.572a1.4,1.4,0,0,1,.395-1.008,1.428,1.428,0,0,1,2,0,1.4,1.4,0,0,1,.395,1.008V26.69A1.4,1.4,0,0,1,70.9,27.7a1.341,1.341,0,0,1-1,.407m1.932-15.289a1.932,1.932,0,1,0-1.932,1.9,1.917,1.917,0,0,0,1.932-1.9" transform="translate(-52.865 -8.493)" fill="#fff"/>
    <path id="Path_136" data-name="Path 136" d="M95.595,44.549a7.583,7.583,0,0,1-2.74-.49,4.6,4.6,0,0,1-2.084-1.591,1.143,1.143,0,0,1-.212-.7,1.229,1.229,0,0,1,.6-1.028,1.243,1.243,0,0,1,.679-.211,1.318,1.318,0,0,1,.932.44,4.609,4.609,0,0,0,1.36,1,4.063,4.063,0,0,0,1.7.325c1.112-.043,1.653-.447,1.653-1.234a.984.984,0,0,0-.55-.912,8.239,8.239,0,0,0-1.805-.656,15.9,15.9,0,0,1-2.1-.71,3.77,3.77,0,0,1-1.417-1.09,3.044,3.044,0,0,1-.6-1.975,3,3,0,0,1,.622-1.886,4.084,4.084,0,0,1,1.616-1.235,5.835,5.835,0,0,1,4.39-.012,4.005,4.005,0,0,1,1.8,1.258,1.3,1.3,0,0,1,.3.837,1.1,1.1,0,0,1-.446.893,1.183,1.183,0,0,1-.749.258,1.145,1.145,0,0,1-.844-.329A2.771,2.771,0,0,0,96.7,34.74a3.349,3.349,0,0,0-1.4-.281c-1.083,0-1.609.375-1.609,1.145a.965.965,0,0,0,.288.734,2.057,2.057,0,0,0,.759.448c.314.109.762.246,1.332.407a14.8,14.8,0,0,1,2,.688,3.5,3.5,0,0,1,1.374,1.1,3.18,3.18,0,0,1,.566,1.962,3.026,3.026,0,0,1-.655,1.931,4.136,4.136,0,0,1-1.672,1.246,5.408,5.408,0,0,1-2.091.425" transform="translate(-70.43 -25.011)" fill="#fff"/>
    <path id="Path_137" data-name="Path 137" d="M166.45,33.349a4.367,4.367,0,0,1-2.344-.6,2.8,2.8,0,0,1-.97-2.542V24.186h-.947a1.276,1.276,0,0,1-1.306-1.305,1.206,1.206,0,0,1,.375-.9,1.289,1.289,0,0,1,.931-.362h.947V19.077a1.389,1.389,0,0,1,1.415-1.416,1.315,1.315,0,0,1,.977.407,1.4,1.4,0,0,1,.395,1.008V21.62h1.5a1.276,1.276,0,0,1,1.305,1.305,1.208,1.208,0,0,1-.374.9,1.291,1.291,0,0,1-.931.362h-1.5V30.1a.784.784,0,0,0,.219.621.916.916,0,0,0,.617.193,1.837,1.837,0,0,0,.467-.086,1.377,1.377,0,0,1,.527-.113.8.8,0,0,1,.616.322h0a1.249,1.249,0,0,1-.413,1.892,2.784,2.784,0,0,1-1.5.419" transform="translate(-125.123 -13.735)" fill="#fff"/>
    <path id="Path_138" data-name="Path 138" d="M313.687,63.455a2.158,2.158,0,0,1-1.609-.656,2.247,2.247,0,0,1-.636-1.625V46.487a2.248,2.248,0,0,1,.636-1.624,2.3,2.3,0,0,1,3.218,0,2.25,2.25,0,0,1,.636,1.624v.066a5.533,5.533,0,0,1,2.186-1.925,7.357,7.357,0,0,1,3.321-.776,2.841,2.841,0,0,1,1.867.63,1.918,1.918,0,0,1,.769,1.508,2.319,2.319,0,0,1-.6,1.734,1.992,1.992,0,0,1-1.429.582,3.663,3.663,0,0,1-1.248-.256c-.067-.021-.225-.069-.472-.139a2.8,2.8,0,0,0-.77-.1,3.069,3.069,0,0,0-1.717.55,4.064,4.064,0,0,0-1.366,1.68,6.267,6.267,0,0,0-.54,2.708v8.429A2.249,2.249,0,0,1,315.3,62.8a2.158,2.158,0,0,1-1.609.656" transform="translate(-242.218 -34.104)" fill="#fff"/>
    <path id="Path_139" data-name="Path 139" d="M382.451,70.567a16.92,16.92,0,0,1-2.955-.358,13.134,13.134,0,0,1-2.675-.719c-1.2-.514-1.808-1.242-1.808-2.164a1.939,1.939,0,0,1,.112-.6,2.31,2.31,0,0,1,.766-1.243,1.878,1.878,0,0,1,1.189-.433,2.247,2.247,0,0,1,.711.112c.055.013.307.1,1.765.659a8.2,8.2,0,0,0,2.894.615,6.1,6.1,0,0,0,3.86-1.024,3.511,3.511,0,0,0,1.257-2.883V61.147a7.624,7.624,0,0,1-2.2,1.759,6.969,6.969,0,0,1-3.451.9,8.605,8.605,0,0,1-4.593-1.279,8.987,8.987,0,0,1-3.259-3.546,10.955,10.955,0,0,1-1.186-5.137,11.2,11.2,0,0,1,1.168-5.154,8.929,8.929,0,0,1,3.2-3.564,8.37,8.37,0,0,1,4.523-1.28,7.89,7.89,0,0,1,3.426.758,8.321,8.321,0,0,1,2.366,1.634V46.13a2.249,2.249,0,0,1,.636-1.624,2.159,2.159,0,0,1,1.609-.656,2.191,2.191,0,0,1,1.608.637,2.235,2.235,0,0,1,.637,1.643V61.956c0,2.915-.918,5.1-2.728,6.507a10.948,10.948,0,0,1-6.878,2.1m0-22.583a4.824,4.824,0,0,0-3.793,1.669,6.167,6.167,0,0,0-1.466,4.194,6.1,6.1,0,0,0,1.466,4.176,4.847,4.847,0,0,0,3.793,1.652,4.9,4.9,0,0,0,3.811-1.652,6.055,6.055,0,0,0,1.483-4.176,6.123,6.123,0,0,0-1.483-4.194,4.879,4.879,0,0,0-3.811-1.669" transform="translate(-290 -34.103)" fill="#fff"/>
    <path id="Path_140" data-name="Path 140" d="M861.735,63.81a8.273,8.273,0,0,1-4.5-1.28,8.994,8.994,0,0,1-3.187-3.546,11.089,11.089,0,0,1-1.168-5.136,11.338,11.338,0,0,1,1.15-5.153,8.9,8.9,0,0,1,3.151-3.564,8.068,8.068,0,0,1,4.417-1.28,8.4,8.4,0,0,1,3.243.631,8.715,8.715,0,0,1,2.379,1.443,2.215,2.215,0,0,1,.628-1.418,2.159,2.159,0,0,1,1.609-.656,2.19,2.19,0,0,1,1.608.637,2.236,2.236,0,0,1,.637,1.643V58.756a.977.977,0,0,0,.092.463c.068.123.139.138.187.138a1.572,1.572,0,0,0,.436-.151,1.97,1.97,0,0,1,.773-.169,1.021,1.021,0,0,1,.776.375,1.593,1.593,0,0,1,.331,1.088,2.557,2.557,0,0,1-1.13,2.134,4.529,4.529,0,0,1-2.751.822,2.839,2.839,0,0,1-1.793-.593,4.22,4.22,0,0,1-1.19-1.4,8.557,8.557,0,0,1-2.461,1.606,7.387,7.387,0,0,1-3.231.74m.534-15.825a4.6,4.6,0,0,0-3.65,1.668,6.872,6.872,0,0,0-.017,8.373,4.609,4.609,0,0,0,3.667,1.65,4.662,4.662,0,0,0,3.685-1.651,6.191,6.191,0,0,0,1.431-4.177,6.263,6.263,0,0,0-1.431-4.2,4.642,4.642,0,0,0-3.685-1.668" transform="translate(-663.306 -34.103)" fill="#fff"/>
    <path id="Path_141" data-name="Path 141" d="M201.131,40.537a2.168,2.168,0,0,1-2-3l9.038-21.819a2.167,2.167,0,0,1,4,0l9.012,21.756a2.167,2.167,0,1,1-4,1.659l-7.01-16.923L203.135,39.2a2.161,2.161,0,0,1-2,1.338Z" transform="translate(-154.741 -11.186)" fill="#fff"/>
    <path id="Path_142" data-name="Path 142" d="M487.261,48.637a9.73,9.73,0,0,0-3.363-3.489,8.455,8.455,0,0,0-4.486-1.3,8.881,8.881,0,0,0-4.537,1.242,9.24,9.24,0,0,0-3.42,3.581,11.064,11.064,0,0,0-1.294,5.424,10.161,10.161,0,0,0,1.223,4.979,8.833,8.833,0,0,0,3.475,3.475,11.139,11.139,0,0,0,8.679.684,8.64,8.64,0,0,0,2.7-1.4A2.334,2.334,0,0,0,487.276,60a1.82,1.82,0,0,0-.566-1.323,2.129,2.129,0,0,0-2.625-.23q-.179.107-.66.411a5.853,5.853,0,0,1-1.273.557,7.576,7.576,0,0,1-2.242.261,5.378,5.378,0,0,1-3.381-1.168,5.24,5.24,0,0,1-1.887-3.091h11.6a2.382,2.382,0,0,0,1.565-.559,1.945,1.945,0,0,0,.716-1.472,9.427,9.427,0,0,0-1.26-4.75m-12.856,3.225.025-.132c.507-2.632,2.183-3.966,4.981-3.966a4.745,4.745,0,0,1,3.057,1.092,3.8,3.8,0,0,1,1.5,2.636v.371Z" transform="translate(-365.658 -34.104)" fill="#fff"/>
    <path id="Path_143" data-name="Path 143" d="M581.509,63.455A2.156,2.156,0,0,1,579.9,62.8a2.246,2.246,0,0,1-.636-1.625v-9.1a5.041,5.041,0,0,0-.8-3.011,3.163,3.163,0,0,0-2.72-1.075,4.25,4.25,0,0,0-3.157,1.158,4.019,4.019,0,0,0-1.141,2.927v9.1a2.25,2.25,0,0,1-.636,1.625,2.3,2.3,0,0,1-3.218,0,2.248,2.248,0,0,1-.636-1.625V46.487a2.249,2.249,0,0,1,.636-1.624,2.3,2.3,0,0,1,3.218,0,2.251,2.251,0,0,1,.636,1.624v.283a8.9,8.9,0,0,1,2.339-1.979,6.64,6.64,0,0,1,3.453-.94c2.447,0,4.166.741,5.108,2.2a11.091,11.091,0,0,1,1.4,6.017v9.1a2.249,2.249,0,0,1-.636,1.625,2.159,2.159,0,0,1-1.609.656" transform="translate(-440.941 -34.104)" fill="#fff"/>
    <path id="Path_144" data-name="Path 144" d="M662.485,43.632a7.031,7.031,0,0,1-3.775-.959c-1.038-.646-1.564-2.024-1.564-4.1v-9.7h-1.525a2.056,2.056,0,0,1-2.1-2.1,1.944,1.944,0,0,1,.6-1.449,2.078,2.078,0,0,1,1.5-.583h1.525v-4.1a2.237,2.237,0,0,1,2.281-2.28,2.119,2.119,0,0,1,1.573.656,2.251,2.251,0,0,1,.636,1.624v4.1h2.414a2.056,2.056,0,0,1,2.1,2.1,1.945,1.945,0,0,1-.6,1.449,2.077,2.077,0,0,1-1.5.583h-2.414V38.4a1.262,1.262,0,0,0,.352,1,1.476,1.476,0,0,0,.994.311,2.962,2.962,0,0,0,.752-.138,2.214,2.214,0,0,1,.848-.182,1.294,1.294,0,0,1,.992.519,2.012,2.012,0,0,1-.666,3.047,4.486,4.486,0,0,1-2.424.675" transform="translate(-508.26 -14.281)" fill="#fff"/>
    <path id="Path_145" data-name="Path 145" d="M724.25,35.188a2.156,2.156,0,0,1-1.609-.656A2.246,2.246,0,0,1,722,32.907V18.22a2.248,2.248,0,0,1,.637-1.625,2.3,2.3,0,0,1,3.217,0,2.251,2.251,0,0,1,.636,1.625V32.907a2.249,2.249,0,0,1-.636,1.625,2.158,2.158,0,0,1-1.609.656m3.112-24.627a3.112,3.112,0,1,0-3.112,3.056,3.088,3.088,0,0,0,3.112-3.056" transform="translate(-560.85 -5.837)" fill="#fff"/>
    <path id="Path_146" data-name="Path 146" d="M777.667,63.455a2.156,2.156,0,0,1-1.609-.656,2.246,2.246,0,0,1-.636-1.625v-9.1a5.043,5.043,0,0,0-.8-3.011,3.163,3.163,0,0,0-2.72-1.075,4.251,4.251,0,0,0-3.157,1.158,4.019,4.019,0,0,0-1.142,2.927v9.1a2.249,2.249,0,0,1-.636,1.625,2.3,2.3,0,0,1-3.218,0,2.248,2.248,0,0,1-.636-1.625V46.487a2.25,2.25,0,0,1,.636-1.624,2.3,2.3,0,0,1,3.218,0,2.251,2.251,0,0,1,.636,1.624v.283a8.906,8.906,0,0,1,2.339-1.979,6.64,6.64,0,0,1,3.454-.94c2.447,0,4.165.741,5.107,2.2a11.09,11.09,0,0,1,1.4,6.017v9.1a2.248,2.248,0,0,1-.636,1.625,2.16,2.16,0,0,1-1.609.656" transform="translate(-593.498 -34.104)" fill="#fff"/>
    <path id="Path_147" data-name="Path 147" d="M985.634,0a10.593,10.593,0,0,0-7.754,3.334A1.4,1.4,0,1,0,979.9,5.258a7.831,7.831,0,0,1,5.732-2.465,7.918,7.918,0,0,1,0,15.836c-5.467,0-6.833-3.737-7.947-8.253C976.793,6.75,975.128,0,967.032,0a10.711,10.711,0,0,0,0,21.422,10.593,10.593,0,0,0,7.754-3.333,1.4,1.4,0,1,0-2.022-1.924,7.83,7.83,0,0,1-5.732,2.465,7.918,7.918,0,0,1,0-15.836c5.467,0,6.833,3.737,7.947,8.253.894,3.626,2.559,10.376,10.655,10.376a10.711,10.711,0,0,0,0-21.422" transform="translate(-743.771)" fill="#fff"/>
    <path id="Path_148" data-name="Path 148" d="M992.04,38.959a.805.805,0,0,1-.746-.5L988.619,32a.808.808,0,1,1,1.493-.618l1.928,4.654,1.935-4.673a.808.808,0,0,1,1.493.618l-2.682,6.475a.805.805,0,0,1-.746.5" transform="translate(-768.83 -24.007)" fill="#fff"/>
    <path id="Path_149" data-name="Path 149" d="M1076.162,29.109a.806.806,0,0,1,.746.5l2.674,6.456a.808.808,0,1,1-1.493.618l-1.927-4.654-1.936,4.673a.808.808,0,0,1-1.493-.618l2.682-6.475a.806.806,0,0,1,.747-.5" transform="translate(-834.248 -22.639)" fill="#fff"/>
  </g>
</svg>
